BorgSansMonobi.sfdir
StartChar: exclam
Encoding: 33 33 4
Width: 1229
GlyphClass: 2
Flags: W
LayerCount: 2
Fore
SplineSet
565.898535748 384 m 1,0,-1
 772.062657886 1492 l 1,1,-1
 1043.39870652 1492 l 1,2,-1
 737.852904993 384 l 1,3,-1
 565.898535748 384 l 1,0,-1
619 280 m 0,4,5
 670.15759894 280 670.15759894 280 701.016675887 257.123137623 c 0,6,7
 741.826666667 226.869331126 741.826666667 226.869331126 741.826666667 163.980622222 c 0,8,9
 741.826666667 137.221156848 741.826666667 137.221156848 734.247128139 104.297536368 c 0,10,11
 707.725623875 -11.7340447881 707.725623875 -11.7340447881 625.673280373 -45.6397021149 c 0,12,13
 593.341102271 -59 593.341102271 -59 555 -59 c 0,14,15
 503.785397675 -59 503.785397675 -59 472.900305552 -35.9391312148 c 0,16,17
 432.173333333 -5.52965862458 432.173333333 -5.52965862458 432.173333333 57.6382222222 c 0,18,19
 432.173333333 84.5418194956 432.173333333 84.5418194956 439.763273469 117.74780759 c 0,20,21
 455.737576155 187.136184882 455.737576155 187.136184882 492.233709861 227.270382549 c 0,22,23
 540.183520262 280 540.183520262 280 619 280 c 0,4,5
EndSplineSet
Substitution2: "Single Substitution lookup 9 subtable" exclam_equal
Substitution2: "Single Substitution lookup 4 subtable" exclam_equal_equal
EndChar
StartChar: quotedbl
Encoding: 34 34 5
Width: 1229
GlyphClass: 2
Flags: W
LayerCount: 2
Fore
SplineSet
477.846234594 904 m 1,0,-1
 571.39168914 1492 l 1,1,-1
 886.013795032 1492 l 1,2,-1
 679.262400121 904 l 1,3,-1
 477.846234594 904 l 1,0,-1
902.356441131 904 m 1,4,-1
 1014.51911485 1492 l 1,5,-1
 1310.4442183 1492 l 1,6,-1
 1132.26240012 904 l 1,7,-1
 902.356441131 904 l 1,4,-1
EndSplineSet
EndChar
StartChar: numbersign
Encoding: 35 35 6
Width: 600
GlyphClass: 2
Flags: W
LayerCount: 2
Fore
SplineSet
701 518 m 1,0,-1
 679 421 l 1,1,-1
 563 421 l 1,2,-1
 505 291 l 1,3,-1
 616 291 l 1,4,-1
 594 194 l 1,5,-1
 463 194 l 1,6,-1
 371 -15 l 1,7,-1
 264 -15 l 1,8,-1
 357 194 l 1,9,-1
 249 194 l 1,10,-1
 158 -15 l 1,11,-1
 61 -15 l 1,12,-1
 145 194 l 1,13,-1
 50 194 l 1,14,-1
 72 291 l 1,15,-1
 186 291 l 1,16,-1
 244 421 l 1,17,-1
 137 421 l 1,18,-1
 159 518 l 1,19,-1
 286 518 l 1,20,-1
 379 729 l 1,21,-1
 485 729 l 1,22,-1
 392 518 l 1,23,-1
 502 518 l 1,24,-1
 594 729 l 1,25,-1
 691 729 l 1,26,-1
 604 518 l 1,27,-1
 701 518 l 1,0,-1
350 421 m 1,28,-1
 292 291 l 1,29,-1
 400 291 l 1,30,-1
 458 421 l 1,31,-1
 350 421 l 1,28,-1
EndSplineSet
Validated: 1
EndChar
StartChar: dollar
Encoding: 36 36 7
Width: 1229
GlyphClass: 2
Flags: W
LayerCount: 2
Fore
SplineSet
1162.15136719 675.22265625 m 0,0,1
 1204.484375 616.99609375 1204.484375 616.99609375 1204.484375 536.703125 c 0,2,3
 1204.484375 495.604492188 1204.484375 495.604492188 1193.30371094 448.833984375 c 0,4,5
 1154.59667969 287.869140625 1154.59667969 287.869140625 1011.04485985 198.349609375 c 0,6,7
 904.031647295 132.4375 904.031647295 132.4375 742.360205068 106.672851562 c 1,8,-1
 683.322381595 -119 l 1,9,-1
 476.627387945 -119 l 1,10,-1
 532.662000224 94.880859375 l 1,11,12
 332.321289062 100.4765625 332.321289062 100.4765625 223.211914062 166.30859375 c 2,13,-1
 205 177.296875 l 1,14,-1
 258.98046875 401.375976562 l 1,15,-1
 293.931640625 382.094726562 l 2,16,17
 435.826171875 303.8203125 435.826171875 303.8203125 585.091902845 297.614257812 c 1,18,-1
 682.354846699 669.439453125 l 1,19,20
 598.76582523 700.014648438 598.76582523 700.014648438 541.845019484 735.106445312 c 128,-1,21
 484.924213738 770.197265625 484.924213738 770.197265625 454.213543033 811.793945312 c 0,22,23
 416.032226562 868.025390625 416.032226562 868.025390625 416.032226562 946.875976562 c 0,24,25
 416.032226562 992.635742188 416.032226562 992.635742188 428.834960938 1045.93554688 c 0,26,27
 465.556391299 1195.27246094 465.556391299 1195.27246094 610.207139436 1287.41601562 c 0,28,29
 718.440473431 1356.36132812 718.440473431 1356.36132812 868.06482186 1377.1484375 c 1,30,-1
 914.912133751 1554 l 1,31,-1
 1121.39200073 1554 l 1,32,-1
 1076.91643367 1381.625 l 1,33,34
 1238.56152344 1367.98828125 1238.56152344 1367.98828125 1353.81640625 1305.05957031 c 2,35,-1
 1381.72363281 1289.82324219 l 1,36,-1
 1254.13476562 1101.82421875 l 1,37,-1
 1229.96972656 1114.29296875 l 2,38,39
 1131.71594056 1164.79785156 1131.71594056 1164.79785156 1023.42802219 1177.75976562 c 1,40,-1
 928.931757211 819.333984375 l 1,41,42
 1101.51044294 754.481445312 1101.51044294 754.481445312 1162.15136719 675.22265625 c 0,0,1
742.633126969 1150.29101562 m 0,43,44
 686.906755896 1112.16992188 686.906755896 1112.16992188 669.485776351 1042.32519531 c 0,45,46
 662.584598241 1015.03808594 662.584598241 1015.03808594 662.584598241 998.86328125 c 128,-1,47
 662.584598241 982.6875 662.584598241 982.6875 664.238183877 973.53515625 c 0,48,49
 667.32808791 956.430664062 667.32808791 956.430664062 674.508609613 946.370117188 c 128,-1,50
 681.688061034 936.30859375 681.688061034 936.30859375 690.419421305 928.435546875 c 0,51,52
 709.002727064 911.6796875 709.002727064 911.6796875 740.470087118 896.598632812 c 1,53,-1
 812.624216072 1182.40527344 l 1,54,55
 771.987750424 1170.37304688 771.987750424 1170.37304688 742.633126969 1150.29101562 c 0,43,44
956.096583766 452.762695312 m 0,56,57
 960.211817921 469.206054688 960.211817921 469.206054688 960.211817921 484.022460938 c 0,58,59
 960.211817921 526.321289062 960.211817921 526.321289062 925.132256235 558.021484375 c 0,60,61
 904.350591321 576.801757812 904.350591321 576.801757812 870.889295966 592.618164062 c 1,62,-1
 797.332027356 301.520507812 l 1,63,64
 843.626003471 313.982421875 843.626003471 313.982421875 876.753370852 336.315429688 c 0,65,66
 936.901076723 376.866210938 936.901076723 376.866210938 956.096583766 452.762695312 c 0,56,57
EndSplineSet
EndChar
StartChar: percent
Encoding: 37 37 8
Width: 1229
GlyphClass: 2
Flags: W
LayerCount: 2
Fore
SplineSet
778.757069562 850.884765625 m 128,-1,1
 668.421325167 754 668.421325167 754 517.437948454 754 c 0,2,3
 451.984665467 754 451.984665467 754 402.127929688 774.555664062 c 0,4,5
 342.583007812 800.9140625 342.583007812 800.9140625 308.33203125 860.115234375 c 128,-1,6
 274.08203125 919.31640625 274.08203125 919.31640625 274.08203125 1001.65625 c 0,7,8
 274.08203125 1057.73339844 274.08203125 1057.73339844 290.150390625 1124.45996094 c 0,9,10
 330.140625 1290.19238281 330.140625 1290.19238281 433.823986133 1384.59570312 c 0,11,12
 543.125461026 1479 543.125461026 1479 693.953276879 1479 c 0,13,14
 799.838719371 1479 799.838719371 1479 865.010311071 1424.73925781 c 0,15,16
 890.409825835 1403.59277344 890.409825835 1403.59277344 908.702942116 1375.22167969 c 0,17,18
 947.403961509 1315.20019531 947.403961509 1315.20019531 947.403961509 1231.13183594 c 0,19,20
 947.403961509 1176.51757812 947.403961509 1176.51757812 931.009108155 1111.50878906 c 0,21,0
 889.092813958 947.76953125 889.092813958 947.76953125 778.757069562 850.884765625 c 128,-1,1
480.573177863 1013.38769531 m 0,22,23
 480.553207212 965.415039062 480.553207212 965.415039062 501.500317899 946.591796875 c 0,24,25
 516.626509373 933 516.626509373 933 552.544250673 933 c 0,26,27
 565.963477033 933 565.963477033 933 581.833838027 937.474609375 c 128,-1,28
 597.705250108 941.94921875 597.705250108 941.94921875 613.042710047 951.356445312 c 128,-1,29
 628.380169986 960.764648438 628.380169986 960.764648438 642.263976753 976.05078125 c 128,-1,30
 656.14778352 991.3359375 656.14778352 991.3359375 668.772388189 1012.21875 c 0,31,32
 694.465156196 1054.72265625 694.465156196 1054.72265625 711.397114952 1117.72363281 c 128,-1,33
 728.330124794 1180.72558594 728.330124794 1180.72558594 728.330124794 1220.11230469 c 0,34,35
 728.330124794 1270.45019531 728.330124794 1270.45019531 704.55453928 1287.45410156 c 0,36,37
 689.807790174 1298 689.807790174 1298 661.663887533 1298 c 0,38,39
 546.350195613 1298 546.350195613 1298 496.159745396 1111.55175781 c 0,40,41
 480.588944167 1053.5390625 480.588944167 1053.5390625 480.573177863 1013.38769531 c 0,22,23
378.059570312 -0 m 1,42,-1
 158 -0 l 1,43,-1
 1275.69628906 1462 l 1,44,-1
 1495.75585938 1462 l 1,45,-1
 378.059570312 -0 l 1,42,-1
1222.18960789 78.8720703125 m 0,46,47
 1111.86227219 -18 1111.86227219 -18 960.878895474 -18 c 0,48,49
 895.879682025 -18 895.879682025 -18 846.041345917 3.423828125 c 0,50,51
 782.245626959 29.724609375 782.245626959 29.724609375 745.41764441 88.2353515625 c 0,52,53
 707.718310827 148.130859375 707.718310827 148.130859375 707.718310827 230.47265625 c 0,54,55
 707.718310827 286.034179688 707.718310827 286.034179688 724.921450001 351.908203125 c 0,56,57
 767.973969129 517.471679688 767.973969129 517.471679688 876.601697324 610.678710938 c 0,58,59
 987.692122109 706 987.692122109 706 1137.3942239 706 c 0,60,61
 1201.82059499 706 1201.82059499 706 1251.42675781 685.780273438 c 0,62,63
 1310.51855469 659.913085938 1310.51855469 659.913085938 1345.96972656 601.287109375 c 128,-1,64
 1381.421875 542.66015625 1381.421875 542.66015625 1381.421875 459.2578125 c 0,65,66
 1381.421875 404.1171875 1381.421875 404.1171875 1365.6171875 338.491210938 c 0,67,68
 1326.66601562 175.744140625 1326.66601562 175.744140625 1222.18960789 78.8720703125 c 0,46,47
949.42309943 170.84375 m 0,69,70
 964.49988982 160 964.49988982 160 993.16828482 160 c 0,71,72
 1106.31148231 160 1106.31148231 160 1157.59085854 351.05078125 c 0,73,74
 1172.84738479 407.725585938 1172.84738479 407.725585938 1172.84738479 447.112304688 c 0,75,76
 1172.84738479 497.450195312 1172.84738479 497.450195312 1149.07179928 514.454101562 c 0,77,78
 1134.32505017 525 1134.32505017 525 1106.18114753 525 c 0,79,80
 990.867455612 525 990.867455612 525 940.677005395 338.551757812 c 0,81,82
 925.073620471 280.416992188 925.073620471 280.416992188 925.073620471 240.327148438 c 0,83,84
 925.073620471 188.354492188 925.073620471 188.354492188 949.42309943 170.84375 c 0,69,70
EndSplineSet
EndChar
StartChar: ampersand
Encoding: 38 38 9
Width: 600
GlyphClass: 2
Flags: W
LayerCount: 2
Fore
SplineSet
661 354 m 1,0,-1
 652 333 l 2,1,2
 603 222 603 222 529 140 c 1,3,-1
 610 -15 l 1,4,-1
 473 -15 l 1,5,-1
 434 58 l 1,6,7
 328 -24 328 -24 213 -24 c 0,8,9
 116 -24 116 -24 74 34 c 0,10,11
 48 71 48 71 48 125 c 0,12,13
 48 155 48 155 56 189 c 0,14,15
 71 256 71 256 113 307 c 0,16,17
 152 353 152 353 240 401 c 1,18,19
 204 466 204 466 204 526 c 0,20,21
 204 550 204 550 209 572 c 0,22,23
 228 649 228 649 290 694.5 c 128,-1,24
 352 740 352 740 446 740 c 0,25,26
 536 740 536 740 574 692 c 0,27,28
 598 661 598 661 598 615 c 0,29,30
 598 592 598 592 592 566 c 0,31,32
 569 464 569 464 398 373 c 1,33,-1
 475 236 l 1,34,35
 514 286 514 286 542 345 c 2,36,-1
 546 354 l 1,37,-1
 661 354 l 1,0,-1
480 593 m 0,38,39
 480 609 480 609 471 620 c 0,40,41
 457 637 457 637 425 637 c 0,42,43
 388 637 388 637 362 618.5 c 128,-1,44
 336 600 336 600 328 565 c 0,45,46
 325 553 325 553 325 541 c 0,47,48
 325 503 325 503 351 458 c 1,49,50
 414 491 414 491 441 516 c 0,51,52
 473 545 473 545 479 581 c 0,53,54
 480 587 480 587 480 593 c 0,38,39
172 186 m 0,55,56
 168 170 168 170 168 156 c 0,57,58
 168 130 168 130 181 111 c 0,59,60
 192 95 192 95 208 89 c 0,61,62
 221 84 221 84 238 83 c 0,63,64
 307 83 307 83 384 144 c 1,65,-1
 287 315 l 1,66,67
 191 261 191 261 172 186 c 0,55,56
EndSplineSet
EndChar
StartChar: quotesingle
Encoding: 39 39 10
Width: 1229
GlyphClass: 2
Flags: W
LayerCount: 2
Fore
SplineSet
669.846234594 904 m 1,0,-1
 763.39168914 1492 l 1,1,-1
 1049.4442183 1492 l 1,2,-1
 871.262400121 904 l 1,3,-1
 669.846234594 904 l 1,0,-1
EndSplineSet
EndChar
StartChar: parenleft
Encoding: 40 40 11
Width: 1229
GlyphClass: 2
Flags: W
LayerCount: 2
Fore
SplineSet
1064.87099272 1492 m 1,0,-1
 1348.37706347 1492 l 1,1,-1
 1275.91338318 1437.93979407 l 2,2,3
 738.901113751 1068.54953789 738.901113751 1068.54953789 607.202299674 562.249148105 c 0,4,5
 572.928730512 426.323308966 572.928730512 426.323308966 572.928730512 301.157280966 c 0,6,7
 572.928730512 -40.0662350731 572.928730512 -40.0662350731 835.755254448 -304.13931731 c 2,8,-1
 885.589554507 -354 l 1,9,-1
 595.648820956 -354 l 1,10,-1
 585.593609009 -344.510993227 l 2,11,12
 335.676211454 -78.4931956418 335.676211454 -78.4931956418 335.676211454 289.063658328 c 0,13,14
 335.676211454 424.651304589 335.676211454 424.651304589 369.769548001 573.775004283 c 0,15,16
 495.279083184 1116.62925402 495.279083184 1116.62925402 1055.96102774 1486.24150427 c 2,17,-1
 1064.87099272 1492 l 1,0,-1
EndSplineSet
EndChar
StartChar: parenright
Encoding: 41 41 12
Width: 1229
GlyphClass: 2
Flags: W
LayerCount: 2
Fore
SplineSet
387.672660336 -354 m 1,0,-1
 106.22902609 -354 l 1,1,-1
 179.149373446 -299.893102262 l 2,2,3
 711.809493074 64.5093260204 711.809493074 64.5093260204 845.796929349 575.787594485 c 0,4,5
 880 710.586467838 880 710.586467838 880 835.097777778 c 0,6,7
 880 1175.6877722 880 1175.6877722 615.955859001 1442.19547687 c 2,8,-1
 566.405895987 1492 l 1,9,-1
 857.571273814 1492 l 1,10,-1
 867.664244629 1482.26342196 l 2,11,12
 1117.32378855 1210.46725455 1117.32378855 1210.46725455 1117.32378855 843.649745774 c 0,13,14
 1117.32378855 708.240002484 1117.32378855 708.240002484 1083.22867793 560.217327137 c 0,15,16
 955.662914936 9.13323099315 955.662914936 9.13323099315 396.460363212 -348.4883021 c 2,17,-1
 387.672660336 -354 l 1,0,-1
EndSplineSet
EndChar
StartChar: asterisk
Encoding: 42 42 13
Width: 1229
GlyphClass: 2
Flags: W
LayerCount: 2
Fore
SplineSet
1122.30733957 1586 m 1,0,-1
 980.87691832 1207.19607446 l 1,1,-1
 1380.39414188 1314.83326567 l 1,2,-1
 1353.26469208 1053.03407515 l 1,3,-1
 998.07337262 1026.47299919 l 1,4,-1
 1160.58158979 713.454073983 l 1,5,-1
 884.410367418 586.802503749 l 1,6,-1
 801.908627343 912.347854642 l 1,7,-1
 571.052981334 589.481223377 l 1,8,-1
 366.794112334 721.084253068 l 1,9,-1
 658.263034035 1028.11064673 l 1,10,-1
 329.213435754 1054.31932648 l 1,11,-1
 423.840840826 1311.54593463 l 1,12,-1
 776.52061096 1202.82099511 l 1,13,-1
 832.21724497 1586 l 1,14,-1
 1122.30733957 1586 l 1,0,-1
EndSplineSet
EndChar
StartChar: plus
Encoding: 43 43 14
Width: 600
GlyphClass: 2
Flags: W
LayerCount: 2
Fore
SplineSet
366 113 m 1,0,-1
 256 113 l 1,1,-1
 305 301 l 1,2,-1
 122 301 l 1,3,-1
 146 404 l 1,4,-1
 331 404 l 1,5,-1
 381 594 l 1,6,-1
 491 594 l 1,7,-1
 442 404 l 1,8,-1
 624 404 l 1,9,-1
 600 301 l 1,10,-1
 415 301 l 1,11,-1
 366 113 l 1,0,-1
EndSplineSet
Validated: 1
EndChar
StartChar: comma
Encoding: 44 44 15
Width: 1229
GlyphClass: 2
Flags: W
LayerCount: 2
Fore
SplineSet
287.643969513 -319 m 1,0,-1
 306.616057371 -276.738038771 l 2,1,2
 451.218369372 45.3760769288 451.218369372 45.3760769288 535.879415552 272.466883152 c 2,3,-1
 543.161498588 292 l 1,4,-1
 788.795724493 292 l 1,5,-1
 809.530363313 236.707629814 l 1,6,-1
 804.179969642 225.29345665 l 2,7,8
 698.301043911 -0.581584910518 698.301043911 -0.581584910518 500.169760831 -305.321578682 c 2,9,-1
 491.27652981 -319 l 1,10,-1
 287.643969513 -319 l 1,0,-1
EndSplineSet
EndChar
StartChar: hyphen
Encoding: 45 45 16
Width: 1229
GlyphClass: 2
Flags: W
LayerCount: 2
Fore
SplineSet
381.02247446 663 m 1,0,-1
 1115.54895411 663 l 1,1,-1
 1063.97752554 435 l 1,2,-1
 329.451045889 435 l 1,3,-1
 381.02247446 663 l 1,0,-1
EndSplineSet
Substitution2: "Single Substitution lookup 14 subtable" space
Substitution2: "Single Substitution lookup 13 subtable" arrow_right_single
EndChar
StartChar: period
Encoding: 46 46 17
Width: 600
GlyphClass: 2
Flags: W
LayerCount: 2
Fore
SplineSet
308 162 m 0,0,1
 337 162 337 162 354 149 c 0,2,3
 377 132 377 132 377 97 c 0,4,5
 377 82 377 82 373 63 c 0,6,7
 364 23 364 23 343 0 c 0,8,9
 316 -30 316 -30 271 -30 c 0,10,11
 242 -30 242 -30 225 -17 c 0,12,13
 202 0 202 0 202 36 c 0,14,15
 202 52 202 52 206 69 c 0,16,17
 215 109 215 109 237 132 c 0,18,19
 264 162 264 162 308 162 c 0,0,1
EndSplineSet
Validated: 1
EndChar
StartChar: slash
Encoding: 47 47 18
Width: 600
GlyphClass: 2
Flags: W
LayerCount: 2
Fore
SplineSet
67 -15 m 1,0,-1
 565 729 l 1,1,-1
 680 729 l 1,2,-1
 183 -15 l 1,3,-1
 67 -15 l 1,0,-1
EndSplineSet
Validated: 1
Substitution2: "Single Substitution lookup 2 subtable" slash_equal
EndChar
StartChar: zero
Encoding: 48 48 19
Width: 1229
GlyphClass: 2
Flags: W
LayerCount: 2
Fore
SplineSet
559.698902226 211.8125 m 128,-1,1
 592.619220905 195 592.619220905 195 641.164030967 195 c 0,2,3
 776.046707241 195 776.046707241 195 873.460162282 322.455078125 c 0,4,5
 977.260120026 458.268554688 977.260120026 458.268554688 1057.07890683 769.75 c 0,6,7
 1078.01298681 851.987304688 1078.01298681 851.987304688 1091.47930321 921.989257812 c 1,8,-1
 508.163509309 264.135742188 l 1,9,0
 526.779670241 228.625 526.779670241 228.625 559.698902226 211.8125 c 128,-1,1
1291.23144531 726.46875 m 0,10,11
 1111.86328125 -20 1111.86328125 -20 602.216905415 -20 c 0,12,13
 489.194335938 -20 489.194335938 -20 416.772460938 20.7890625 c 0,14,15
 325.232421875 72.3447265625 325.232421875 72.3447265625 285.561523438 186.209960938 c 0,16,17
 255.64453125 271.633789062 255.64453125 271.633789062 255.64453125 389.006835938 c 0,18,19
 255.64453125 537.846679688 255.64453125 537.846679688 303.770507812 739.500976562 c 0,20,21
 483.143554688 1485 483.143554688 1485 988.349835882 1485 c 0,22,23
 1103.03222656 1485 1103.03222656 1485 1176.22753906 1444.40332031 c 0,24,25
 1268.90722656 1392.99902344 1268.90722656 1392.99902344 1308.92382812 1279.3125 c 0,26,27
 1339.19726562 1193.30859375 1339.19726562 1193.30859375 1339.19726562 1075.35546875 c 0,28,29
 1339.19726562 926.90234375 1339.19726562 926.90234375 1291.23144531 726.46875 c 0,10,11
1035.18201565 1250.37695312 m 128,-1,31
 1000.01658644 1269 1000.01658644 1269 948.289935314 1269 c 0,32,33
 882.035267409 1269 882.035267409 1269 825.541288167 1238.20605469 c 128,-1,34
 769.04622223 1207.41308594 769.04622223 1207.41308594 719.963498464 1142.64355469 c 0,35,36
 617.772935055 1007.79199219 617.772935055 1007.79199219 537.938934535 696.25 c 0,37,38
 511.963679455 595.291015625 511.963679455 595.291015625 498.221679688 512.5234375 c 1,39,-1
 1089.57432801 1191.19726562 l 1,40,30
 1070.34853155 1231.75292969 1070.34853155 1231.75292969 1035.18201565 1250.37695312 c 128,-1,31
EndSplineSet
EndChar
StartChar: one
Encoding: 49 49 20
Width: 1229
GlyphClass: 2
Flags: W
LayerCount: 2
Fore
SplineSet
762.311523438 0 m 1,0,-1
 537.721679688 0 l 1,1,-1
 757.208984375 912.288085938 l 2,2,3
 779.634765625 1006.14648438 779.634765625 1006.14648438 823.6640625 1171.36230469 c 1,4,5
 793.853515625 1148.33007812 793.853515625 1148.33007812 756.594726562 1121.09863281 c 2,6,-1
 562.609375 984.450195312 l 1,7,-1
 473 1155.21582031 l 1,8,-1
 926.959960938 1462 l 1,9,-1
 1114.18359375 1462 l 1,10,-1
 762.311523438 0 l 1,0,-1
EndSplineSet
EndChar
StartChar: two
Encoding: 50 50 21
Width: 1229
GlyphClass: 2
Flags: W
LayerCount: 2
Fore
SplineSet
1112.63085938 -0 m 1,0,-1
 144 -0 l 1,1,-1
 190.55859375 192.645507812 l 1,2,-1
 631.201094111 562.462890625 l 2,3,4
 881.995442354 764.244140625 881.995442354 764.244140625 968.114194152 860.592773438 c 128,-1,5
 1054.23294595 956.942382812 1054.23294595 956.942382812 1084.34485349 1071.1015625 c 0,6,7
 1093.44335938 1108.30175781 1093.44335938 1108.30175781 1093.44335938 1139.04394531 c 0,8,9
 1093.44335938 1147.38574219 1093.44335938 1147.38574219 1092.79492188 1155.19726562 c 128,-1,10
 1092.14550781 1163.00878906 1092.14550781 1163.00878906 1090.86230469 1170.18652344 c 128,-1,11
 1089.578125 1177.36328125 1089.578125 1177.36328125 1087.70507812 1184.0078125 c 128,-1,12
 1085.82389243 1190.65136719 1085.82389243 1190.65136719 1083.09985324 1196.78417969 c 0,13,14
 1064.5082056 1238.64257812 1064.5082056 1238.64257812 1019.40072412 1256.48828125 c 0,15,16
 987.772374202 1269 987.772374202 1269 939.060269661 1269 c 0,17,18
 787.171306774 1269 787.171306774 1269 601.216358268 1138.21289062 c 2,19,-1
 571.396197566 1117.24023438 l 1,20,-1
 464.274879172 1288.54394531 l 1,21,-1
 486.494660613 1304.56347656 l 2,22,23
 733.98254465 1483 733.98254465 1483 980.64434697 1483 c 0,24,25
 1184.71191406 1483 1184.71191406 1483 1273.23144531 1369.56445312 c 0,26,27
 1331.66699219 1294.6796875 1331.66699219 1294.6796875 1331.66699219 1187.3203125 c 0,28,29
 1331.66699219 1133.625 1331.66699219 1133.625 1317.23242188 1072.77050781 c 0,30,31
 1288.64257812 952.247070312 1288.64257812 952.247070312 1202.13574219 828.521484375 c 128,-1,32
 1115.62792969 704.795898438 1115.62792969 704.795898438 816.603540356 462.041015625 c 1,33,-1
 508.009120018 217.211914062 l 1,34,-1
 1164.36621094 217.211914062 l 1,35,-1
 1112.63085938 -0 l 1,0,-1
EndSplineSet
EndChar
StartChar: three
Encoding: 51 51 22
Width: 1229
GlyphClass: 2
Flags: W
LayerCount: 2
Fore
SplineSet
1187.19042969 634.4453125 m 0,0,1
 1210.9296875 584.296875 1210.9296875 584.296875 1210.9296875 522 c 0,2,3
 1210.9296875 475.514648438 1210.9296875 475.514648438 1198.07421875 421.587890625 c 0,4,5
 1148.609375 216.143554688 1148.609375 216.143554688 975.415375351 98.0712890625 c 0,6,7
 796.308653232 -20 796.308653232 -20 520.924944133 -20 c 0,8,9
 274.669921875 -20 274.669921875 -20 150.087890625 64.119140625 c 2,10,-1
 133 75.6572265625 l 1,11,-1
 186.158203125 307.37109375 l 1,12,-1
 222.0625 284.237304688 l 2,13,14
 363.670898438 193 363.670898438 193 554.803480839 193 c 0,15,16
 705.467130826 193 705.467130826 193 800.923408547 242.530273438 c 0,17,18
 918.078854876 303.319335938 918.078854876 303.319335938 955.639377205 442.4375 c 0,19,20
 964.269097713 474.30078125 964.269097713 474.30078125 964.269097713 500.991210938 c 0,21,22
 964.269097713 574.716796875 964.269097713 574.716796875 895.637952933 610.579101562 c 0,23,24
 820.196735612 650 820.196735612 650 665.181939136 650 c 2,25,-1
 489.765740579 650 l 1,26,-1
 541.688141323 861 l 1,27,-1
 703.431899932 861 l 2,28,29
 855.186271458 861 855.186271458 861 955.132437155 926.0703125 c 0,30,31
 1054.46493858 990.740234375 1054.46493858 990.740234375 1083.52274223 1097.49804688 c 0,32,33
 1090.62988281 1125.16308594 1090.62988281 1125.16308594 1090.62988281 1148.54882812 c 0,34,35
 1090.62988281 1193.89648438 1090.62988281 1193.89648438 1061.91535645 1223.55859375 c 0,36,37
 1017.11466297 1269 1017.11466297 1269 916.538824368 1269 c 0,38,39
 745.025530571 1269 745.025530571 1269 554.343499446 1152.99902344 c 2,40,-1
 522.129860588 1133.40234375 l 1,41,-1
 434.157085241 1313.08398438 l 1,42,-1
 455.9384315 1327.38867188 l 2,43,44
 692.889681385 1483 692.889681385 1483 955.881641187 1483 c 0,45,46
 1172.72851562 1483 1172.72851562 1483 1265.72851562 1377.59960938 c 0,47,48
 1330.68164062 1303.98632812 1330.68164062 1303.98632812 1330.68164062 1197.77050781 c 0,49,50
 1330.68164062 1151.20507812 1330.68164062 1151.20507812 1318.07226562 1098.55371094 c 0,51,52
 1284.05273438 957.479492188 1284.05273438 957.479492188 1180.04394531 862.079101562 c 0,53,54
 1112.66210938 800.274414062 1112.66210938 800.274414062 1017.24059755 767.223632812 c 1,55,56
 1143.69921875 726.319335938 1143.69921875 726.319335938 1187.19042969 634.4453125 c 0,0,1
EndSplineSet
EndChar
StartChar: four
Encoding: 52 52 23
Width: 1229
GlyphClass: 2
Flags: W
LayerCount: 2
Fore
SplineSet
1097.49609375 524 m 1,0,-1
 1295.4375 524 l 1,1,-1
 1303.70214844 298 l 1,2,-1
 1088.21536283 298 l 1,3,-1
 969.637695312 -0 l 1,4,-1
 744.037109375 -0 l 1,5,-1
 820.037109375 315.137695312 l 1,6,-1
 131 315.137695312 l 1,7,-1
 178.225585938 510.122070312 l 1,8,-1
 1096.01269531 1470 l 1,9,-1
 1322.49609375 1470 l 1,10,-1
 1097.49609375 524 l 1,0,-1
970.282304416 1082.30078125 m 2,11,-1
 445.009321307 524 l 1,12,-1
 852.703802948 524 l 1,13,-1
 936.534027414 856.750976562 l 2,14,15
 966.58768199 974.702148438 966.58768199 974.702148438 1011.19124888 1128.00683594 c 1,16,17
 991.208885091 1104.24707031 991.208885091 1104.24707031 970.282304416 1082.30078125 c 2,11,-1
EndSplineSet
EndChar
StartChar: five
Encoding: 53 53 24
Width: 1229
GlyphClass: 2
Flags: W
LayerCount: 2
Fore
SplineSet
769.550265508 1236 m 1,0,-1
 647.423269001 914.904296875 l 1,1,2
 735.486978627 927 735.486978627 927 817.813544648 927 c 0,3,4
 1047.04244976 927 1047.04244976 927 1154.84472656 805.369140625 c 0,5,6
 1224.76269531 722.819335938 1224.76269531 722.819335938 1224.76269531 600.9765625 c 0,7,8
 1224.76269531 543.1015625 1224.76269531 543.1015625 1208.88183594 476.5078125 c 0,9,10
 1152.55859375 239.9375 1152.55859375 239.9375 975.4175133 110.0234375 c 0,11,12
 793.252234651 -20 793.252234651 -20 526.318278117 -20 c 0,13,14
 298.62890625 -20 298.62890625 -20 185.63671875 65.013671875 c 2,15,-1
 170 76.7783203125 l 1,16,-1
 225.623046875 315.956054688 l 1,17,-1
 263.15625 283.78515625 l 2,18,19
 366.73828125 195 366.73828125 195 569.056305916 195 c 0,20,21
 745.654596869 195 745.654596869 195 845.190453381 278.569335938 c 0,22,23
 925.554340541 346.041015625 925.554340541 346.041015625 958.926302152 469.859375 c 0,24,25
 971.141142129 515.416992188 971.141142129 515.416992188 971.141142129 554.267578125 c 0,26,27
 971.141142129 641.373046875 971.141142129 641.373046875 897.7472263 679.75 c 0,28,29
 834.157073308 713 834.157073308 713 714.803939182 713 c 0,30,31
 626.967104102 713 626.967104102 713 479.874276001 687.526367188 c 2,32,-1
 464.966906028 684.944335938 l 1,33,-1
 363.020507812 761.395507812 l 1,34,-1
 601.695205903 1462 l 1,35,-1
 1347.51855469 1462 l 1,36,-1
 1294.42285156 1236 l 1,37,-1
 769.550265508 1236 l 1,0,-1
EndSplineSet
EndChar
StartChar: six
Encoding: 54 54 25
Width: 1229
GlyphClass: 2
Flags: W
LayerCount: 2
Fore
SplineSet
1275.87597656 1251.13378906 m 2,0,1
 1221.20898438 1273 1221.20898438 1273 1138 1273 c 0,2,3
 924.373875936 1273 924.373875936 1273 781.796354156 1152.1171875 c 0,4,5
 662.87497897 1048.40136719 662.87497897 1048.40136719 583.094462255 841.865234375 c 1,6,7
 713.773569955 945 713.773569955 945 889.312782912 945 c 0,8,9
 1108.16243956 945 1108.16243956 945 1192.85058594 816.048828125 c 0,10,11
 1243.65625 738.385742188 1243.65625 738.385742188 1243.65625 627.846679688 c 0,12,13
 1243.65625 559.57421875 1243.65625 559.57421875 1224.22265625 478.6875 c 0,14,15
 1169.14648438 248.899414062 1169.14648438 248.899414062 1009.48730621 114.44921875 c 0,16,17
 843.60101309 -20 843.60101309 -20 621.143415332 -20 c 0,18,19
 513.274200493 -20 513.274200493 -20 439.112304688 15.0615234375 c 0,20,21
 347.203125 59.4833984375 347.203125 59.4833984375 297.4765625 158.345703125 c 0,22,23
 250.944335938 250.856445312 250.944335938 250.856445312 250.944335938 382.380859375 c 0,24,25
 250.944335938 494.500976562 250.944335938 494.500976562 284.766601562 635.591796875 c 0,26,27
 374.263671875 1008.5234375 374.263671875 1008.5234375 550.019143659 1217.30175781 c 0,28,29
 790.541336801 1483 790.541336801 1483 1167 1483 c 0,30,31
 1267.73046875 1483 1267.73046875 1483 1331.19335938 1462.5625 c 2,32,-1
 1357.31152344 1454.15234375 l 1,33,-1
 1308.51953125 1238.07617188 l 1,34,-1
 1275.87597656 1251.13378906 l 2,0,1
990.986597968 491.391601562 m 0,35,36
 1005.52657901 546.056640625 1005.52657901 546.056640625 1005.52657901 589.409179688 c 0,37,38
 1005.52657901 698.592773438 1005.52657901 698.592773438 916.290096656 729.451171875 c 0,39,40
 880.002909666 742 880.002909666 742 828.365199371 742 c 0,41,42
 709.463303171 742 709.463303171 742 608.929008808 671.6171875 c 0,43,44
 508.337359653 600.348632812 508.337359653 600.348632812 485.233398438 511.815429688 c 0,45,46
 471.587890625 455.627929688 471.587890625 455.627929688 471.587890625 406.208984375 c 0,47,48
 471.587890625 337.106445312 471.587890625 337.106445312 498.525361429 281.032226562 c 0,49,50
 524.705118904 231.526367188 524.705118904 231.526367188 570.297850477 210.23828125 c 0,51,52
 607.218104519 193 607.218104519 193 658.820103339 193 c 0,53,54
 775.708088797 193 775.708088797 193 862.35061949 267.989257812 c 0,55,56
 952.084898161 345.653320312 952.084898161 345.653320312 990.986597968 491.391601562 c 0,35,36
EndSplineSet
EndChar
StartChar: seven
Encoding: 55 55 26
Width: 600
GlyphClass: 2
Flags: W
LayerCount: 2
Fore
SplineSet
579 604 m 1,0,-1
 218 604 l 1,1,-1
 244 714 l 1,2,-1
 730 714 l 1,3,-1
 708 626 l 1,4,-1
 273 0 l 1,5,-1
 150 0 l 1,6,-1
 579 604 l 1,0,-1
EndSplineSet
EndChar
StartChar: eight
Encoding: 56 56 27
Width: 600
GlyphClass: 2
Flags: W
LayerCount: 2
Fore
SplineSet
213 502 m 0,0,1
 213 525 213 525 219 550 c 0,2,3
 240 631 240 631 314.5 678 c 128,-1,4
 389 725 389 725 485 725 c 0,5,6
 533 725 533 725 567 712 c 0,7,8
 601 700 601 700 624 675 c 0,9,10
 656 640 656 640 656 589 c 0,11,12
 656 567 656 567 650 542 c 0,13,14
 624 437 624 437 502 375 c 1,15,16
 548 344 548 344 570 308 c 128,-1,17
 592 272 592 272 592 230 c 0,18,19
 592 210 592 210 587 189 c 0,20,21
 565 99 565 99 487 45 c 0,22,23
 406 -10 406 -10 296 -10 c 0,24,25
 184 -10 184 -10 137 44 c 0,26,27
 104 81 104 81 104 136 c 0,28,29
 104 162 104 162 112 192 c 0,30,31
 140 310 140 310 277 377 c 1,32,33
 213 430 213 430 213 502 c 0,0,1
540 538 m 0,34,35
 543 553 543 553 543 565 c 0,36,37
 543 603 543 603 506 616 c 0,38,39
 489 622 489 622 464 622 c 0,40,41
 416 622 416 622 382.5 599 c 128,-1,42
 349 576 349 576 338 532 c 0,43,44
 334 516 334 516 334 502 c 0,45,46
 334 482 334 482 342 467 c 0,47,48
 356 442 356 442 407 416 c 1,49,50
 522 462 522 462 540 538 c 0,34,35
372 338 m 1,51,52
 244 283 244 283 221 193 c 0,53,54
 217 174 217 174 216 157 c 0,55,56
 216 122 216 122 243 107 c 0,57,58
 267 93 267 93 313 93 c 0,59,60
 375 93 375 93 416.5 122 c 128,-1,61
 458 151 458 151 471 203 c 0,62,63
 474 216 474 216 475 227 c 0,64,65
 475 250 475 250 461 270 c 0,66,67
 440 301 440 301 378 335 c 1,68,-1
 372 338 l 1,51,52
EndSplineSet
Validated: 1
EndChar
StartChar: nine
Encoding: 57 57 28
Width: 600
GlyphClass: 2
Flags: W
LayerCount: 2
Fore
SplineSet
159 103 m 2,0,1
 184 92 184 92 226 92 c 0,2,3
 278 92 278 92 321.5 107 c 128,-1,4
 365 122 365 122 400 151 c 0,5,6
 458 202 458 202 496 303 c 1,7,8
 432 252 432 252 346 252 c 0,9,10
 240 252 240 252 199 315 c 0,11,12
 174 353 174 353 174 407 c 0,13,14
 174 440 174 440 183 480 c 0,15,16
 210 592 210 592 288 658 c 0,17,18
 369 724 369 724 478 724 c 0,19,20
 531 724 531 724 567 707 c 0,21,22
 612 685 612 685 636 636 c 0,23,24
 658 590 658 590 658 526 c 0,25,26
 658 471 658 471 642 404 c 0,27,28
 598 222 598 222 513 120 c 0,29,30
 395 -10 395 -10 212 -10 c 0,31,32
 162 -10 162 -10 131 -0 c 2,33,-1
 118 4 l 1,34,-1
 143 110 l 1,35,-1
 159 103 l 2,0,1
298 474 m 0,36,37
 291 447 291 447 291 426 c 0,38,39
 291 373 291 373 334 358 c 0,40,41
 352 352 352 352 377 352 c 0,42,43
 435 352 435 352 484 386 c 0,44,45
 533 421 533 421 544 464 c 0,46,47
 551 492 551 492 551 516 c 0,48,49
 551 549 551 549 538 577 c 0,50,51
 525 601 525 601 503 611 c 0,52,53
 485 619 485 619 460 620 c 0,54,55
 402 620 402 620 360 583 c 0,56,57
 318 546 318 546 298 474 c 0,36,37
EndSplineSet
EndChar
StartChar: colon
Encoding: 58 58 29
Width: 1229
GlyphClass: 2
Flags: W
LayerCount: 2
Fore
SplineSet
821 1156 m 0,0,1
 872.15759894 1156 872.15759894 1156 903.016675887 1133.12313762 c 0,2,3
 943.826666667 1102.86933113 943.826666667 1102.86933113 943.826666667 1039.98062222 c 0,4,5
 943.826666667 1013.22099488 943.826666667 1013.22099488 936.236726531 980.25219241 c 0,6,7
 920.262423845 910.863815118 920.262423845 910.863815118 883.766290139 870.729617451 c 0,8,9
 835.816479738 818 835.816479738 818 757 818 c 0,10,11
 705.84240106 818 705.84240106 818 674.983324113 840.876862377 c 0,12,13
 654.162955304 856.311695787 654.162955304 856.311695787 644.168144318 880.400904629 c 128,-1,14
 634.173333333 904.490113471 634.173333333 904.490113471 634.173333333 932.634559298 c 128,-1,15
 634.173333333 960.779005125 634.173333333 960.779005125 641.763273469 993.74780759 c 0,16,17
 668.313247255 1109.07425622 668.313247255 1109.07425622 750.384365472 1142.74548313 c 0,18,19
 782.691267261 1156 782.691267261 1156 821 1156 c 0,0,1
619 280 m 0,20,21
 670.15759894 280 670.15759894 280 701.016675887 257.123137623 c 0,22,23
 741.826666667 226.869331126 741.826666667 226.869331126 741.826666667 163.980622222 c 0,24,25
 741.826666667 137.221156848 741.826666667 137.221156848 734.247128139 104.297536368 c 0,26,27
 707.725623875 -11.7340447881 707.725623875 -11.7340447881 625.673280373 -45.6397021149 c 0,28,29
 593.341102271 -59 593.341102271 -59 555 -59 c 0,30,31
 503.785397675 -59 503.785397675 -59 472.900305552 -35.9391312148 c 0,32,33
 432.173333333 -5.52965862458 432.173333333 -5.52965862458 432.173333333 57.6382222222 c 0,34,35
 432.173333333 84.5418194956 432.173333333 84.5418194956 439.763273469 117.74780759 c 0,36,37
 455.737576155 187.136184882 455.737576155 187.136184882 492.233709861 227.270382549 c 0,38,39
 540.183520262 280 540.183520262 280 619 280 c 0,20,21
EndSplineSet
EndChar
StartChar: semicolon
Encoding: 59 59 30
Width: 1229
GlyphClass: 2
Flags: W
LayerCount: 2
Fore
SplineSet
889 1156 m 0,0,1
 940.15759894 1156 940.15759894 1156 971.016675887 1133.12313762 c 0,2,3
 1011.82666667 1102.86933113 1011.82666667 1102.86933113 1011.82666667 1039.98062222 c 0,4,5
 1011.82666667 1013.22099488 1011.82666667 1013.22099488 1004.23672653 980.25219241 c 0,6,7
 988.262423845 910.863815118 988.262423845 910.863815118 951.766290139 870.729617451 c 0,8,9
 903.816479738 818 903.816479738 818 825 818 c 0,10,11
 773.84240106 818 773.84240106 818 735.883760819 840.876862377 c 0,12,13
 708.659833868 856.311695787 708.659833868 856.311695787 695.590996968 880.400904629 c 128,-1,14
 682.522160069 904.490113471 682.522160069 904.490113471 682.522160069 932.634559298 c 128,-1,15
 682.522160069 960.779005125 682.522160069 960.779005125 692.446478784 993.74780759 c 0,16,17
 727.162220542 1109.07425622 727.162220542 1109.07425622 818.384365472 1142.74548313 c 0,18,19
 850.691267261 1156 850.691267261 1156 889 1156 c 0,0,1
456.39096416 -294 m 1,20,-1
 265.224167091 -294 l 1,21,-1
 284.717399191 -251.514750551 l 2,22,23
 401.259367448 2.48697513829 401.259367448 2.48697513829 500.154907073 268 c 1,24,-1
 787.334161061 268 l 1,25,-1
 806.366962193 213.280696746 l 1,26,-1
 801.145291842 202.21973912 l 2,27,28
 689.247096146 3.46400613332 689.247096146 3.46400613332 465.265520196 -280.173343634 c 2,29,-1
 456.39096416 -294 l 1,20,-1
EndSplineSet
EndChar
StartChar: less
Encoding: 60 60 31
Width: 1229
GlyphClass: 2
Flags: W
LayerCount: 2
Fore
SplineSet
1126.97343148 174.13264749 m 1,0,-1
 258.764771214 657.505681536 l 1,1,-1
 291.118695623 795.009860272 l 1,2,-1
 1383.12964914 1278.32963186 l 1,3,-1
 1328.91573441 1043.89108169 l 1,4,-1
 570.169459911 719.832270652 l 1,5,-1
 1179.21244263 395.768738871 l 1,6,-1
 1126.97343148 174.13264749 l 1,0,-1
EndSplineSet
Substitution2: "Single Substitution lookup 15 subtable" arrow_left_single
EndChar
StartChar: equal
Encoding: 61 61 32
Width: 1229
GlyphClass: 2
Flags: W
LayerCount: 2
Fore
SplineSet
345.069335938 1031 m 1,0,-1
 1325.86914062 1031 l 1,1,-1
 1276.77539062 822 l 1,2,-1
 297.377929688 822 l 1,3,-1
 345.069335938 1031 l 1,0,-1
1230.56640625 622 m 1,4,-1
 1182.96679688 412 l 1,5,-1
 202.188476562 412 l 1,6,-1
 251.188476562 622 l 1,7,-1
 1230.56640625 622 l 1,4,-1
EndSplineSet
Substitution2: "Single Substitution lookup 17 subtable" arrow_right_double
Substitution2: "Single Substitution lookup 11 subtable" equal_equal
Substitution2: "Single Substitution lookup 10 subtable" space
Substitution2: "Single Substitution lookup 8 subtable" space
Substitution2: "Single Substitution lookup 7 subtable" equal_triple
Substitution2: "Single Substitution lookup 6 subtable" space.equal_triple
Substitution2: "Single Substitution lookup 5 subtable" space
Substitution2: "Single Substitution lookup 3 subtable" space.equal_triple
Substitution2: "Single Substitution lookup 1 subtable" space
EndChar
StartChar: greater
Encoding: 62 62 33
Width: 1229
GlyphClass: 2
Flags: W
LayerCount: 2
Fore
SplineSet
957.924089411 726.171485718 m 1,0,-1
 349.791441747 1050.24805845 l 1,1,-1
 402.03489537 1271.89193374 l 1,2,-1
 1269.04871056 788.590929346 l 1,3,-1
 1238.03758533 651.063330495 l 1,4,-1
 145.870350863 167.670368144 l 1,5,-1
 200.082119379 402.0996374 l 1,6,-1
 957.924089411 726.171485718 l 1,0,-1
EndSplineSet
Substitution2: "Single Substitution lookup 16 subtable" space
Substitution2: "Single Substitution lookup 12 subtable" space
EndChar
StartChar: question
Encoding: 63 63 34
Width: 1229
GlyphClass: 2
Flags: W
LayerCount: 2
Fore
SplineSet
1107.75091449 1122.69389429 m 0,0,1
 1112.76470588 1144.65907565 1112.76470588 1144.65907565 1112.76470588 1166.55316336 c 0,2,3
 1112.76470588 1211.67620254 1112.76470588 1211.67620254 1078.68416829 1244.67249783 c 0,4,5
 1025.19803317 1293 1025.19803317 1293 898.760102275 1293 c 0,6,7
 720.269183059 1293 720.269183059 1293 510.085836135 1205.53767447 c 2,8,-1
 474.640728553 1189.90012701 l 1,9,-1
 439.663073266 1403.96337737 l 1,10,-1
 460.781405529 1413.40336921 l 2,11,12
 691.897748398 1513 691.897748398 1513 929.719000313 1513 c 0,13,14
 1162.69371554 1513 1162.69371554 1513 1266.04032329 1406.37254756 c 0,15,16
 1341.89811321 1328.10657383 1341.89811321 1328.10657383 1341.89811321 1212.59830545 c 0,17,18
 1341.89811321 1167.58026234 1341.89811321 1167.58026234 1330.21844226 1117.17326143 c 0,19,20
 1297.61611984 977.29878135 1297.61611984 977.29878135 1224.0784197 888.840388426 c 0,21,22
 1152.40942839 802.629862644 1152.40942839 802.629862644 976.700042214 692.266154591 c 0,23,-1
 976.335127582 692.050213506 l 2,24,25
 831.661473685 607.611108622 831.661473685 607.611108622 785.963630906 558.136943711 c 128,-1,26
 740.265788126 508.662778801 740.265788126 508.662778801 719.068577923 425.473091736 c 0,27,28
 718.636190462 423.963581053 718.636190462 423.963581053 705.9075029 384 c 1,29,-1
 487.815092307 384 l 1,30,-1
 503.72803254 457.597348578 l 1,31,32
 533.31872151 584.41458702 533.31872151 584.41458702 596.930207482 663.928944485 c 0,33,34
 665.469547933 743.44330195 665.469547933 743.44330195 814.397161207 828.004841621 c 0,35,36
 974.63795678 922.819870989 974.63795678 922.819870989 1029.85542627 976.532874607 c 128,-1,37
 1085.07289576 1030.24587822 1085.07289576 1030.24587822 1107.75091449 1122.69389429 c 0,0,1
569 280 m 0,38,39
 620.15759894 280 620.15759894 280 654.547916538 257.123137623 c 0,40,41
 701.341707036 226.869331126 701.341707036 226.869331126 701.341707036 163.980622222 c 0,42,43
 701.341707036 137.221156848 701.341707036 137.221156848 692.650812205 104.297536368 c 0,44,45
 666.216474805 3.43619105849 666.216474805 3.43619105849 595.464457331 -35.4763251652 c 0,46,47
 555.729700575 -59 555.729700575 -59 504.257549125 -59 c 128,-1,48
 452.785397675 -59 452.785397675 -59 421.900305552 -35.9391312148 c 0,49,50
 381.173333333 -5.52965862458 381.173333333 -5.52965862458 381.173333333 57.6382222222 c 0,51,52
 381.173333333 85.1703339451 381.173333333 85.1703339451 388.809515228 117.945582571 c 0,53,54
 405.269682536 187.277802442 405.269682536 187.277802442 442.005005102 227.357942447 c 0,55,56
 490.253912528 280 490.253912528 280 569 280 c 0,38,39
EndSplineSet
EndChar
StartChar: at
Encoding: 64 64 35
Width: 1229
GlyphClass: 2
Flags: W
LayerCount: 2
Fore
SplineSet
1011.33457687 417.735253772 m 0,0,1
 1011.33457687 394.603729947 1011.33457687 394.603729947 1016.90077119 384.097678071 c 0,2,3
 1018.43922633 381.193882656 1018.43922633 381.193882656 1019.622711 380.607968536 c 128,-1,4
 1020.85000831 380 1020.85000831 380 1024.14941219 380 c 0,5,6
 1032.04846733 380 1032.04846733 380 1042.71528794 388.126525056 c 0,7,8
 1062.22866126 402.992802756 1062.22866126 402.992802756 1085.59972427 443.599477547 c 128,-1,9
 1108.97078728 484.206152338 1108.97078728 484.206152338 1135.35514863 559.823477737 c 128,-1,10
 1161.73950997 635.440803135 1161.73950997 635.440803135 1185.76327347 739.74780759 c 0,11,12
 1216.38697318 872.769503209 1216.38697318 872.769503209 1216.38697318 976.812744969 c 0,13,14
 1216.38697318 1082.41885896 1216.38697318 1082.41885896 1184.83567548 1157.38284447 c 0,15,16
 1151.08852591 1235.56902768 1151.08852591 1235.56902768 1084.92136059 1269.52813109 c 0,17,18
 1031.39416142 1297 1031.39416142 1297 955.823704108 1297 c 0,19,20
 744.220381039 1297 744.220381039 1297 579.101044909 1115.67136167 c 0,21,22
 409.319647228 929.223000286 409.319647228 929.223000286 329.233211872 601.236943936 c 0,23,24
 296.117647059 457.73616308 296.117647059 457.73616308 296.117647059 345.688581315 c 0,25,26
 296.117647059 222.536190194 296.117647059 222.536190194 336.319788342 137.913164406 c 0,27,28
 378.99397067 53.2901386179 378.99397067 53.2901386179 464.09658608 15.787624537 c 0,29,30
 533.961432066 -15 533.961432066 -15 633.13115626 -15 c 0,31,32
 807.435056938 -15 807.435056938 -15 986.72739148 60.3373136421 c 2,33,-1
 1046.5203786 85.4618848407 l 1,34,-1
 994.680464545 -120.618412489 l 1,35,-1
 980.92457132 -126.91458781 l 2,36,37
 795.029835951 -212 795.029835951 -212 593.199302513 -212 c 0,38,39
 453.29382248 -212 453.29382248 -212 350.095760309 -168.425821914 c 0,40,41
 228.173568158 -113.025969208 228.173568158 -113.025969208 163.869167499 10.2241320564 c 128,-1,42
 99.5647668394 133.474233321 99.5647668394 133.474233321 99.5647668394 307.70954925 c 0,43,44
 99.5647668394 442.471727594 99.5647668394 442.471727594 137.772958075 608.789736503 c 0,45,46
 231.513540208 1013.30072679 231.513540208 1013.30072679 453.119001878 1250.5644161 c 0,47,48
 687.797927077 1492 687.797927077 1492 991.438600693 1492 c 0,49,50
 1183.81144374 1492 1183.81144374 1492 1287.40228245 1380.34863967 c 0,51,52
 1327.41523741 1337.22223093 1327.41523741 1337.22223093 1355.12014673 1278.83338978 c 0,53,54
 1408.28488372 1166.78727742 1408.28488372 1166.78727742 1408.28488372 1012.23989319 c 0,55,56
 1408.28488372 883.231289335 1408.28488372 883.231289335 1371.24165937 724.273655713 c 0,57,58
 1317.04623869 488.063425985 1317.04623869 488.063425985 1222.60350721 344.076966507 c 0,59,60
 1190.32873533 294.871166765 1190.32873533 294.871166765 1154.98022332 261.258407006 c 0,61,62
 1117.42855383 227.645647246 1117.42855383 227.645647246 1074.54611692 209.322823623 c 128,-1,63
 1031.66368001 191 1031.66368001 191 986.042404241 191 c 0,64,65
 951.056136355 191 951.056136355 191 923.648441137 202.184656116 c 0,66,67
 856.904895277 229.421663916 856.904895277 229.421663916 843.149623394 314.614631711 c 1,68,69
 732.940802019 191 732.940802019 191 594.278541803 191 c 0,70,71
 471.63713065 191 471.63713065 191 414.794484189 283.726750581 c 0,72,73
 374.653346194 349.208523909 374.653346194 349.208523909 374.653346194 447.875 c 0,74,75
 374.653346194 521.471759812 374.653346194 521.471759812 397.620734467 612.82473073 c 0,76,77
 451.393137444 826.654259994 451.393137444 826.654259994 585.804734253 959.046508125 c 0,78,79
 723.831893643 1095 723.831893643 1095 896.465543133 1095 c 0,80,81
 1040.76686815 1095 1040.76686815 1095 1155.19615118 1045.16697085 c 2,82,-1
 1178.71424066 1034.36636922 l 1,83,84
 1140.78827957 904.079370246 1140.78827957 904.079370246 1090.81448163 738.164111292 c 128,-1,85
 1040.84068368 572.248852338 1040.84068368 572.248852338 1038.89252805 565.500447725 c 128,-1,86
 1036.94437243 558.752043111 1036.94437243 558.752043111 1035.15983808 552.272806808 c 0,87,88
 1029.15330188 530.464446926 1029.15330188 530.464446926 1027.60782239 520.44038966 c 0,89,90
 1011.33457687 455.713425193 1011.33457687 455.713425193 1011.33457687 417.735253772 c 0,0,1
856.533689385 906 m 0,91,92
 820.804434447 906 820.804434447 906 787.70663747 886.69267513 c 128,-1,93
 754.608840492 867.38535026 754.608840492 867.38535026 722.802413754 825.315841138 c 0,94,95
 655.713967331 736.579749151 655.713967331 736.579749151 620.428382417 595.222530655 c 0,96,97
 600.631336717 515.523106218 600.631336717 515.523106218 600.631336717 463.276342975 c 0,98,99
 600.631336717 397.031053712 600.631336717 397.031053712 630.408051911 384.078748404 c 0,100,101
 639.784894619 380 639.784894619 380 653.636702778 380 c 0,102,103
 716.532541078 380 716.532541078 380 774.558878273 487.090322799 c 0,104,105
 812.793038963 557.653256945 812.793038963 557.653256945 845.794598643 669.894478865 c 1,106,-1
 915.594139229 897.154394514 l 1,107,108
 886.255130058 906 886.255130058 906 856.533689385 906 c 0,91,92
EndSplineSet
EndChar
StartChar: A
Encoding: 65 65 36
Width: 1229
GlyphClass: 2
Flags: W
LayerCount: 2
Fore
SplineSet
275.212890625 -0 m 1,0,-1
 30 -0 l 1,1,-1
 900.956749328 1468 l 1,2,-1
 1136.93457031 1468 l 1,3,-1
 1254.55371094 -0 l 1,4,-1
 1015.01269531 -0 l 1,5,-1
 983.453118231 423 l 1,6,-1
 536.395597505 423 l 1,7,-1
 275.212890625 -0 l 1,0,-1
903.720975486 1071.11035156 m 2,8,-1
 665.113313607 648 l 1,9,-1
 967.395950595 648 l 1,10,-1
 941.22666766 1040.13867188 l 2,11,12
 937.945942496 1086.8671875 937.945942496 1086.8671875 936.198773021 1130.48535156 c 1,13,14
 920.156483958 1099.94140625 920.156483958 1099.94140625 903.720975486 1071.11035156 c 2,8,-1
EndSplineSet
EndChar
StartChar: B
Encoding: 66 66 37
Width: 1229
GlyphClass: 2
Flags: W
LayerCount: 2
Fore
SplineSet
123 -0 m 1,0,-1
 533.830078125 1462 l 1,1,-1
 967.70703125 1462 l 2,2,3
 1294.45507812 1462 1294.45507812 1462 1397.57910156 1370.27832031 c 0,4,5
 1471.22363281 1304.77832031 1471.22363281 1304.77832031 1471.22363281 1187.87011719 c 0,6,7
 1471.22363281 1134.88867188 1471.22363281 1134.88867188 1455.91699219 1071.17675781 c 0,8,9
 1420.2421875 924.961914062 1420.2421875 924.961914062 1302.79101562 833.985351562 c 0,10,11
 1247.40429688 791.083984375 1247.40429688 791.083984375 1167.02972207 767.8125 c 1,12,13
 1231.27636719 748.578125 1231.27636719 748.578125 1267.39160156 719.24609375 c 0,14,15
 1352.74023438 649.927734375 1352.74023438 649.927734375 1352.74023438 529.5078125 c 0,16,17
 1352.74023438 483.258789062 1352.74023438 483.258789062 1339.93066406 429.565429688 c 0,18,19
 1291.54003906 229.487304688 1291.54003906 229.487304688 1115.91760027 114.743164062 c 0,20,21
 922.859089687 0 922.859089687 0 650.70703125 0 c 2,22,-1
 123 -0 l 1,0,-1
626.473632812 872 m 1,23,-1
 852.70703125 872 l 2,24,25
 994.607543704 872 994.607543704 872 1086.95442925 917.349609375 c 128,-1,26
 1179.30258765 962.698242188 1179.30258765 962.698242188 1213.72694457 1069.70898438 c 0,27,28
 1224.42528882 1102.25683594 1224.42528882 1102.25683594 1224.42528882 1128.12597656 c 0,29,30
 1224.42528882 1177.33300781 1224.42528882 1177.33300781 1185.08007539 1201.74121094 c 0,31,32
 1118.57214144 1243 1118.57214144 1243 940.70703125 1243 c 2,33,-1
 719.546875 1243 l 1,34,-1
 626.473632812 872 l 1,23,-1
408.434570312 218 m 1,35,-1
 658.290295787 218 l 2,36,37
 809.452010356 218 809.452010356 218 906.012739157 264.1796875 c 0,38,39
 1025.42817327 321.290039062 1025.42817327 321.290039062 1066.22154504 452.666992188 c 0,40,41
 1077.48042185 488.55859375 1077.48042185 488.55859375 1077.48042185 520.635742188 c 0,42,43
 1077.48042185 593.823242188 1077.48042185 593.823242188 998.626319521 626.782226562 c 0,44,45
 928.721802341 656 928.721802341 656 797.316812289 656 c 2,46,-1
 516.571289062 656 l 1,47,-1
 408.434570312 218 l 1,35,-1
EndSplineSet
EndChar
StartChar: C
Encoding: 67 67 38
Width: 1229
GlyphClass: 2
Flags: W
LayerCount: 2
Fore
SplineSet
1140.96970673 41.0947265625 m 2,0,1
 974.294168748 -20 974.294168748 -20 754.203421871 -20 c 0,2,3
 609.862199211 -20 609.862199211 -20 504.381060586 21.046875 c 0,4,5
 358.076171875 79.87109375 358.076171875 79.87109375 294.431640625 224.100585938 c 0,6,7
 250.154296875 324.44140625 250.154296875 324.44140625 250.154296875 455.989257812 c 0,8,9
 250.154296875 458.005859375 250.154296875 458.005859375 250.166015625 460.03125 c 0,10,11
 250.166015625 584.973632812 250.166015625 584.973632812 287.78125 740.2578125 c 0,12,13
 369.807617188 1081.03515625 369.807617188 1081.03515625 598.018292069 1282.01757812 c 0,14,15
 836.352263868 1483 836.352263868 1483 1160.38392452 1483 c 0,16,17
 1384.97558594 1483 1384.97558594 1483 1523.44433594 1392.09667969 c 2,18,-1
 1549.17675781 1375.20410156 l 1,19,-1
 1407.39453125 1170.40820312 l 1,20,-1
 1383.16210938 1185.52929688 l 2,21,22
 1262.37107361 1259 1262.37107361 1259 1119.33376733 1259 c 0,23,24
 916.876485129 1259 916.876485129 1259 758.42954568 1117.53417969 c 0,25,26
 596.833584871 973.256835938 596.833584871 973.256835938 530.845499398 724.62109375 c 0,27,28
 498.761349769 602.416015625 498.761349769 602.416015625 498.761349769 507.833984375 c 0,29,30
 498.761349769 400.547851562 498.761349769 400.547851562 539.842100458 330.215820312 c 128,-1,31
 580.923906096 259.883789062 580.923906096 259.883789062 662.487251659 228.78515625 c 0,32,33
 730.114727147 203 730.114727147 203 826.581330587 203 c 0,34,35
 951.518884943 203 951.518884943 203 1159.86910963 259.784179688 c 2,36,-1
 1212.9446251 274.249023438 l 1,37,-1
 1156.85617663 46.9189453125 l 1,38,-1
 1140.96970673 41.0947265625 l 2,0,1
EndSplineSet
EndChar
StartChar: D
Encoding: 68 68 39
Width: 600
GlyphClass: 2
Flags: W
LayerCount: 2
Fore
SplineSet
60 0 m 1,0,-1
 261 714 l 1,1,-1
 428 714 l 2,2,3
 550 714 550 714 619 672 c 0,4,5
 651 651 651 651 672 619 c 0,6,7
 710 562 710 562 710 478 c 0,8,9
 710 425 710 425 695 360 c 0,10,11
 653 186 653 186 536 93 c 0,12,13
 407 0 407 0 215 0 c 2,14,-1
 60 0 l 1,0,-1
200 107 m 1,15,-1
 227 107 l 2,16,17
 378 107 378 107 468 185 c 0,18,19
 541 248 541 248 573 364 c 0,20,21
 590 420 590 420 589.5 462 c 128,-1,22
 589 504 589 504 574.5 532.5 c 128,-1,23
 560 561 560 561 531 579 c 0,24,25
 483 607 483 607 401 607 c 2,26,-1
 351 607 l 1,27,-1
 200 107 l 1,15,-1
EndSplineSet
EndChar
StartChar: E
Encoding: 69 69 40
Width: 1229
GlyphClass: 2
Flags: W
LayerCount: 2
Fore
SplineSet
1093.78694785 0 m 1,0,-1
 197 0 l 1,1,-1
 557.902281496 1462 l 1,2,-1
 1453.484375 1462 l 1,3,-1
 1401.58105469 1238 l 1,4,-1
 756.204139601 1238 l 1,5,-1
 658.333302058 865.153320312 l 1,6,-1
 1275.58886719 865.153320312 l 1,7,-1
 1223.515625 654 l 1,8,-1
 602.101467649 654 l 1,9,-1
 486.91230598 214.17578125 l 1,10,-1
 1148.62424548 214.17578125 l 1,11,-1
 1093.78694785 0 l 1,0,-1
EndSplineSet
EndChar
StartChar: F
Encoding: 70 70 41
Width: 1229
GlyphClass: 2
Flags: W
LayerCount: 2
Fore
SplineSet
456.588867188 0 m 1,0,-1
 222 0 l 1,1,-1
 582.915110537 1462 l 1,2,-1
 1477.484375 1462 l 1,3,-1
 1425.58105469 1238 l 1,4,-1
 781.225285888 1238 l 1,5,-1
 667.100043169 802.1171875 l 1,6,-1
 1284.25976562 802.1171875 l 1,7,-1
 1233.72363281 588 l 1,8,-1
 610.824850587 588 l 1,9,-1
 456.588867188 0 l 1,0,-1
EndSplineSet
EndChar
StartChar: G
Encoding: 71 71 42
Width: 600
GlyphClass: 2
Flags: W
LayerCount: 2
Fore
SplineSet
409 392 m 1,0,-1
 645 392 l 1,1,-1
 556 29 l 1,2,-1
 548 26 l 1,3,4
 379 -10 379 -10 329 -10 c 0,5,6
 327 -10 327 -10 325 -10 c 0,7,8
 263 -10 263 -10 220 11 c 0,9,10
 168 36 168 36 140 93 c 0,11,12
 115 145 115 145 116 217 c 0,13,14
 116 281 116 281 135 361 c 0,15,16
 175 529 175 529 278 626 c 0,17,18
 387 724 387 724 535 724 c 0,19,20
 631 724 631 724 695 679 c 2,21,-1
 706 671 l 1,22,-1
 640 567 l 1,23,-1
 627 577 l 2,24,25
 573 615 573 615 512 615 c 0,26,27
 424 615 424 615 356 548 c 0,28,29
 286 479 286 479 254 354 c 0,30,31
 235 282 235 282 235 230 c 0,32,33
 235 170 235 170 260 138 c 0,34,35
 290 99 290 99 361 99 c 0,36,37
 403 99 403 99 452 110 c 1,38,-1
 498 287 l 1,39,-1
 381 287 l 1,40,-1
 409 392 l 1,0,-1
EndSplineSet
EndChar
StartChar: H
Encoding: 72 72 43
Width: 600
GlyphClass: 2
Flags: W
LayerCount: 2
Fore
SplineSet
555 0 m 1,0,-1
 440 0 l 1,1,-1
 517 318 l 1,2,-1
 261 318 l 1,3,-1
 175 0 l 1,4,-1
 60 0 l 1,5,-1
 231 714 l 1,6,-1
 346 714 l 1,7,-1
 277 428 l 1,8,-1
 533 428 l 1,9,-1
 611 714 l 1,10,-1
 726 714 l 1,11,-1
 555 0 l 1,0,-1
EndSplineSet
EndChar
StartChar: I
Encoding: 73 73 44
Width: 1229
GlyphClass: 2
Flags: W
LayerCount: 2
Fore
SplineSet
1037.4533325 -0 m 1,0,-1
 205 -0 l 1,1,-1
 246.279296875 174.185546875 l 1,2,-1
 532.323858 193.403320312 l 1,3,-1
 815.638234293 1269.56347656 l 1,4,-1
 520.564915857 1288.76660156 l 1,5,-1
 565.451338154 1462 l 1,6,-1
 1399.20410156 1462 l 1,7,-1
 1357.92578125 1287.81933594 l 1,8,-1
 1072.97466976 1268.60253906 l 1,9,-1
 789.657090267 192.426757812 l 1,10,-1
 1083.93494771 173.205078125 l 1,11,-1
 1037.4533325 -0 l 1,0,-1
EndSplineSet
EndChar
StartChar: J
Encoding: 74 74 45
Width: 1229
GlyphClass: 2
Flags: W
LayerCount: 2
Fore
SplineSet
218.219726562 262.3125 m 2,0,1
 348.325195312 203 348.325195312 203 487.263688996 203 c 0,2,3
 639.108848513 203 639.108848513 203 743.482586772 272.825195312 c 128,-1,4
 847.855265022 342.649414062 847.855265022 342.649414062 882.11580018 472.90625 c 2,5,-1
 1141.93554688 1462 l 1,6,-1
 1376.50683594 1462 l 1,7,-1
 1134.43916667 454.987304688 l 2,8,9
 1077.6152903 237.633789062 1077.6152903 237.633789062 895.039423973 108.811523438 c 128,-1,10
 712.477337759 -20 712.477337759 -20 461.212919774 -20 c 0,11,12
 244.50390625 -20 244.50390625 -20 150.858398438 44.2451171875 c 2,13,-1
 134 55.810546875 l 1,14,-1
 184.762695312 277.565429688 l 1,15,-1
 218.219726562 262.3125 l 2,0,1
EndSplineSet
EndChar
StartChar: K
Encoding: 75 75 46
Width: 600
GlyphClass: 2
Flags: W
LayerCount: 2
Fore
SplineSet
611 0 m 1,0,-1
 484 0 l 1,1,-1
 346 332 l 1,2,-1
 284 291 l 1,3,-1
 208 0 l 1,4,-1
 94 0 l 1,5,-1
 266 714 l 1,6,-1
 380 714 l 1,7,-1
 306 394 l 1,8,-1
 342 434 l 1,9,-1
 645 714 l 1,10,-1
 782 714 l 1,11,-1
 431 398 l 1,12,-1
 611 0 l 1,0,-1
EndSplineSet
Validated: 1
EndChar
StartChar: L
Encoding: 76 76 47
Width: 600
GlyphClass: 2
Flags: W
LayerCount: 2
Fore
SplineSet
305 714 m 1,0,-1
 419 714 l 1,1,-1
 250 106 l 1,2,-1
 591 106 l 1,3,-1
 565 0 l 1,4,-1
 104 0 l 1,5,-1
 305 714 l 1,0,-1
EndSplineSet
Validated: 1
EndChar
StartChar: M
Encoding: 77 77 48
Width: 1229
GlyphClass: 2
Flags: W
LayerCount: 2
Fore
SplineSet
753.348632812 -0 m 1,0,-1
 558.827148438 -0 l 1,1,-1
 526.73046875 965.28515625 l 1,2,3
 519.029296875 928.250976562 519.029296875 928.250976562 511.938476562 897.227539062 c 2,4,-1
 304.5703125 0 l 1,5,-1
 103 -0 l 1,6,-1
 453.830078125 1462 l 1,7,-1
 738.8359375 1462 l 1,8,-1
 760.950036804 388.065429688 l 1,9,-1
 1216.87695312 1462 l 1,10,-1
 1508.41503906 1462 l 1,11,-1
 1217.58398438 -0 l 1,12,-1
 1012.97753906 0 l 1,13,-1
 1159.27291805 923.887695312 l 2,14,15
 1165.0441538 945.334960938 1165.0441538 945.334960938 1173.50781395 974.768554688 c 1,16,-1
 753.348632812 -0 l 1,0,-1
EndSplineSet
EndChar
StartChar: N
Encoding: 78 78 49
Width: 1229
GlyphClass: 2
Flags: W
LayerCount: 2
Fore
SplineSet
1134.58398438 -0 m 1,0,-1
 886.463867188 -0 l 1,1,-1
 589.40625 1103.23046875 l 1,2,3
 557.034179688 921.647460938 557.034179688 921.647460938 532.940429688 816.237304688 c 2,4,-1
 344.578125 -0 l 1,5,-1
 123 -0 l 1,6,-1
 473.830078125 1462 l 1,7,-1
 719.92578125 1462 l 1,8,-1
 1017.00488281 364.142578125 l 1,9,10
 1054.6796875 560.622070312 1054.6796875 560.622070312 1072.47753906 638.776367188 c 2,11,-1
 1262.84765625 1462 l 1,12,-1
 1485.41503906 1462 l 1,13,-1
 1134.58398438 -0 l 1,0,-1
EndSplineSet
EndChar
StartChar: P
Encoding: 80 80 51
Width: 600
GlyphClass: 2
Flags: W
LayerCount: 2
Fore
SplineSet
193 0 m 1,0,-1
 78 0 l 1,1,-1
 279 714 l 1,2,-1
 474 714 l 2,3,4
 645 714 645 714 691 640 c 0,5,6
 712 607 712 607 712 560 c 0,7,8
 712 530 712 530 703 494 c 128,-1,9
 694 458 694 458 680 427 c 0,10,11
 650 365 650 365 596 324 c 0,12,13
 502 263 502 263 356 263 c 2,14,-1
 268 263 l 1,15,-1
 193 0 l 1,0,-1
311 370 m 1,16,-1
 369 370 l 2,17,18
 454 370 454 370 505 400 c 0,19,20
 562 430 562 430 584 496 c 0,21,22
 591 516 591 516 590 532 c 0,23,24
 590 551 590 551 582 565 c 0,25,26
 556 607 556 607 449 607 c 2,27,-1
 369 607 l 1,28,-1
 311 370 l 1,16,-1
EndSplineSet
Validated: 33
EndChar
StartChar: Q
Encoding: 81 81 52
Width: 1229
GlyphClass: 2
Flags: W
LayerCount: 2
Fore
SplineSet
662.439234634 -17.6552734375 m 1,0,1
 637.131717059 -20 637.131717059 -20 611.016092562 -20 c 0,2,3
 378.021484375 -20 378.021484375 -20 278.600585938 114.875 c 0,4,5
 200.744140625 220.495117188 200.744140625 220.495117188 200.744140625 406.340820312 c 0,6,7
 200.744140625 549.369140625 200.744140625 549.369140625 246.766601562 741.405273438 c 0,8,9
 325.096679688 1067.96972656 325.096679688 1067.96972656 472.066537471 1250.98828125 c 0,10,11
 572.510918609 1367.13378906 572.510918609 1367.13378906 703.385809553 1426.06738281 c 128,-1,12
 834.259632984 1485 834.259632984 1485 992.519420724 1485 c 0,13,14
 1116.10426917 1485 1116.10426917 1485 1200.44921875 1443.0703125 c 0,15,16
 1303.89257812 1391.63769531 1303.89257812 1391.63769531 1353.67871094 1277.07421875 c 0,17,18
 1396.50585938 1178.52441406 1396.50585938 1178.52441406 1396.50585938 1040.13476562 c 128,-1,19
 1396.50585938 901.745117188 1396.50585938 901.745117188 1353.23828125 722.272460938 c 0,20,21
 1232.44042969 218.57421875 1232.44042969 218.57421875 912.887262248 44.537109375 c 1,22,23
 955.504494146 -106.708007812 955.504494146 -106.708007812 1102.53618597 -219.333007812 c 2,24,-1
 1129.50795545 -240.73828125 l 1,25,-1
 921.732670382 -425.603515625 l 1,26,-1
 898.887904022 -405.75 l 2,27,28
 706.674815401 -238.704101562 706.674815401 -238.704101562 662.439234634 -17.6552734375 c 1,0,1
561.828321554 217.1328125 m 0,29,30
 599.720743363 203 599.720743363 203 651.462004144 203 c 0,31,32
 811.041237268 203 811.041237268 203 919.788730216 328.813476562 c 0,33,34
 1034.24848227 461.235351562 1034.24848227 461.235351562 1108.1310187 739.326171875 c 0,35,36
 1154.36328125 913.831054688 1154.36328125 913.831054688 1154.36328125 1029.91308594 c 128,-1,37
 1154.36328125 1146.01660156 1154.36328125 1146.01660156 1107.75418681 1202.03613281 c 0,38,39
 1088.86028402 1224.58203125 1088.86028402 1224.58203125 1064.72596262 1237.02539062 c 0,40,41
 1018.230458 1261 1018.230458 1261 950.980376397 1261 c 0,42,43
 634.910223657 1261 634.910223657 1261 492.115488733 726.532226562 c 0,44,45
 447.262885772 559.310546875 447.262885772 559.310546875 447.262885772 445.828125 c 128,-1,46
 447.262885772 332.346679688 447.262885772 332.346679688 489.314336073 272.551757812 c 0,47,48
 516.361898936 234.090820312 516.361898936 234.090820312 561.828321554 217.1328125 c 0,29,30
EndSplineSet
EndChar
StartChar: R
Encoding: 82 82 53
Width: 600
GlyphClass: 2
Flags: W
LayerCount: 2
Fore
SplineSet
198 0 m 1,0,-1
 83 0 l 1,1,-1
 261 714 l 1,2,-1
 456 714 l 2,3,4
 615 714 615 714 656 629 c 0,5,6
 669 601 669 601 669 564 c 0,7,8
 669 535 669 535 661 502 c 0,9,10
 642 423 642 423 587 372 c 0,11,12
 547 335 547 335 489 313 c 1,13,-1
 598 0 l 1,14,-1
 468 0 l 1,15,-1
 366 280 l 1,16,-1
 274 280 l 1,17,-1
 198 0 l 1,0,-1
302 387 m 1,18,-1
 365 387 l 2,19,20
 447 387 447 387 489 414 c 0,21,22
 529 441 529 441 544 502 c 0,23,24
 549 523 549 523 549 540 c 0,25,26
 549 568 549 568 534 583 c 0,27,28
 509 607 509 607 430 607 c 2,29,-1
 362 607 l 1,30,-1
 302 387 l 1,18,-1
EndSplineSet
EndChar
StartChar: S
Encoding: 83 83 54
Width: 1229
GlyphClass: 2
Flags: W
LayerCount: 2
Fore
SplineSet
228.426757812 283.971679688 m 2,0,1
 399.225855949 201 399.225855949 201 595.843915439 201 c 0,2,3
 744.411969983 201 744.411969983 201 836.098158883 243.083984375 c 0,4,5
 946.081929728 293.567382812 946.081929728 293.567382812 975.74786926 408.071289062 c 0,6,7
 983.051503762 436.06640625 983.051503762 436.06640625 983.051503762 459.435546875 c 0,8,9
 983.051503762 506.418945312 983.051503762 506.418945312 952.90252241 534.865234375 c 0,10,11
 900.940722464 583.891601562 900.940722464 583.891601562 709.870261165 655.004882812 c 0,12,13
 508.735022386 728.380859375 508.735022386 728.380859375 437.854436058 833.56640625 c 0,14,15
 393.173067731 899.872070312 393.173067731 899.872070312 393.173067731 989.124023438 c 0,16,17
 393.173067731 1043.5625 393.173067731 1043.5625 409.828518425 1106.36621094 c 0,18,19
 455.830341682 1283.36914062 455.830341682 1283.36914062 618.509967291 1383.18457031 c 128,-1,20
 781.189592901 1483 781.189592901 1483 1017.03950744 1483 c 0,21,22
 1250.37207031 1483 1250.37207031 1483 1412.671875 1401.85058594 c 2,23,-1
 1441.62597656 1387.37304688 l 1,24,-1
 1312.9375 1172.015625 l 1,25,-1
 1288.23242188 1183.984375 l 2,26,27
 1128.39541236 1259 1128.39541236 1259 967.360027355 1259 c 0,28,29
 747.058153227 1259 747.058153227 1259 677.77223771 1141.6953125 c 0,30,31
 662.029082157 1115.04296875 662.029082157 1115.04296875 653.684481987 1083.27441406 c 128,-1,32
 645.339881817 1051.50488281 645.339881817 1051.50488281 645.339881817 1026.11425781 c 0,33,34
 645.339881817 979.9765625 645.339881817 979.9765625 671.998938755 948.5390625 c 0,35,36
 690.757414314 926.41796875 690.757414314 926.41796875 735.489407111 901.216796875 c 0,37,38
 795.168274732 867.59375 795.168274732 867.59375 897.442360638 830.89453125 c 0,39,-1
 897.882160723 830.733398438 l 1,40,41
 1132.4084563 742.9765625 1132.4084563 742.9765625 1197.16113281 645.4609375 c 0,42,43
 1235.2734375 583.57421875 1235.2734375 583.57421875 1235.2734375 501.0625 c 0,44,45
 1235.2734375 451.586914062 1235.2734375 451.586914062 1222.62792969 399.142578125 c 128,-1,46
 1209.98242188 346.698242188 1209.98242188 346.698242188 1190.62343299 303.40625 c 0,47,48
 1170.13423336 260.11328125 1170.13423336 260.11328125 1141.77714731 221.901367188 c 0,49,50
 1084.84149317 145.180664062 1084.84149317 145.180664062 997.023857535 89.9541015625 c 0,51,52
 822.180648286 -20 822.180648286 -20 555.884333634 -20 c 128,-1,53
 289.442382812 -20 289.442382812 -20 159.638671875 52.81640625 c 2,54,-1
 140 63.833984375 l 1,55,-1
 194.521484375 300.538085938 l 1,56,-1
 228.426757812 283.971679688 l 2,0,1
EndSplineSet
EndChar
StartChar: T
Encoding: 84 84 55
Width: 600
GlyphClass: 2
Flags: W
LayerCount: 2
Fore
SplineSet
350 0 m 1,0,-1
 235 0 l 1,1,-1
 389 609 l 1,2,-1
 191 609 l 1,3,-1
 217 714 l 1,4,-1
 740 714 l 1,5,-1
 715 604 l 1,6,-1
 516 604 l 1,7,-1
 350 0 l 1,0,-1
EndSplineSet
Validated: 1
EndChar
StartChar: U
Encoding: 85 85 56
Width: 1229
GlyphClass: 2
Flags: W
LayerCount: 2
Fore
SplineSet
1070.56217455 119.499023438 m 128,-1,1
 888.144213304 -20 888.144213304 -20 610.2242215 -20 c 0,2,3
 421.879882812 -20 421.879882812 -20 327.165039062 48.509765625 c 0,4,5
 206.778320312 135.588867188 206.778320312 135.588867188 206.778320312 326.393554688 c 0,6,7
 206.778320312 418.1171875 206.778320312 418.1171875 234.764648438 534.310546875 c 2,8,-1
 517.120117188 1462 l 1,9,-1
 751.713867188 1462 l 1,10,-1
 470.81406069 537.326171875 l 2,11,12
 447.821289062 452.583007812 447.821289062 452.583007812 447.821289062 388.870117188 c 0,13,14
 447.821289062 303.306640625 447.821289062 303.306640625 489.706208693 258.0625 c 0,15,16
 541.621817764 203 541.621817764 203 664.935172766 203 c 0,17,18
 825.454202719 203 825.454202719 203 927.83716305 306.9453125 c 0,19,20
 1013.1922947 393.603515625 1013.1922947 393.603515625 1060.49485024 552.326171875 c 1,21,-1
 1315.12695312 1464 l 1,22,-1
 1549.72558594 1464 l 1,23,-1
 1322.23339844 517.504882812 l 2,24,0
 1252.98013579 258.997070312 1252.98013579 258.997070312 1070.56217455 119.499023438 c 128,-1,1
EndSplineSet
EndChar
StartChar: V
Encoding: 86 86 57
Width: 1229
GlyphClass: 2
Flags: W
LayerCount: 2
Fore
SplineSet
1338.32714844 1462 m 1,0,-1
 1591.82617188 1462 l 1,1,-1
 716.016339498 -0 l 1,2,-1
 487.719726562 -0 l 1,3,-1
 368 1462 l 1,4,-1
 610.576171875 1462 l 1,5,-1
 677.931055926 507.147460938 l 2,6,7
 684.217937495 425.745117188 684.217937495 425.745117188 684.75434994 312.34765625 c 1,8,9
 735.461290618 409.981445312 735.461290618 409.981445312 801.630532877 524.924804688 c 2,10,-1
 1338.32714844 1462 l 1,0,-1
EndSplineSet
EndChar
StartChar: W
Encoding: 87 87 58
Width: 1229
GlyphClass: 2
Flags: W
LayerCount: 2
Fore
SplineSet
488.88193286 475.208007812 m 2,0,-1
 752.082342046 1008 l 1,1,-1
 980.560844959 1008 l 1,2,3
 1027.05566406 427.461914062 1027.05566406 427.461914062 1027.50585938 401.75390625 c 128,-1,4
 1027.95703125 376.046875 1027.95703125 376.046875 1028.1328125 361.142578125 c 1,5,6
 1076.69628906 508.874023438 1076.69628906 508.874023438 1149.12172752 778.366210938 c 1,7,-1
 1391.47070312 1462 l 1,8,-1
 1614.49121094 1462 l 1,9,-1
 1081.47851562 0 l 1,10,-1
 854.30859375 -0 l 1,11,-1
 827.519224446 608.896484375 l 2,12,13
 825.000110779 668.856445312 825.000110779 668.856445312 825.512088917 729.92578125 c 1,14,15
 786.576831192 653.83984375 786.576831192 653.83984375 752.011510754 594.751953125 c 1,16,-1
 419.026367188 0 l 1,17,-1
 191 0 l 1,18,-1
 345.07421875 1462 l 1,19,-1
 563.579101562 1462 l 1,20,-1
 489.017578125 765.749023438 l 2,21,22
 478.491721679 592.3125 478.491721679 592.3125 443.32720559 393.82421875 c 1,23,24
 465.252782589 434.206054688 465.252782589 434.206054688 488.88193286 475.208007812 c 2,0,-1
EndSplineSet
EndChar
StartChar: X
Encoding: 88 88 59
Width: 1229
GlyphClass: 2
Flags: W
LayerCount: 2
Fore
SplineSet
1253.70898438 -0 m 1,0,-1
 994.026367188 -0 l 1,1,-1
 803.812546018 599.662109375 l 1,2,-1
 300.3671875 -0 l 1,3,-1
 48 0 l 1,4,-1
 674.040039062 768.29296875 l 1,5,-1
 435.0390625 1462 l 1,6,-1
 683.510742188 1462 l 1,7,-1
 868.280616293 936.012695312 l 1,8,-1
 1325.01367188 1462 l 1,9,-1
 1579.87402344 1462 l 1,10,-1
 965.418711709 762.573242188 l 1,11,-1
 1253.70898438 -0 l 1,0,-1
EndSplineSet
EndChar
StartChar: Y
Encoding: 89 89 60
Width: 1229
GlyphClass: 2
Flags: W
LayerCount: 2
Fore
SplineSet
620.394079402 565.228515625 m 1,0,-1
 368 1462 l 1,1,-1
 618.794921875 1462 l 1,2,-1
 803.111135422 764.033203125 l 1,3,-1
 1343.70410156 1462 l 1,4,-1
 1605.60742188 1462 l 1,5,-1
 876.354040715 563.108398438 l 1,6,-1
 729.210254529 -0 l 1,7,-1
 484.471679688 0 l 1,8,-1
 620.394079402 565.228515625 l 1,0,-1
EndSplineSet
EndChar
StartChar: Z
Encoding: 90 90 61
Width: 1229
GlyphClass: 2
Flags: W
LayerCount: 2
Fore
SplineSet
1158.24749401 0 m 1,0,-1
 93 0 l 1,1,-1
 136.015625 180.255859375 l 1,2,-1
 1155.30921292 1236 l 1,3,-1
 417.101368088 1236 l 1,4,-1
 472.477147927 1462 l 1,5,-1
 1497.20019531 1462 l 1,6,-1
 1454.18652344 1280.45214844 l 1,7,-1
 435.915356447 217.090820312 l 1,8,-1
 1215.08039367 217.090820312 l 1,9,-1
 1158.24749401 0 l 1,0,-1
EndSplineSet
EndChar
StartChar: bracketleft
Encoding: 91 91 62
Width: 1229
GlyphClass: 2
Flags: W
LayerCount: 2
Fore
SplineSet
262.286172629 -354 m 1,0,-1
 710.322112148 1492 l 1,1,-1
 1300.62218898 1492 l 1,2,-1
 1252.93091382 1283 l 1,3,-1
 915.591625892 1283 l 1,4,-1
 545.862645507 -144 l 1,5,-1
 907.659352666 -144 l 1,6,-1
 852.620110116 -354 l 1,7,-1
 262.286172629 -354 l 1,0,-1
EndSplineSet
EndChar
StartChar: backslash
Encoding: 92 92 63
Width: 1229
GlyphClass: 2
Flags: W
LayerCount: 2
Fore
SplineSet
749.605033728 -30 m 1,0,-1
 494.550314166 1492 l 1,1,-1
 720.377863689 1492 l 1,2,-1
 976.473622923 -30 l 1,3,-1
 749.605033728 -30 l 1,0,-1
EndSplineSet
EndChar
StartChar: bracketright
Encoding: 93 93 64
Width: 600
GlyphClass: 2
Flags: W
LayerCount: 2
Fore
SplineSet
266 626 m 1,0,-1
 293 729 l 1,1,-1
 581 729 l 1,2,-1
 362 -173 l 1,3,-1
 73 -173 l 1,4,-1
 97 -70 l 1,5,-1
 262 -70 l 1,6,-1
 442 626 l 1,7,-1
 266 626 l 1,0,-1
EndSplineSet
EndChar
StartChar: asciicircum
Encoding: 94 94 65
Width: 1229
GlyphClass: 2
Flags: W
LayerCount: 2
Fore
SplineSet
863.446043825 1503 m 1,0,-1
 1012.97283874 1503 l 1,1,-1
 1262.55025946 519 l 1,2,-1
 1050.23587227 519 l 1,3,-1
 873.830278491 1207.59254798 l 1,4,-1
 392.518803413 519 l 1,5,-1
 172.399967196 519 l 1,6,-1
 863.446043825 1503 l 1,0,-1
EndSplineSet
EndChar
StartChar: underscore
Encoding: 95 95 66
Width: 1229
GlyphClass: 2
Flags: W
LayerCount: 2
Fore
SplineSet
1333 -354 m 1,0,-1
 -46 -354 l 1,1,-1
 -46 -154 l 1,2,-1
 1333 -154 l 1,3,-1
 1333 -354 l 1,0,-1
EndSplineSet
EndChar
StartChar: grave
Encoding: 96 96 67
Width: 1229
GlyphClass: 2
Flags: W
LayerCount: 2
Fore
SplineSet
1055.21992516 1211 m 1,0,-1
 906.229908789 1211 l 1,1,-1
 897.237974756 1221.46602158 l 2,2,3
 771.661966499 1367.6282607 771.661966499 1367.6282607 709.796333259 1537.75875211 c 2,4,-1
 706.727053659 1546.19927101 l 1,5,-1
 719.2986558 1599 l 1,6,-1
 970.143851644 1599 l 1,7,-1
 975.305800858 1575.44033436 l 2,8,9
 1013.67308443 1400.32811703 1013.67308443 1400.32811703 1066.48399286 1280.03660338 c 2,10,-1
 1070.65511203 1270.53572082 l 1,11,-1
 1055.21992516 1211 l 1,0,-1
EndSplineSet
EndChar
StartChar: a
Encoding: 97 97 68
Width: 1229
GlyphClass: 2
Flags: W
LayerCount: 2
Fore
SplineSet
954.78515625 682.504882812 m 2,0,1
 963.615234375 718.571289062 963.615234375 718.571289062 963.615234375 747.0078125 c 0,2,3
 963.615234375 805.961914062 963.615234375 805.961914062 921.701641234 830.458007812 c 0,4,5
 882.991310524 852 882.991310524 852 808.265658188 852 c 0,6,7
 673.280616 852 673.280616 852 484.639892365 778.518554688 c 2,8,-1
 445.780879095 763.381835938 l 1,9,-1
 406.270507812 953.6796875 l 1,10,-1
 427.764958139 963.850585938 l 2,11,12
 651.404455226 1063 651.404455226 1063 842.099200904 1063 c 0,13,14
 957.737304688 1063 957.737304688 1063 1030.12890625 1040.57714844 c 0,15,16
 1148.84765625 1005.80859375 1148.84765625 1005.80859375 1180.63476562 906.713867188 c 0,17,18
 1192.89160156 868.501953125 1192.89160156 868.501953125 1192.89160156 817.559570312 c 128,-1,19
 1192.89160156 766.618164062 1192.89160156 766.618164062 1176.22460938 697.954101562 c 2,20,-1
 1004.83789062 0 l 1,21,-1
 834.59765625 0 l 1,22,-1
 836.107421875 113.244140625 l 1,23,24
 757.239613729 49.5908203125 757.239613729 49.5908203125 683.527210265 19.8466796875 c 0,25,26
 584.778985144 -20 584.778985144 -20 447.270179566 -20 c 0,27,28
 286.930664062 -20 286.930664062 -20 216.915039062 68.060546875 c 0,29,30
 171.83203125 124.762695312 171.83203125 124.762695312 171.83203125 208.775390625 c 0,31,32
 171.83203125 253.62890625 171.83203125 253.62890625 184.763671875 306.297851562 c 0,33,34
 228.379882812 483.504882812 228.379882812 483.504882812 395.833984375 567.1015625 c 0,35,36
 540.127122691 632.205078125 540.127122691 632.205078125 770.818578568 638.65625 c 1,37,-1
 944.816823348 644.364257812 l 1,38,-1
 954.78515625 682.504882812 l 2,0,1
411.204101562 314.112304688 m 0,39,40
 405.090820312 287.728515625 405.090820312 287.728515625 405.090820312 266.78515625 c 128,-1,41
 405.090820312 245.705078125 405.090820312 245.705078125 411.696289062 229.896484375 c 0,42,43
 431.641612385 187 431.641612385 187 531.370829241 187 c 0,44,45
 666.070120114 187 666.070120114 187 764.593629686 255.845703125 c 0,46,47
 859.012695312 324.69140625 859.012695312 324.69140625 887.73828125 451.638671875 c 2,48,-1
 899.833984375 504.053710938 l 1,49,-1
 793.473570122 499.03125 l 1,50,51
 604.916692248 492.344726562 604.916692248 492.344726562 517.401963194 446.83984375 c 0,52,53
 434.805881078 403.891601562 434.805881078 403.891601562 411.204101562 314.112304688 c 0,39,40
EndSplineSet
EndChar
StartChar: b
Encoding: 98 98 69
Width: 1229
GlyphClass: 2
Flags: W
LayerCount: 2
Fore
SplineSet
657.641298582 1109.33300781 m 2,0,1
 643.068918734 1051.66992188 643.068918734 1051.66992188 617.312074471 964.788085938 c 1,2,3
 746.929158329 1063 746.929158329 1063 913.100981025 1063 c 0,4,5
 1004.14746094 1063 1004.14746094 1063 1066.45507812 1031.79101562 c 0,6,7
 1145.84570312 994.171875 1145.84570312 994.171875 1186.93652344 910.53515625 c 0,8,9
 1224.56347656 833.94921875 1224.56347656 833.94921875 1224.56347656 726.671875 c 0,10,11
 1224.56347656 633.137695312 1224.56347656 633.137695312 1195.1328125 512.086914062 c 0,12,13
 1135.09570312 265.15234375 1135.09570312 265.15234375 997.22265625 124.383789062 c 0,14,15
 842.041626533 -20 842.041626533 -20 635.118176167 -20 c 0,16,17
 447.233290323 -20 447.233290323 -20 363.655273438 110.200195312 c 1,18,-1
 311.75 0 l 1,19,-1
 137 0 l 1,20,-1
 524.067303237 1556 l 1,21,-1
 772.721836312 1556 l 1,22,-1
 657.641298582 1109.33300781 l 2,0,1
497.503657318 516.693359375 m 0,23,24
 468.012504986 411.494140625 468.012504986 411.494140625 468.012504986 341.109375 c 0,25,26
 468.012504986 288.287109375 468.012504986 288.287109375 484.497102488 256.921875 c 0,27,28
 503.418393014 220.920898438 503.418393014 220.920898438 546.865150846 204.920898438 c 0,29,30
 584.667554696 191 584.667554696 191 641.789763483 191 c 0,31,32
 725.951229395 191 725.951229395 191 791.086075358 234.439453125 c 0,33,34
 908.420879896 312.690429688 908.420879896 312.690429688 969.552121947 530.9140625 c 0,35,36
 994.163085938 625.311523438 994.163085938 625.311523438 994.163085938 696.3828125 c 128,-1,37
 994.163085938 767.454101562 994.163085938 767.454101562 964.067390903 806.618164062 c 0,38,39
 927.202093149 852 927.202093149 852 839.713520542 852 c 0,40,41
 772.013848856 852 772.013848856 852 720.478442924 834.236328125 c 128,-1,42
 668.944122863 816.473632812 668.944122863 816.473632812 630.692168696 780.662109375 c 0,43,44
 550.104302045 705.215820312 550.104302045 705.215820312 497.503657318 516.693359375 c 0,23,24
EndSplineSet
EndChar
StartChar: c
Encoding: 99 99 70
Width: 1229
GlyphClass: 2
Flags: W
LayerCount: 2
Fore
SplineSet
1136.55761719 792.697265625 m 2,0,1
 1025.61523485 843 1025.61523485 843 919.429695294 843 c 0,2,3
 826.804824933 843 826.804824933 843 754.61042606 818.231445312 c 0,4,5
 564.328538687 752.948242188 564.328538687 752.948242188 495.911543091 512.099609375 c 0,6,7
 476.837890625 438.762695312 476.837890625 438.762695312 476.837890625 382.3515625 c 0,8,9
 476.837890625 278.76953125 476.837890625 278.76953125 545.331745978 234.9765625 c 0,10,11
 602.926991645 199 602.926991645 199 711.469428853 199 c 0,12,13
 855.942754368 199 855.942754368 199 1023.34176719 255.0859375 c 2,14,-1
 1076.828125 274.81640625 l 1,15,-1
 1023.92248394 50.037109375 l 1,16,-1
 1009.04010782 43.8251953125 l 2,17,18
 856.138156223 -20 856.138156223 -20 659.76038963 -20 c 0,19,20
 402.767578125 -20 402.767578125 -20 303.368164062 124.135742188 c 0,21,22
 244.080078125 210.106445312 244.080078125 210.106445312 244.080078125 338.764648438 c 0,23,24
 244.080078125 421.724609375 244.080078125 421.724609375 268.776367188 522.734375 c 0,25,26
 332.920898438 784.471679688 332.920898438 784.471679688 498.729501305 923.736328125 c 0,27,28
 684.013272688 1063 684.013272688 1063 952.028872196 1063 c 0,29,30
 1120.83007812 1063 1120.83007812 1063 1249.94726562 1001.06542969 c 2,31,-1
 1279.04394531 987.108398438 l 1,32,-1
 1161.45214844 781.323242188 l 1,33,-1
 1136.55761719 792.697265625 l 2,0,1
EndSplineSet
EndChar
StartChar: d
Encoding: 100 100 71
Width: 600
GlyphClass: 2
Flags: W
LayerCount: 2
Fore
SplineSet
214 449 m 0,0,1
 289 519 289 519 388 519 c 0,2,3
 471 519 471 519 513 464 c 1,4,5
 520 503 520 503 523 516 c 2,6,-1
 583 760 l 1,7,-1
 692 760 l 1,8,-1
 510 0 l 1,9,-1
 419 0 l 1,10,-1
 422 50 l 1,11,12
 349 -10 349 -10 257 -10 c 0,13,14
 211 -10 211 -10 180 6 c 0,15,16
 141 24 141 24 121 65 c 0,17,18
 103 103 103 103 103 155 c 0,19,20
 103 201 103 201 117 257 c 0,21,22
 147 380 147 380 214 449 c 0,0,1
468 343.5 m 128,-1,24
 468 378 468 378 453 395 c 0,25,26
 434 416 434 416 385 416 c 0,27,28
 312 416 312 416 267 345 c 0,29,30
 243 307 243 307 228 250 c 0,31,32
 216 204 216 204 216 171 c 0,33,34
 216 135 216 135 231 115 c 0,35,36
 250 93 250 93 294 93 c 0,37,38
 361 93 361 93 400 126 c 0,39,40
 438 160 438 160 459 239 c 1,41,-1
 453 257 l 1,42,23
 468 309 468 309 468 343.5 c 128,-1,24
EndSplineSet
EndChar
StartChar: e
Encoding: 101 101 72
Width: 1229
GlyphClass: 2
Flags: W
LayerCount: 2
Fore
SplineSet
1177.85449219 454 m 1,0,-1
 449.694335938 454 l 1,1,2
 440.319335938 407.3203125 440.319335938 407.3203125 440.319335938 369.171875 c 0,3,4
 440.319335938 273.026367188 440.319335938 273.026367188 505.422389007 232.454101562 c 0,5,6
 560.954913839 199 560.954913839 199 665.827626557 199 c 0,7,8
 848.721579158 199 848.721579158 199 1025.42285156 266.681640625 c 2,9,-1
 1079.18261719 289.21484375 l 1,10,-1
 1028.00097656 64.0126953125 l 1,11,-1
 1014.64160156 57.7900390625 l 2,12,13
 830.312197031 -20 830.312197031 -20 627.431829029 -20 c 0,14,15
 378.899414062 -20 378.899414062 -20 275.48046875 127.763671875 c 0,16,17
 211.94140625 218.546875 211.94140625 218.546875 211.94140625 349.529296875 c 0,18,19
 211.94140625 427.952148438 211.94140625 427.952148438 234.756835938 520.76171875 c 0,20,21
 294.725585938 768.616210938 294.725585938 768.616210938 454.270507812 915.80859375 c 0,22,23
 633.999124935 1063 633.999124935 1063 870.228783989 1063 c 0,24,25
 1083.60546875 1063 1083.60546875 1063 1172.94238281 927.08984375 c 0,26,27
 1227.54101562 844.02734375 1227.54101562 844.02734375 1227.54101562 728.197265625 c 0,28,29
 1227.54101562 659.438476562 1227.54101562 659.438476562 1208.22851562 579.056640625 c 2,30,-1
 1177.85449219 454 l 1,0,-1
510.020047552 662 m 1,31,-1
 988.719726562 662 l 1,32,33
 997.177734375 699.791015625 997.177734375 699.791015625 997.177734375 730.077148438 c 0,34,35
 997.177734375 799.272460938 997.177734375 799.272460938 949.221608707 827.985351562 c 0,36,37
 907.445666434 852 907.445666434 852 827.31583381 852 c 0,38,39
 693.427914492 852 693.427914492 852 607.257934147 785.096679688 c 0,40,41
 548.472088925 739.455078125 548.472088925 739.455078125 510.020047552 662 c 1,31,-1
EndSplineSet
EndChar
StartChar: f
Encoding: 102 102 73
Width: 600
GlyphClass: 2
Flags: W
LayerCount: 2
Fore
SplineSet
449 511 m 1,0,-1
 624 511 l 1,1,-1
 601 415 l 1,2,-1
 424 415 l 1,3,-1
 252 -240 l 1,4,-1
 143 -240 l 1,5,-1
 305 415 l 1,6,-1
 169 415 l 1,7,-1
 187 496 l 1,8,-1
 329 513 l 1,9,-1
 340 555 l 1,10,11
 367 664 367 664 425 714.5 c 128,-1,12
 483 765 483 765 587 765 c 0,13,14
 644 765 644 765 694 747 c 2,15,-1
 709 742 l 1,16,-1
 663 642 l 1,17,-1
 650 648 l 2,18,19
 613 663 613 663 571 663 c 0,20,21
 522 663 522 663 499 639 c 0,22,23
 474 613 474 613 459 552 c 2,24,-1
 449 511 l 1,0,-1
EndSplineSet
Validated: 1
EndChar
StartChar: g
Encoding: 103 103 74
Width: 1229
GlyphClass: 2
Flags: W
LayerCount: 2
Fore
SplineSet
1313.609375 880.029296875 m 1,0,-1
 1151.28613281 858.27734375 l 1,1,2
 1162.70117188 820.642578125 1162.70117188 820.642578125 1162.70117188 775.9140625 c 128,-1,3
 1162.70117188 731.185546875 1162.70117188 731.185546875 1150.125 678.877929688 c 128,-1,4
 1137.54882812 626.569335938 1137.54882812 626.569335938 1115.56054688 581.1875 c 0,5,6
 1068.48585361 489.78125 1068.48585361 489.78125 981.187209603 427.155273438 c 0,7,8
 849.939157787 333 849.939157787 333 660.629242182 333 c 0,9,10
 614.921436893 333 614.921436893 333 586.246922692 337.442382812 c 1,11,12
 503.197914759 302.145507812 503.197914759 302.145507812 489.485573172 256.309570312 c 0,13,14
 488.048320137 251.653320312 488.048320137 251.653320312 488.048320137 247.921875 c 0,15,16
 488.048320137 240.629882812 488.048320137 240.629882812 494.712330727 236.37109375 c 0,17,18
 515.650948925 222.987304688 515.650948925 222.987304688 584.714905722 222.987304688 c 0,19,20
 586.41855071 222.987304688 586.41855071 222.987304688 588.152730745 222.999023438 c 2,21,-1
 764.136731037 222.999023438 l 2,22,23
 942.011798325 222.999023438 942.011798325 222.999023438 1019.64873256 137.278320312 c 0,24,25
 1072.26482881 79.18359375 1072.26482881 79.18359375 1072.26482881 -9.619140625 c 0,26,27
 1072.26482881 -52.611328125 1072.26482881 -52.611328125 1059.80547705 -102.803710938 c 0,28,29
 1032.93253057 -210.12109375 1032.93253057 -210.12109375 968.80366899 -289.170898438 c 0,30,31
 804.256622881 -492 804.256622881 -492 402.938723055 -492 c 0,32,33
 294.882565256 -492 294.882565256 -492 220.559570312 -471.020507812 c 0,34,35
 147.338867188 -450.040039062 147.338867188 -450.040039062 101.198242188 -405.608398438 c 0,36,37
 33.9384765625 -340.83984375 33.9384765625 -340.83984375 33.9384765625 -240.3203125 c 0,38,39
 33.9384765625 -202.237304688 33.9384765625 -202.237304688 43.7568359375 -159.278320312 c 0,40,41
 72.126953125 -41.328125 72.126953125 -41.328125 161.616210938 29.595703125 c 0,42,43
 214.3671875 71.40234375 214.3671875 71.40234375 288.376494561 96.10546875 c 1,44,45
 260.181640625 131.470703125 260.181640625 131.470703125 260.181640625 180.720703125 c 0,46,47
 260.181640625 204.638671875 260.181640625 204.638671875 266.771484375 231.595703125 c 0,48,49
 291.461587155 329.75390625 291.461587155 329.75390625 411.300061037 403.0546875 c 1,50,51
 339.153117512 456.46484375 339.153117512 456.46484375 322.310407228 553.4296875 c 0,52,53
 318.098676725 577.677734375 318.098676725 577.677734375 318.098676725 601.233398438 c 0,54,55
 318.098676725 646.411132812 318.098676725 646.411132812 330.462211618 692.986328125 c 0,56,57
 377.141873721 870.13671875 377.141873721 870.13671875 509.303871056 966.568359375 c 128,-1,58
 641.465868391 1063 641.465868391 1063 839.61094166 1063 c 0,59,60
 922.516750757 1063 922.516750757 1063 981.399901994 1043 c 1,61,-1
 1352.69238281 1043 l 1,62,-1
 1313.609375 880.029296875 l 1,0,-1
592.793004827 538.8984375 m 0,63,64
 627.468182063 518 627.468182063 518 691.89712944 518 c 0,65,66
 792.22686763 518 792.22686763 518 850.109732873 571.19921875 c 0,67,68
 898.184530705 615.384765625 898.184530705 615.384765625 920.215040036 697.51171875 c 0,69,70
 931.298208856 738.876953125 931.298208856 738.876953125 931.298208856 770.67578125 c 0,71,72
 931.298208856 828.448242188 931.298208856 828.448242188 894.322373833 851.985351562 c 0,73,74
 862.873382164 872.00390625 862.873382164 872.00390625 801.537950841 872.00390625 c 0,75,76
 800.71561046 872.00390625 800.71561046 872.00390625 799.888005416 872 c 0,77,78
 698.447423306 872 698.447423306 872 639.070446667 815.9453125 c 0,79,80
 589.505749169 769.153320312 589.505749169 769.153320312 565.993763633 682.294921875 c 0,81,82
 556.216231269 645.611328125 556.216231269 645.611328125 556.216231269 616.375976562 c 128,-1,83
 556.216231269 587.141601562 556.216231269 587.141601562 565.878993977 568.21875 c 128,-1,84
 575.541756685 549.295898438 575.541756685 549.295898438 592.793004827 538.8984375 c 0,63,64
778.76196521 -9.4580078125 m 0,85,86
 735.574880627 -1 735.574880627 -1 661.707445191 -1 c 2,87,-1
 485.96035474 -1 l 2,88,89
 399.601979563 -1 399.601979563 -1 345.151674681 -33.4033203125 c 0,90,91
 278.408203125 -73.1826171875 278.408203125 -73.1826171875 257.24609375 -165.70703125 c 0,92,93
 252.7109375 -185.400390625 252.7109375 -185.400390625 252.7109375 -204.854492188 c 0,94,95
 252.7109375 -250.83984375 252.7109375 -250.83984375 298.72155761 -272.419921875 c 0,96,97
 346.842684478 -294 346.842684478 -294 436.363016331 -294 c 0,98,99
 678.244805013 -294 678.244805013 -294 772.852907314 -202.40234375 c 0,100,101
 822.303888088 -154.5234375 822.303888088 -154.5234375 832.202507704 -82.2255859375 c 0,102,103
 833.686089774 -71.392578125 833.686089774 -71.392578125 833.686089774 -58.97265625 c 0,104,105
 833.686089774 -34.2216796875 833.686089774 -34.2216796875 819.840025744 -23.8427734375 c 0,106,107
 808.391489303 -15.26171875 808.391489303 -15.26171875 778.76196521 -9.4580078125 c 0,85,86
EndSplineSet
EndChar
StartChar: h
Encoding: 104 104 75
Width: 1229
GlyphClass: 2
Flags: W
LayerCount: 2
Fore
SplineSet
989.517578125 657.51171875 m 2,0,1
 1001.1875 704.370117188 1001.1875 704.370117188 1001.1875 740.19921875 c 0,2,3
 1001.1875 803.8828125 1001.1875 803.8828125 963.985351562 829.982421875 c 0,4,5
 932.600585938 852 932.600585938 852 871.739257812 852 c 0,6,7
 727.258353567 852 727.258353567 852 632.24471021 754.505859375 c 0,8,9
 552.757065919 672.942382812 552.757065919 672.942382812 510.116342799 523.375976562 c 2,10,-1
 361.606445312 0 l 1,11,-1
 138 0 l 1,12,-1
 534.122279546 1556 l 1,13,-1
 790.862370537 1556 l 1,14,-1
 646.390645383 1015.06738281 l 1,15,-1
 629.344445961 960.852539062 l 1,16,17
 765.894537105 1063 765.894537105 1063 935.739257812 1063 c 0,18,19
 1063.73730469 1063 1063.73730469 1063 1137.30664062 1012.93945312 c 0,20,21
 1184.96972656 980.505859375 1184.96972656 980.505859375 1208.48632812 928.4921875 c 128,-1,22
 1232.00292969 876.478515625 1232.00292969 876.478515625 1232.00292969 808.125 c 0,23,24
 1232.00292969 745.55078125 1232.00292969 745.55078125 1212.96582031 667.534179688 c 2,25,-1
 1049.58886719 0 l 1,26,-1
 827.017578125 0 l 1,27,-1
 989.517578125 657.51171875 l 2,0,1
EndSplineSet
EndChar
StartChar: i
Encoding: 105 105 76
Width: 1229
GlyphClass: 2
Flags: W
LayerCount: 2
Fore
SplineSet
816.333007812 1502.71777344 m 0,0,1
 856.53125 1548 856.53125 1548 922.229492188 1548 c 0,2,3
 965.413085938 1548 965.413085938 1548 991.828125 1528.09082031 c 0,4,5
 1026.81640625 1501.71875 1026.81640625 1501.71875 1026.81640625 1447.72851562 c 0,6,7
 1026.81640625 1425.09667969 1026.81640625 1425.09667969 1020.4375 1397.12695312 c 0,8,9
 1006.70996094 1338.65722656 1006.70996094 1338.65722656 976.424804688 1304.57910156 c 0,10,11
 935.918945312 1259 935.918945312 1259 870.229492188 1259 c 0,12,13
 827.333984375 1259 827.333984375 1259 801.09375 1279.1171875 c 0,14,15
 765.231445312 1305.56542969 765.231445312 1305.56542969 765.231445312 1359.56542969 c 0,16,17
 765.231445312 1383.28710938 765.231445312 1383.28710938 772.28125 1411.23828125 c 0,18,19
 786.33203125 1468.921875 786.33203125 1468.921875 816.333007812 1502.71777344 c 0,0,1
882.905273438 801.954101562 m 1,20,-1
 765.114257812 326.552734375 l 2,21,22
 757.170898438 294.490234375 757.170898438 294.490234375 757.170898438 273.708007812 c 128,-1,23
 757.170898438 252.92578125 757.170898438 252.92578125 760.646484375 240.254882812 c 128,-1,24
 764.123046875 227.583984375 764.123046875 227.583984375 770.106445312 219.451171875 c 128,-1,25
 776.08984375 211.319335938 776.08984375 211.319335938 784.387695312 205.836914062 c 128,-1,26
 792.685546875 200.35546875 792.685546875 200.35546875 802.83984375 196.799804688 c 0,27,28
 825.111328125 189 825.111328125 189 865.188476562 189 c 0,29,30
 951.569335938 189 951.569335938 189 1038.359375 208.287109375 c 2,31,-1
 1084.60253906 218.5625 l 1,32,-1
 1039.53613281 19.3994140625 l 1,33,-1
 1024.12695312 13.7958984375 l 2,34,35
 931.1875 -20 931.1875 -20 810.612304688 -20 c 128,-1,36
 690.036132812 -20 690.036132812 -20 619.856445312 27.0615234375 c 0,37,38
 528.25390625 85.064453125 528.25390625 85.064453125 528.25390625 211.69921875 c 0,39,40
 528.25390625 263.168945312 528.25390625 263.168945312 543.654296875 326.109375 c 2,41,-1
 672.8984375 854.297851562 l 1,42,-1
 447 873.174804688 l 1,43,-1
 487.942382812 1043 l 1,44,-1
 941.463867188 1043 l 1,45,-1
 882.905273438 801.954101562 l 1,20,-1
EndSplineSet
EndChar
StartChar: j
Encoding: 106 106 77
Width: 1229
GlyphClass: 2
Flags: W
LayerCount: 2
Fore
SplineSet
987.333007812 1504.71777344 m 0,0,1
 1027.53125 1550 1027.53125 1550 1093.22949219 1550 c 0,2,3
 1136.41308594 1550 1136.41308594 1550 1162.828125 1530.09082031 c 0,4,5
 1197.81640625 1503.71875 1197.81640625 1503.71875 1197.81640625 1449.72851562 c 0,6,7
 1197.81640625 1427.09667969 1197.81640625 1427.09667969 1191.4375 1399.12695312 c 0,8,9
 1177.70996094 1340.65722656 1177.70996094 1340.65722656 1147.42480469 1306.57910156 c 0,10,11
 1106.91894531 1261 1106.91894531 1261 1041.22949219 1261 c 0,12,13
 998.333984375 1261 998.333984375 1261 972.09375 1281.1171875 c 0,14,15
 936.231043765 1307.56542969 936.231043765 1307.56542969 936.231043765 1361.56542969 c 0,16,17
 936.231043765 1385.28710938 936.231043765 1385.28710938 943.280802858 1413.23828125 c 0,18,19
 957.33203125 1470.921875 957.33203125 1470.921875 987.333007812 1504.71777344 c 0,0,1
91.1083984375 -246.666992188 m 2,20,21
 192.33203125 -282 192.33203125 -282 327.318255626 -282 c 0,22,23
 425.368263123 -282 425.368263123 -282 491.953002624 -233.946289062 c 0,24,25
 558.333602648 -186.0390625 558.333602648 -186.0390625 579.881539743 -99.23046875 c 2,26,-1
 833.770127266 855.048828125 l 1,27,-1
 444.273074955 874.046875 l 1,28,-1
 489.357973048 1046 l 1,29,-1
 1112.94238281 1046 l 1,30,-1
 822.268845034 -105.73828125 l 2,31,32
 775.914220773 -289.981445312 775.914220773 -289.981445312 636.046615599 -391.04296875 c 128,-1,33
 496.324366282 -492 496.324366282 -492 290.107156083 -492 c 0,34,35
 139.016601562 -492 139.016601562 -492 36.1494140625 -455.26171875 c 2,36,-1
 11 -446.279296875 l 1,37,-1
 59.50390625 -235.634765625 l 1,38,-1
 91.1083984375 -246.666992188 l 2,20,21
EndSplineSet
EndChar
StartChar: k
Encoding: 107 107 78
Width: 600
GlyphClass: 2
Flags: W
LayerCount: 2
Fore
SplineSet
199 0 m 1,0,-1
 91 0 l 1,1,-1
 283 760 l 1,2,-1
 406 760 l 1,3,-1
 310 393 l 1,4,-1
 282 303 l 1,5,-1
 323 340 l 1,6,-1
 551 536 l 1,7,-1
 688 536 l 1,8,-1
 403 299 l 1,9,-1
 561 0 l 1,10,-1
 439 0 l 1,11,-1
 305 240 l 1,12,-1
 254 212 l 1,13,-1
 199 0 l 1,0,-1
EndSplineSet
EndChar
StartChar: l
Encoding: 108 108 79
Width: 1229
GlyphClass: 2
Flags: W
LayerCount: 2
Fore
SplineSet
751.228515625 330.026367188 m 2,0,1
 743.284179688 297.155273438 743.284179688 297.155273438 743.284179688 271.775390625 c 0,2,3
 743.284179688 224.697265625 743.284179688 224.697265625 771.228515625 205.770507812 c 0,4,5
 795.989257812 189 795.989257812 189 843.684570312 189 c 0,6,7
 937.682617188 189 937.682617188 189 1024.47265625 208.287109375 c 2,8,-1
 1070.71582031 218.5625 l 1,9,-1
 1025.64941406 19.3994140625 l 1,10,-1
 1010.24121094 13.7958984375 l 2,11,12
 917.301757812 -20 917.301757812 -20 798 -20 c 0,13,14
 676.267578125 -20 676.267578125 -20 606.153320312 27.302734375 c 0,15,16
 514.733398438 86.3154296875 514.733398438 86.3154296875 514.733398438 215.106445312 c 0,17,18
 514.733398438 266.854492188 514.733398438 266.854492188 529.74609375 330.005859375 c 2,19,-1
 611.029296875 671.93359375 l 1,20,-1
 776.053710938 1356.33007812 l 1,21,-1
 552.092773438 1377.32714844 l 1,22,-1
 593.099609375 1556 l 1,23,-1
 1046.71386719 1556 l 1,24,-1
 751.228515625 330.026367188 l 2,0,1
EndSplineSet
EndChar
StartChar: m
Encoding: 109 109 80
Width: 1229
GlyphClass: 2
Flags: W
LayerCount: 2
Fore
SplineSet
1130.46679688 657.491210938 m 2,0,1
 1153.78710938 751.443359375 1153.78710938 751.443359375 1153.78710938 800.53125 c 0,2,3
 1153.78710938 833.890625 1153.78710938 833.890625 1142.13476562 844.899414062 c 0,4,5
 1134.62011719 852 1134.62011719 852 1117.69238281 852 c 0,6,7
 1088.80566406 852 1088.80566406 852 1064.06445312 837.69140625 c 0,8,9
 1025.22167969 815.2265625 1025.22167969 815.2265625 993.381835938 752.346679688 c 0,10,11
 953.4610254 680.685546875 953.4610254 680.685546875 911.864250828 556.076171875 c 2,12,-1
 728.563476562 -0 l 1,13,-1
 523.971679688 0 l 1,14,-1
 686.471679688 657.51171875 l 2,15,16
 705.50390625 733.934570312 705.50390625 733.934570312 705.50390625 782.596679688 c 0,17,18
 705.50390625 818.86328125 705.50390625 818.86328125 695.249023438 836.75390625 c 0,19,20
 690.255859375 845.462890625 690.255859375 845.462890625 683.11328125 848.731445312 c 128,-1,21
 675.970703125 852 675.970703125 852 665.692382812 852 c 0,22,23
 610.109375 852 610.109375 852 570.979492188 794.881835938 c 0,24,25
 549.581054688 763.646484375 549.581054688 763.646484375 524.86328125 694.486328125 c 0,26,27
 492.134026317 625.326171875 492.134026317 625.326171875 458.430248246 523.375976562 c 2,28,-1
 285.560546875 0 l 1,29,-1
 80 0 l 1,30,-1
 350.031892824 1043 l 1,31,-1
 562.5859375 1043 l 1,32,-1
 557.482421875 959.635742188 l 1,33,34
 642.290039062 1063 642.290039062 1063 747.417553458 1063 c 0,35,36
 873.896768774 1063 873.896768774 1063 933.007974745 993.544921875 c 0,37,38
 955.935720729 966.60546875 955.935720729 966.60546875 967.155903344 930.362304688 c 1,39,40
 1067.00878906 1063 1067.00878906 1063 1182.69238281 1063 c 0,41,42
 1239.36328125 1063 1239.36328125 1063 1279.26660156 1042.25292969 c 0,43,44
 1350.11328125 1006.03710938 1350.11328125 1006.03710938 1362.83007812 917.655273438 c 0,45,46
 1366.04296875 895.330078125 1366.04296875 895.330078125 1366.04296875 868.93359375 c 0,47,48
 1366.04296875 788.471679688 1366.04296875 788.471679688 1335.9296875 666.862304688 c 2,49,-1
 1173.57617188 -0 l 1,50,-1
 967.971679688 0 l 1,51,-1
 1130.46679688 657.491210938 l 2,0,1
EndSplineSet
EndChar
StartChar: n
Encoding: 110 110 81
Width: 1229
GlyphClass: 2
Flags: W
LayerCount: 2
Fore
SplineSet
612.138399154 1043 m 1,0,-1
 604.153984008 940.764648438 l 1,1,2
 748.042741474 1063 748.042741474 1063 935.727539062 1063 c 0,3,4
 1063.7265625 1063 1063.7265625 1063 1137.29492188 1012.93945312 c 0,5,6
 1184.95800781 980.505859375 1184.95800781 980.505859375 1208.47558594 928.4921875 c 128,-1,7
 1231.9921875 876.478515625 1231.9921875 876.478515625 1231.9921875 808.125 c 0,8,9
 1231.9921875 745.55078125 1231.9921875 745.55078125 1212.95507812 667.534179688 c 2,10,-1
 1049.578125 0 l 1,11,-1
 827.006835938 0 l 1,12,-1
 989.506835938 657.51171875 l 2,13,14
 1001.17578125 704.370117188 1001.17578125 704.370117188 1001.17578125 740.19921875 c 0,15,16
 1001.17578125 803.8828125 1001.17578125 803.8828125 963.973632812 829.982421875 c 0,17,18
 932.58984375 852 932.58984375 852 871.727539062 852 c 0,19,20
 727.24761138 852 727.24761138 852 632.233968022 754.505859375 c 0,21,22
 552.746323731 672.942382812 552.746323731 672.942382812 510.105600612 523.375976562 c 2,23,-1
 361.595703125 0 l 1,24,-1
 138 0 l 1,25,-1
 397.491938528 1043 l 1,26,-1
 612.138399154 1043 l 1,0,-1
EndSplineSet
EndChar
StartChar: o
Encoding: 111 111 82
Width: 600
GlyphClass: 2
Flags: W
LayerCount: 2
Fore
SplineSet
481 61 m 0,0,1
 393 -10 393 -10 278 -10 c 0,2,3
 228 -10 228 -10 193 6 c 0,4,5
 150 25 150 25 124 66 c 0,6,7
 96 111 96 111 96 173 c 0,8,9
 96 213 96 213 108 259 c 0,10,11
 137 378 137 378 215 449 c 0,12,13
 302 519 302 519 418 519 c 0,14,15
 468 519 468 519 503 503 c 0,16,17
 546 484 546 484 572 443 c 0,18,19
 600 398 600 398 600 337 c 0,20,21
 600 298 600 298 588 252 c 0,22,23
 559 132 559 132 481 61 c 0,0,1
225 118 m 0,24,25
 247 93 247 93 299 93 c 0,26,27
 372 93 372 93 418 142 c 0,28,29
 457 183 457 183 478 258 c 0,30,31
 489 300 489 300 489 332 c 0,32,33
 489 371 489 371 472 391 c 0,34,35
 450 416 450 416 397 416 c 0,36,37
 348 416 348 416 312 395 c 0,38,39
 248 357 248 357 219 252 c 0,40,41
 208 209 208 209 207 177 c 0,42,43
 208 139 208 139 225 118 c 0,24,25
EndSplineSet
Validated: 1
EndChar
StartChar: p
Encoding: 112 112 83
Width: 600
GlyphClass: 2
Flags: W
LayerCount: 2
Fore
SplineSet
516 61 m 0,0,1
 436 -9 436 -9 328 -10 c 0,2,3
 238 -10 238 -10 193 44 c 1,4,5
 187 11 187 11 184 -0 c 2,6,-1
 120 -240 l 1,7,-1
 11 -240 l 1,8,-1
 221 509 l 1,9,-1
 311 509 l 1,10,-1
 308 460 l 1,11,12
 432 520 432 520 468 520 c 0,13,14
 471 520 471 520 473 519 c 1,15,16
 519 519 519 519 550 504 c 0,17,18
 589 486 589 486 609 445 c 0,19,20
 627 408 627 408 627 355 c 0,21,22
 627 309 627 309 613 250 c 0,23,24
 583 130 583 130 516 61 c 0,0,1
257 252 m 2,25,26
 242 201 242 201 242 167 c 0,27,28
 242 141 242 141 250 125 c 0,29,30
 260 107 260 107 283 100 c 0,31,32
 303 93 303 93 332 93 c 0,33,34
 376 93 376 93 410 114 c 0,35,36
 471 152 471 152 502 259 c 0,37,38
 514 305 514 305 514.5 340 c 128,-1,39
 515 375 515 375 500 394 c 0,40,41
 481 416 481 416 435 416 c 0,42,43
 368 416 368 416 330 384 c 0,44,45
 293 350 293 350 271 270 c 1,46,-1
 257 252 l 2,25,26
EndSplineSet
Validated: 33
EndChar
StartChar: q
Encoding: 113 113 84
Width: 1229
GlyphClass: 2
Flags: W
LayerCount: 2
Fore
SplineSet
800.066782314 32.3095703125 m 0,0,1
 805.457896632 51.26171875 805.457896632 51.26171875 815.580888668 82.2900390625 c 1,2,3
 683.646459055 -20 683.646459055 -20 521.981856828 -20 c 0,4,5
 431.545898438 -20 431.545898438 -20 369.22265625 11.326171875 c 0,6,7
 289.83984375 49.07421875 289.83984375 49.07421875 248.76171875 132.977539062 c 0,8,9
 211.15234375 209.797851562 211.15234375 209.797851562 211.15234375 316.909179688 c 0,10,11
 211.15234375 410.325195312 211.15234375 410.325195312 239.758789062 527.29296875 c 0,12,13
 300.541992188 777.770507812 300.541992188 777.770507812 438.4921875 918.6171875 c 0,14,15
 592.357783612 1063 592.357783612 1063 797.291105862 1063 c 0,16,17
 893.419201699 1063 893.419201699 1063 962.813263857 1025.87988281 c 0,18,19
 1023.24471945 993.5546875 1023.24471945 993.5546875 1062.04826759 933.60546875 c 1,20,-1
 1109.58105469 1043 l 1,21,-1
 1298.73535156 1043 l 1,22,-1
 911.664892008 -492 l 1,23,-1
 666.55577708 -492 l 1,24,25
 797.55673627 23.4833984375 797.55673627 23.4833984375 800.066782314 32.3095703125 c 0,0,1
961.860435752 702.915039062 m 128,-1,27
 961.860435752 773.70703125 961.860435752 773.70703125 930.826845911 808.189453125 c 0,28,29
 891.399550255 852 891.399550255 852 790.683683885 852 c 0,30,31
 639.566867261 852 639.566867261 852 547.317835726 706.176757812 c 0,32,33
 498.522497615 629.04296875 498.522497615 629.04296875 466.074721592 512.0859375 c 0,34,35
 441.4765625 417.38671875 441.4765625 417.38671875 441.4765625 349.70703125 c 0,36,37
 441.4765625 275.28125 441.4765625 275.28125 471.248599706 236.213867188 c 0,38,39
 507.510914425 191 507.510914425 191 593.562261576 191 c 0,40,41
 722.311277143 191 722.311277143 191 796.740487364 257.822265625 c 0,42,43
 875.055214447 328.1328125 875.055214447 328.1328125 923.642995194 490.474609375 c 1,44,-1
 932.489455673 526.333984375 l 1,45,26
 961.860435752 632.124023438 961.860435752 632.124023438 961.860435752 702.915039062 c 128,-1,27
EndSplineSet
EndChar
StartChar: r
Encoding: 114 114 85
Width: 1229
GlyphClass: 2
Flags: W
LayerCount: 2
Fore
SplineSet
1215.62109375 797.546875 m 2,0,1
 1126.38183594 837 1126.38183594 837 1034.94417424 837 c 0,2,3
 882.697517384 837 882.697517384 837 777.307293593 762.401367188 c 0,4,5
 681.858398438 687.803710938 681.858398438 687.803710938 645.958007812 542.34765625 c 2,6,-1
 451.588867188 0 l 1,7,-1
 228 0 l 1,8,-1
 542.864257812 1043 l 1,9,-1
 732.927734375 1043 l 1,10,-1
 714.383789062 901.784179688 l 1,11,12
 788.361641067 971.252929688 788.361641067 971.252929688 863.915043506 1008.38867188 c 0,13,14
 975.022027469 1063 975.022027469 1063 1112.72753906 1063 c 0,15,16
 1219.54589844 1063 1219.54589844 1063 1319.65429688 1015.07617188 c 2,17,-1
 1346.87597656 1002.04394531 l 1,18,-1
 1242.09179688 785.84375 l 1,19,-1
 1215.62109375 797.546875 l 2,0,1
EndSplineSet
EndChar
StartChar: s
Encoding: 115 115 86
Width: 1229
GlyphClass: 2
Flags: W
LayerCount: 2
Fore
SplineSet
271.943359375 265.41015625 m 2,0,1
 413.30078125 189 413.30078125 189 573.800063181 189 c 0,2,3
 684.903821857 189 684.903821857 189 752.041562699 214.73828125 c 0,4,5
 829.198621405 244.317382812 829.198621405 244.317382812 847.877945617 310.372070312 c 0,6,7
 850.581258623 320.610351562 850.581258623 320.610351562 850.619533685 330.083984375 c 0,8,9
 850.619533685 354.309570312 850.619533685 354.309570312 831.323434176 373.610351562 c 0,10,11
 799.484049806 405.456054688 799.484049806 405.456054688 649.832928615 459.944335938 c 1,12,13
 532.560323391 503.85546875 532.560323391 503.85546875 466.625513094 544.36328125 c 0,14,15
 412.361328125 579.202148438 412.361328125 579.202148438 393.134765625 613.436523438 c 0,16,17
 366.971679688 660.020507812 366.971679688 660.020507812 366.971679688 716.581054688 c 0,18,19
 366.971679688 749.336914062 366.971679688 749.336914062 375.499023438 784.014648438 c 0,20,21
 408.258789062 914.813476562 408.258789062 914.813476562 544.432154294 989.759765625 c 0,22,23
 680.373147996 1063 680.373147996 1063 881.750282607 1063 c 0,24,25
 1073.54589844 1063 1073.54589844 1063 1212.34667969 985.1875 c 2,26,-1
 1239.27539062 970.090820312 l 1,27,-1
 1123.47363281 776.19140625 l 1,28,-1
 1098.86035156 787.88671875 l 2,29,30
 960.391320176 852 960.391320176 852 834.717885459 852 c 0,31,32
 691.975959886 852 691.975959886 852 637.890015453 804.40234375 c 0,33,34
 607.613347218 777.7578125 607.613347218 777.7578125 604.795209023 739.543945312 c 0,35,36
 604.612582295 737.059570312 604.612582295 737.059570312 604.612582295 734.702148438 c 0,37,38
 604.612582295 722.28515625 604.612582295 722.28515625 609.112636105 713.22265625 c 128,-1,39
 613.612689916 704.16015625 613.612689916 704.16015625 625.72291978 694.469726562 c 128,-1,40
 637.833149645 684.779296875 637.833149645 684.779296875 681.795886759 664.489257812 c 0,41,42
 720.937059535 646.42578125 720.937059535 646.42578125 813.501471371 612.926757812 c 0,43,44
 1007.33007812 541.100585938 1007.33007812 541.100585938 1055.75878906 467.666015625 c 0,45,46
 1088.6640625 417.770507812 1088.6640625 417.770507812 1088.6640625 354.05078125 c 0,47,48
 1088.6640625 321.424804688 1088.6640625 321.424804688 1079.93164062 285.192382812 c 0,49,50
 1044.25 141.540039062 1044.25 141.540039062 905.622986052 60.76953125 c 0,51,52
 760.917002972 -20 760.917002972 -20 542.445131749 -20 c 0,53,54
 305.96875 -20 305.96875 -20 203.10546875 54.7109375 c 2,55,-1
 187 66.4091796875 l 1,56,-1
 237.34375 284.112304688 l 1,57,-1
 271.943359375 265.41015625 l 2,0,1
EndSplineSet
EndChar
StartChar: t
Encoding: 116 116 87
Width: 1229
GlyphClass: 2
Flags: W
LayerCount: 2
Fore
SplineSet
984.276180264 13.009765625 m 2,0,1
 841.003236873 -20 841.003236873 -20 713.74093781 -20 c 0,2,3
 573.498046875 -20 573.498046875 -20 503.6015625 26.837890625 c 0,4,5
 457.911132812 55.7529296875 457.911132812 55.7529296875 435.125976562 102.623046875 c 128,-1,6
 412.33984375 149.4921875 412.33984375 149.4921875 412.33984375 210.677734375 c 0,7,8
 412.33984375 261.7890625 412.33984375 261.7890625 427.607421875 324.270507812 c 2,9,-1
 558.1015625 857.12890625 l 1,10,-1
 329 857.12890625 l 1,11,-1
 363.982421875 998.291015625 l 1,12,-1
 612.603172623 1046.19433594 l 1,13,-1
 784.643282185 1391 l 1,14,-1
 960.029068218 1391 l 1,15,-1
 866.277788078 1043 l 1,16,-1
 1261.65820312 1043 l 1,17,-1
 1215.64355469 846 l 1,18,-1
 814.255909842 846 l 1,19,-1
 660.768480549 322.083007812 l 2,20,21
 651.745326742 291.125976562 651.745326742 291.125976562 651.745326742 267.208984375 c 128,-1,22
 651.745326742 243.177734375 651.745326742 243.177734375 659.875546626 228.3984375 c 128,-1,23
 668.00576651 213.619140625 668.00576651 213.619140625 683.672800822 204.852539062 c 0,24,25
 712.0025424 189 712.0025424 189 768.139828755 189 c 0,26,27
 858.050362729 189 858.050362729 189 1005.88405091 208.650390625 c 2,28,-1
 1050.82714844 215.35546875 l 1,29,-1
 1004.55595298 17.681640625 l 1,30,-1
 984.276180264 13.009765625 l 2,0,1
EndSplineSet
EndChar
StartChar: u
Encoding: 117 117 88
Width: 1229
GlyphClass: 2
Flags: W
LayerCount: 2
Fore
SplineSet
831.572178842 101.772460938 m 1,0,1
 687.104221112 -20 687.104221112 -20 502 -20 c 0,2,3
 373.1875 -20 373.1875 -20 299.1640625 30.1337890625 c 0,4,5
 203.821289062 94.7060546875 203.821289062 94.7060546875 203.821289062 235.431640625 c 0,6,7
 203.821289062 297.80078125 203.821289062 297.80078125 222.763671875 375.427734375 c 2,8,-1
 385.116210938 1043 l 1,9,-1
 608.721679688 1043 l 1,10,11
 444.142578125 377.077148438 444.142578125 377.077148438 442.544921875 369.653320312 c 128,-1,12
 440.948242188 362.228515625 440.948242188 362.228515625 439.651367188 354.965820312 c 128,-1,13
 438.35546875 347.704101562 438.35546875 347.704101562 437.383789062 340.771484375 c 128,-1,14
 436.413085938 333.83984375 436.413085938 333.83984375 435.775390625 327.2734375 c 0,15,16
 434.50390625 314.174804688 434.50390625 314.174804688 434.50390625 302.5 c 0,17,18
 434.50390625 238.951171875 434.50390625 238.951171875 471.456054688 212.926757812 c 0,19,20
 502.591796875 191 502.591796875 191 563 191 c 0,21,22
 699.92264837 191 699.92264837 191 785.020458229 263.588867188 c 0,23,24
 873.766261991 339.288085938 873.766261991 339.288085938 924.48055217 518.7265625 c 2,25,-1
 1074.16601562 1043 l 1,26,-1
 1296.72753906 1043 l 1,27,-1
 1037.08405669 -0 l 1,28,-1
 823.569910714 -0 l 1,29,-1
 831.572178842 101.772460938 l 1,0,1
EndSplineSet
EndChar
StartChar: v
Encoding: 118 118 89
Width: 1229
GlyphClass: 2
Flags: W
LayerCount: 2
Fore
SplineSet
312 1043 m 1,0,-1
 532.595703125 1043 l 1,1,-1
 605.614578902 397.029296875 l 2,2,3
 618.121161446 284.928710938 618.121161446 284.928710938 621.966086874 206.48828125 c 1,4,5
 662.76676523 277.96484375 662.76676523 277.96484375 739.780241953 408.348632812 c 1,6,-1
 1134.91601562 1043 l 1,7,-1
 1366.23046875 1043 l 1,8,-1
 690.630272779 -0 l 1,9,-1
 433.615234375 0 l 1,10,-1
 312 1043 l 1,0,-1
EndSplineSet
EndChar
StartChar: w
Encoding: 119 119 90
Width: 1229
GlyphClass: 2
Flags: W
LayerCount: 2
Fore
SplineSet
400.125976562 0 m 1,0,-1
 187 0 l 1,1,-1
 239.875976562 1043 l 1,2,-1
 439.578125 1043 l 1,3,-1
 402.866001895 494.944335938 l 2,4,5
 396.984375 415.015625 396.984375 415.015625 388.735351562 331.309570312 c 1,6,7
 422.251798618 404.6484375 422.251798618 404.6484375 458.768628508 475.755859375 c 2,8,-1
 756.841796875 1043 l 1,9,-1
 972.473632812 1043 l 1,10,-1
 953.45703125 463.01171875 l 2,11,12
 951.158203125 392.126953125 951.158203125 392.126953125 947.543945312 325.620117188 c 1,13,14
 985.801757812 429.708007812 985.801757812 429.708007812 1017.59960938 508.10546875 c 2,15,-1
 1291.14257812 1043 l 1,16,-1
 1491.41503906 1043 l 1,17,-1
 973.505859375 0 l 1,18,-1
 755.44921875 0 l 1,19,-1
 775.501953125 597.356445312 l 1,20,-1
 782.353515625 751.001953125 l 1,21,-1
 702.949677846 580.385742188 l 1,22,-1
 400.125976562 0 l 1,0,-1
EndSplineSet
EndChar
StartChar: x
Encoding: 120 120 91
Width: 1229
GlyphClass: 2
Flags: W
LayerCount: 2
Fore
SplineSet
340.544921875 0 m 1,0,-1
 83 0 l 1,1,-1
 591.833984375 539.66015625 l 1,2,-1
 363.408203125 1043 l 1,3,-1
 606.1328125 1043 l 1,4,-1
 772.448440336 680.48828125 l 1,5,-1
 1129.29101562 1043 l 1,6,-1
 1386.06933594 1043 l 1,7,-1
 869.234152938 528.838867188 l 1,8,-1
 1139.48925781 -0 l 1,9,-1
 897.770507812 0 l 1,10,-1
 720.423453208 387.66796875 l 1,11,-1
 340.544921875 0 l 1,0,-1
EndSplineSet
EndChar
StartChar: y
Encoding: 121 121 92
Width: 1229
GlyphClass: 2
Flags: W
LayerCount: 2
Fore
SplineSet
460.604492188 13.1162109375 m 1,0,-1
 313.377929688 1043 l 1,1,-1
 534.176757812 1043 l 1,2,3
 628.914665194 363.756835938 628.914665194 363.756835938 631.325489376 344.5703125 c 128,-1,4
 633.736313559 325.384765625 633.736313559 325.384765625 635.794678066 306.346679688 c 0,5,6
 639.913576061 268.233398438 639.913576061 268.233398438 641.988207938 235.520507812 c 1,7,8
 682.860516435 308.8671875 682.860516435 308.8671875 739.952476967 400.55859375 c 2,9,-1
 1137.06933594 1043 l 1,10,-1
 1368.34277344 1043 l 1,11,-1
 607.022039116 -139.852539062 l 2,12,13
 501.305664062 -312.168945312 501.305664062 -312.168945312 402.071289062 -399.97265625 c 0,14,15
 298.064453125 -492 298.064453125 -492 151.706054688 -492 c 0,16,17
 73.8251953125 -492 73.8251953125 -492 5.1044921875 -474.02734375 c 2,18,-1
 -23 -466.676757812 l 1,19,-1
 23.1865234375 -263.737304688 l 1,20,-1
 52.72265625 -270.826171875 l 2,21,22
 99.2783203125 -282 99.2783203125 -282 159.706054688 -282 c 0,23,24
 231.983398438 -282 231.983398438 -282 278.626953125 -248.193359375 c 0,25,26
 328.094726562 -212.340820312 328.094726562 -212.340820312 382.850585938 -121.78125 c 1,27,-1
 460.604492188 13.1162109375 l 1,0,-1
EndSplineSet
EndChar
StartChar: z
Encoding: 122 122 93
Width: 600
GlyphClass: 2
Flags: W
LayerCount: 2
Fore
SplineSet
496 0 m 1,0,-1
 77 0 l 1,1,-1
 96 78 l 1,2,-1
 465 418 l 1,3,-1
 193 418 l 1,4,-1
 217 509 l 1,5,-1
 613 509 l 1,6,-1
 591 422 l 1,7,-1
 230 91 l 1,8,-1
 518 91 l 1,9,-1
 496 0 l 1,0,-1
EndSplineSet
EndChar
StartChar: braceleft
Encoding: 123 123 94
Width: 600
GlyphClass: 2
Flags: W
LayerCount: 2
Fore
SplineSet
359 -11 m 2,0,1
 356 -21 356 -21 356 -28.5 c 128,-1,2
 356 -36 356 -36 358 -41 c 0,3,4
 360 -50 360 -50 367 -55 c 0,5,6
 386 -70 386 -70 453 -70 c 2,7,-1
 473 -71 l 1,8,-1
 447 -173 l 1,9,-1
 434 -173 l 2,10,11
 281 -171 281 -171 243 -104 c 0,12,13
 231 -81 231 -81 231 -52 c 0,14,15
 231 -33 231 -33 236 -12 c 2,16,-1
 275 151 l 2,17,18
 278 161 278 161 278 170 c 0,19,20
 278 189 278 189 263 201 c 0,21,22
 235 225 235 225 155 226 c 2,23,-1
 137 226 l 1,24,-1
 161 331 l 1,25,-1
 173 331 l 2,26,27
 275 331 275 331 318 370 c 0,28,29
 336 387 336 387 342 412 c 2,30,-1
 384 574 l 2,31,32
 406 659 406 659 490 697 c 0,33,34
 554 727 554 727 646 729 c 2,35,-1
 665 729 l 1,36,-1
 642 627 l 1,37,-1
 630 626 l 2,38,39
 569 625 569 625 542 609 c 0,40,41
 528 601 528 601 519 589.5 c 128,-1,42
 510 578 510 578 506 561 c 2,43,-1
 464 399 l 2,44,45
 441 308 441 308 345 277 c 1,46,47
 394 256 394 256 404 210 c 0,48,49
 406 200 406 200 406 189 c 0,50,51
 406 171 406 171 400 151 c 2,52,-1
 359 -11 l 2,0,1
EndSplineSet
EndChar
StartChar: braceright
Encoding: 125 125 96
Width: 600
GlyphClass: 2
Flags: W
LayerCount: 2
Fore
SplineSet
305 367 m 0,0,1
 305 385 305 385 310 405 c 2,2,-1
 352 567 l 2,3,4
 355 577 355 577 354 586 c 0,5,6
 354 602 354 602 343 611 c 0,7,8
 335 617 335 617 319 621 c 0,9,10
 296 626 296 626 258 626 c 2,11,-1
 238 627 l 1,12,-1
 264 729 l 1,13,-1
 277 729 l 2,14,15
 430 727 430 727 468 659 c 0,16,17
 480 636 480 636 481 607 c 0,18,19
 481 588 481 588 476 567 c 2,20,-1
 436 405 l 2,21,22
 433 395 433 395 433.5 388.5 c 128,-1,23
 434 382 434 382 435 377.5 c 128,-1,24
 436 373 436 373 437 369 c 0,25,26
 447 348 447 348 485 338 c 0,27,28
 513 331 513 331 556 331 c 2,29,-1
 575 331 l 1,30,-1
 550 226 l 1,31,-1
 539 226 l 2,32,33
 406 226 406 226 375 160 c 0,34,35
 372 153 372 153 369 145 c 2,36,-1
 328 -18 l 2,37,38
 312 -81 312 -81 260 -119 c 0,39,40
 190 -171 190 -171 65 -173 c 2,41,-1
 46 -173 l 1,42,-1
 69 -70 l 1,43,-1
 81 -70 l 2,44,45
 142 -70 142 -70 169 -53 c 0,46,47
 197 -38 197 -38 205 -5 c 2,48,-1
 246 157 l 2,49,50
 262 218 262 218 311 253 c 0,51,52
 335 269 335 269 366 279 c 1,53,54
 351 286 351 286 339 295 c 0,55,56
 305 322 305 322 305 367 c 0,0,1
EndSplineSet
Validated: 1
EndChar
StartChar: asciitilde
Encoding: 126 126 97
Width: 600
GlyphClass: 2
Flags: W
LayerCount: 2
Fore
SplineSet
282 433 m 0,0,1
 336 433 336 433 407 400 c 0,2,3
 462 374 462 374 494 375 c 0,4,5
 517 375 517 375 544 388.5 c 128,-1,6
 571 402 571 402 603 430 c 2,7,-1
 637 460 l 1,8,-1
 607 332 l 1,9,-1
 604 329 l 2,10,11
 543 272 543 272 464 272 c 0,12,13
 409 272 409 272 340 305 c 0,14,15
 312 318 312 318 290 324.5 c 128,-1,16
 268 331 268 331 253 331 c 0,17,18
 207 331 207 331 143 275 c 2,19,-1
 109 246 l 1,20,-1
 139 373 l 1,21,-1
 142 376 l 2,22,23
 204 433 204 433 282 433 c 0,0,1
EndSplineSet
Validated: 33
EndChar
StartChar: exclamdown
Encoding: 161 161 99
Width: 600
GlyphClass: 2
Flags: W
LayerCount: 2
Fore
SplineSet
369 396 m 0,0,1
 344 396 344 396 329 407 c 0,2,3
 319 415 319 415 314 426.5 c 128,-1,4
 309 438 309 438 309 451.5 c 128,-1,5
 309 465 309 465 312 481 c 0,6,7
 325 537 325 537 365 554 c 0,8,9
 381 560 381 560 400 561 c 0,10,11
 425 561 425 561 440 549 c 0,12,13
 460 534 460 534 460 504 c 0,14,15
 460 491 460 491 456 475 c 0,16,17
 448 441 448 441 431 421 c 0,18,19
 407 396 407 396 369 396 c 0,0,1
395 345 m 1,20,-1
 294 -197 l 1,21,-1
 162 -197 l 1,22,-1
 312 345 l 1,23,-1
 395 345 l 1,20,-1
EndSplineSet
Validated: 1
EndChar
StartChar: cent
Encoding: 162 162 100
Width: 1229
GlyphClass: 2
Flags: W
LayerCount: 2
Fore
SplineSet
918.304925296 1513 m 1,0,-1
 1127.33464931 1513 l 1,1,-1
 1084.82145062 1347.47123291 l 1,2,3
 1224.77052177 1338.93272473 1224.77052177 1338.93272473 1345.69537611 1287.63127138 c 2,4,-1
 1377.35564484 1274.19964221 l 1,5,-1
 1252.06787785 1063.60956577 l 1,6,-1
 1227.65967926 1074.6513699 l 2,7,8
 1104.91000509 1129 1104.91000509 1129 990.164061054 1129 c 0,9,10
 792.531216452 1129 792.531216452 1129 675.187994725 1011.18384222 c 0,11,12
 579.107111787 914.715718218 579.107111787 914.715718218 533.737610161 738.200333707 c 0,13,14
 512.498839907 653.211087513 512.498839907 653.211087513 512.498839907 587.605498463 c 0,15,16
 512.498839907 465.021351334 512.498839907 465.021351334 588.719626195 412.903849347 c 0,17,18
 651.981066077 370 651.981066077 370 770.693767811 370 c 0,19,20
 922.288026743 370 922.288026743 370 1105.30610478 429.246725214 c 2,21,-1
 1159.70799243 447.844563132 l 1,22,-1
 1104.23256488 220.953462662 l 1,23,-1
 1089.49497 214.776651117 l 2,24,25
 952.564287405 157.386349114 952.564287405 157.386349114 778.511903401 150.715572887 c 1,26,-1
 727.341427153 -50 l 1,27,-1
 518.390504117 -50 l 1,28,-1
 572.19483439 162.753169473 l 1,29,30
 411.239836851 198.842581599 411.239836851 198.842581599 337.17959026 305.899485862 c 0,31,32
 272.512974052 399.377540001 272.512974052 399.377540001 272.512974052 544.179768208 c 0,33,34
 272.512974052 636.383752796 272.512974052 636.383752796 298.766788128 749.763056064 c 0,35,36
 350.993564402 976.079086583 350.993564402 976.079086583 466.708998969 1118.07948233 c 0,37,38
 616.561585684 1290.1718409 616.561585684 1290.1718409 872.898441126 1336.8527864 c 1,39,-1
 918.304925296 1513 l 1,0,-1
EndSplineSet
EndChar
StartChar: sterling
Encoding: 163 163 101
Width: 1229
GlyphClass: 2
Flags: W
LayerCount: 2
Fore
SplineSet
1029.35331318 1299 m 0,0,1
 919.935623075 1299 919.935623075 1299 855.636902727 1232.95738912 c 0,2,3
 802.127254869 1177.99646871 802.127254869 1177.99646871 776.736816063 1076.15083495 c 2,4,-1
 711.770438505 818 l 1,5,-1
 1089.41261774 818 l 1,6,-1
 1039.90367179 621 l 1,7,-1
 663.358315341 621 l 1,8,-1
 616.451321486 433.269392801 l 2,9,10
 579.272027347 282.762408142 579.272027347 282.762408142 478.521602442 196 c 1,11,-1
 1165.61992578 196 l 1,12,-1
 1109.95623605 -30 l 1,13,-1
 70.1727033339 -30 l 1,14,-1
 118.957612811 178.69100165 l 1,15,-1
 136.745220946 183.115330578 l 2,16,17
 236.083983371 207.823956765 236.083983371 207.823956765 294.989734387 284.156456427 c 0,18,19
 345.297076007 346.661098838 345.297076007 346.661098838 369.578556401 444.872344802 c 2,20,-1
 414.062778168 621 l 1,21,-1
 222.179688437 621 l 1,22,-1
 268.194286977 818 l 1,23,-1
 462.489715474 818 l 1,24,-1
 537.407242502 1118.80087983 l 2,25,26
 581.8680459 1296.80659153 581.8680459 1296.80659153 724.041911761 1403.90329577 c 128,-1,27
 866.215777622 1511 866.215777622 1511 1058.40369247 1511 c 0,28,29
 1253.77576657 1511 1253.77576657 1511 1386.14027107 1426.28671712 c 2,30,-1
 1411.79042066 1409.87062138 l 1,31,-1
 1283.9086275 1216.02874543 l 1,32,-1
 1259.11188931 1231.55365978 l 2,33,34
 1150.27293032 1299 1150.27293032 1299 1029.35331318 1299 c 0,0,1
EndSplineSet
EndChar
StartChar: currency
Encoding: 164 164 102
Width: 1229
GlyphClass: 2
Flags: W
LayerCount: 2
Fore
SplineSet
360.627929688 519.079101562 m 1,0,1
 343.298828125 570.923828125 343.298828125 570.923828125 343.298828125 628.389648438 c 0,2,3
 343.298828125 677.162109375 343.298828125 677.162109375 355.85546875 731.150390625 c 0,4,5
 381.359375 840.807617188 381.359375 840.807617188 456.697265625 937.318359375 c 1,6,-1
 363.885742188 1070.0703125 l 1,7,-1
 531.241210938 1207.61035156 l 1,8,-1
 632.051757812 1074.03808594 l 1,9,10
 747.80859375 1132 747.80859375 1132 861.537109375 1132 c 128,-1,11
 975.266601562 1132 975.266601562 1132 1061.91113281 1073.16015625 c 1,12,-1
 1219.08691406 1206.93652344 l 1,13,-1
 1324.54589844 1062.30761719 l 1,14,-1
 1169.13574219 928.655273438 l 1,15,16
 1187.40039062 872.1640625 1187.40039062 872.1640625 1187.40039062 812.120117188 c 0,17,18
 1187.40039062 708.393554688 1187.40039062 708.393554688 1136.78710938 605.674804688 c 0,19,20
 1110.88867188 553.114257812 1110.88867188 553.114257812 1072.21191406 506.267578125 c 1,21,-1
 1164.24902344 375.8359375 l 1,22,-1
 997.661132812 240.936523438 l 1,23,-1
 894.700195312 372.258789062 l 1,24,25
 781.563476562 316 781.563476562 316 665.557617188 316 c 128,-1,26
 549.552734375 316 549.552734375 316 464.249023438 374.646484375 c 1,27,-1
 310.4375 242.555664062 l 1,28,-1
 208.920898438 388.012695312 l 1,29,-1
 360.627929688 519.079101562 l 1,0,1
635.4921875 524.413085938 m 0,30,31
 664.94140625 513 664.94140625 513 706.544921875 513 c 128,-1,32
 748.1484375 513 748.1484375 513 791.189453125 528.473632812 c 128,-1,33
 834.23046875 543.948242188 834.23046875 543.948242188 876.200195312 575.94140625 c 0,34,35
 959.534179688 639.465820312 959.534179688 639.465820312 982.505859375 729.7421875 c 0,36,37
 989.735351562 758.4375 989.735351562 758.4375 989.735351562 780.296875 c 128,-1,38
 989.735351562 802.15625 989.735351562 802.15625 986.229492188 818.552734375 c 0,39,40
 979.305664062 850.93359375 979.305664062 850.93359375 958.2265625 878.453125 c 0,41,42
 913.3828125 937 913.3828125 937 825.395507812 937 c 128,-1,43
 737.407226562 937 737.407226562 937 655.963867188 872.870117188 c 128,-1,44
 574.520507812 808.740234375 574.520507812 808.740234375 550.407226562 716.112304688 c 0,45,46
 543.21484375 687.848632812 543.21484375 687.848632812 543.21484375 666.33984375 c 128,-1,47
 543.21484375 644.831054688 543.21484375 644.831054688 546.700195312 628.76953125 c 0,48,49
 553.578125 597.078125 553.578125 597.078125 574.533203125 570.29296875 c 0,50,51
 599.51953125 538.35546875 599.51953125 538.35546875 635.4921875 524.413085938 c 0,30,31
EndSplineSet
EndChar
StartChar: yen
Encoding: 165 165 103
Width: 600
GlyphClass: 2
Flags: W
LayerCount: 2
Fore
SplineSet
304 729 m 1,0,-1
 377 391 l 1,1,-1
 620 729 l 1,2,-1
 743 729 l 1,3,-1
 470 354 l 1,4,-1
 577 354 l 1,5,-1
 554 257 l 1,6,-1
 405 257 l 1,7,-1
 393 209 l 1,8,-1
 542 209 l 1,9,-1
 518 113 l 1,10,-1
 370 113 l 1,11,-1
 337 -15 l 1,12,-1
 219 -15 l 1,13,-1
 250 113 l 1,14,-1
 111 113 l 1,15,-1
 134 209 l 1,16,-1
 274 209 l 1,17,-1
 285 257 l 1,18,-1
 145 257 l 1,19,-1
 167 354 l 1,20,-1
 270 354 l 1,21,-1
 181 729 l 1,22,-1
 304 729 l 1,0,-1
EndSplineSet
EndChar
StartChar: brokenbar
Encoding: 166 166 104
Width: 600
GlyphClass: 2
Flags: W
LayerCount: 2
Fore
SplineSet
530 774 m 1,0,-1
 435 364 l 1,1,-1
 316 364 l 1,2,-1
 433 774 l 1,3,-1
 530 774 l 1,0,-1
381 156 m 1,4,-1
 263 -255 l 1,5,-1
 166 -255 l 1,6,-1
 260 156 l 1,7,-1
 381 156 l 1,4,-1
EndSplineSet
EndChar
StartChar: section
Encoding: 167 167 105
Width: 1229
GlyphClass: 2
Flags: W
LayerCount: 2
Fore
SplineSet
997.213867188 510.9609375 m 1,0,1
 1073.15332031 445.471679688 1073.15332031 445.471679688 1073.15332031 350.040039062 c 0,2,3
 1073.15332031 317.720703125 1073.15332031 317.720703125 1064.24804688 282.206054688 c 0,4,5
 1045.26660156 207.91015625 1045.26660156 207.91015625 999.1171875 148.286132812 c 128,-1,6
 952.96875 88.6630859375 952.96875 88.6630859375 881.146484375 45.47265625 c 0,7,8
 739.010742188 -40 739.010742188 -40 527.432617188 -40 c 0,9,10
 320.723632812 -40 320.723632812 -40 218.088867188 30.2236328125 c 2,11,-1
 201.211914062 41.771484375 l 1,12,-1
 250.837890625 259.576171875 l 1,13,-1
 286.129882812 238.905273438 l 2,14,15
 419.139648438 161 419.139648438 161 563.791015625 161 c 0,16,17
 719.297851562 161 719.297851562 161 778.765625 218.850585938 c 0,18,19
 807.37890625 246.685546875 807.37890625 246.685546875 814.465820312 287.860351562 c 0,20,21
 815.971679688 296.608398438 815.971679688 296.608398438 815.971679688 304.55078125 c 0,22,23
 815.971679688 330.828125 815.971679688 330.828125 799.165039062 350.833984375 c 0,24,25
 787.51953125 364.6953125 787.51953125 364.6953125 750.306640625 387.604492188 c 128,-1,26
 713.09375 410.512695312 713.09375 410.512695312 637.463867188 444.024414062 c 0,27,-1
 636.8984375 444.28125 l 1,28,29
 490.159179688 512.497070312 490.159179688 512.497070312 432.596679688 577.670898438 c 0,30,31
 416.584960938 597.149414062 416.584960938 597.149414062 407.229492188 617.48828125 c 0,32,33
 384.154296875 667.653320312 384.154296875 667.653320312 384.154296875 728.547851562 c 0,34,35
 384.154296875 769.7734375 384.154296875 769.7734375 394.755859375 815.715820312 c 0,36,37
 433.271484375 983.87109375 433.271484375 983.87109375 589.224609375 1070.93359375 c 1,38,39
 505.609375 1137.60351562 505.609375 1137.60351562 505.609375 1238.91210938 c 0,40,41
 505.609375 1272.60839844 505.609375 1272.60839844 515.07421875 1309.83398438 c 0,42,43
 548.98046875 1441.72265625 548.98046875 1441.72265625 684.888671875 1520.31933594 c 0,44,45
 817.483398438 1597 817.483398438 1597 1004.50292969 1597 c 0,46,47
 1171.45507812 1597 1171.45507812 1597 1314.00585938 1521.53222656 c 2,48,-1
 1342.24609375 1506.58105469 l 1,49,-1
 1226.04394531 1316.55566406 l 1,50,-1
 1201.28613281 1329.31542969 l 2,51,52
 1075.80957031 1393 1075.80957031 1393 961.533203125 1393 c 0,53,54
 807.262695312 1393 807.262695312 1393 768.310546875 1326.01855469 c 0,55,56
 761.659179688 1314.58105469 761.659179688 1314.58105469 758.61328125 1302.48730469 c 128,-1,57
 755.568359375 1290.39355469 755.568359375 1290.39355469 755.568359375 1281.45019531 c 128,-1,58
 755.568359375 1272.56152344 755.568359375 1272.56152344 757.775390625 1264.76367188 c 0,59,60
 762.225585938 1249.03808594 762.225585938 1249.03808594 778.059570312 1233.890625 c 128,-1,61
 793.892578125 1218.7421875 793.892578125 1218.7421875 836.810546875 1194.34277344 c 128,-1,62
 879.727539062 1169.94335938 879.727539062 1169.94335938 943.92578125 1141.03320312 c 0,63,64
 1097.52636719 1075.44726562 1097.52636719 1075.44726562 1152.65332031 990.84765625 c 0,65,66
 1190.83691406 932.249023438 1190.83691406 932.249023438 1190.83691406 856.709960938 c 0,67,68
 1190.83691406 818.974609375 1190.83691406 818.974609375 1181.23339844 777.237304688 c 0,69,70
 1141.56347656 605.333007812 1141.56347656 605.333007812 997.213867188 510.9609375 c 1,0,1
612.241210938 789.5390625 m 0,71,72
 612.241210938 752.250976562 612.241210938 752.250976562 636.986328125 722.58203125 c 0,73,74
 676.951171875 674.665039062 676.951171875 674.665039062 807.959960938 614.736328125 c 0,75,-1
 823.216796875 607.57421875 l 1,76,77
 933.94140625 674.030273438 933.94140625 674.030273438 956.859375 764.724609375 c 0,78,79
 962.375976562 785.943359375 962.375976562 785.943359375 962.375976562 799.83984375 c 128,-1,80
 962.375976562 813.735351562 962.375976562 813.735351562 961.03125 822.294921875 c 128,-1,81
 959.685546875 830.854492188 959.685546875 830.854492188 956.971679688 838.75 c 128,-1,82
 954.2578125 846.645507812 954.2578125 846.645507812 950.09765625 853.958984375 c 0,83,84
 930.374023438 888.625 930.374023438 888.625 860.575195312 928.360351562 c 0,85,86
 819.62890625 951.670898438 819.62890625 951.670898438 764.538085938 973.659179688 c 1,87,88
 713.065429688 955.19140625 713.065429688 955.19140625 678.973632812 925.930664062 c 0,89,90
 632.478515625 886.025390625 632.478515625 886.025390625 616.950195312 824.303710938 c 0,91,92
 612.241210938 805.948242188 612.241210938 805.948242188 612.241210938 789.5390625 c 0,71,72
EndSplineSet
EndChar
StartChar: dieresis
Encoding: 168 168 106
Width: 1229
GlyphClass: 2
Flags: W
LayerCount: 2
Fore
SplineSet
735 1527 m 0,0,1
 776.196538549 1527 776.196538549 1527 801.534071995 1508.53979706 c 0,2,3
 835.723214286 1483.63056482 835.723214286 1483.63056482 835.723214286 1432.59135842 c 0,4,5
 835.723214286 1412.58566137 835.723214286 1412.58566137 829.924955258 1387.30758955 c 0,6,7
 817.89195336 1334.8485523 817.89195336 1334.8485523 788.860030568 1303.43796357 c 0,8,9
 750.560087543 1262 750.560087543 1262 688 1262 c 0,10,11
 646.726455277 1262 646.726455277 1262 621.35286817 1280.66771051 c 0,12,13
 587.276785714 1305.73797118 587.276785714 1305.73797118 587.276785714 1357.04009885 c 0,14,15
 587.276785714 1377.81746677 587.276785714 1377.81746677 592.795791129 1401.88751617 c 0,16,17
 605.281385141 1454.95129073 605.281385141 1454.95129073 634.240012916 1485.97839191 c 0,18,19
 672.52684713 1527 672.52684713 1527 735 1527 c 0,0,1
1084 1527 m 0,20,21
 1125.19653855 1527 1125.19653855 1527 1150.53407199 1508.53979706 c 0,22,23
 1167.98827753 1495.8231616 1167.98827753 1495.8231616 1176.35574591 1476.0025584 c 128,-1,24
 1184.72321429 1456.1819552 1184.72321429 1456.1819552 1184.72321429 1432.59135842 c 0,25,26
 1184.72321429 1412.58566137 1184.72321429 1412.58566137 1179.21891018 1388.17526927 c 0,27,28
 1161.13734662 1310.57522564 1161.13734662 1310.57522564 1109.07604028 1280.33380675 c 0,29,30
 1077.51396533 1262 1077.51396533 1262 1037 1262 c 0,31,32
 995.726455277 1262 995.726455277 1262 970.35286817 1280.66771051 c 0,33,34
 936.276785714 1305.73797118 936.276785714 1305.73797118 936.276785714 1357.04009885 c 0,35,36
 936.276785714 1377.81746677 936.276785714 1377.81746677 941.795791129 1401.88751617 c 0,37,38
 954.281385141 1454.95129073 954.281385141 1454.95129073 983.240012916 1485.97839191 c 0,39,40
 1021.52684713 1527 1021.52684713 1527 1084 1527 c 0,20,21
EndSplineSet
EndChar
StartChar: copyright
Encoding: 169 169 107
Width: 1229
GlyphClass: 2
Flags: W
LayerCount: 2
Fore
SplineSet
956.498980772 1513 m 0,0,1
 1176.78343948 1513 1176.78343948 1513 1293.1577657 1397.9257087 c 0,2,3
 1368.02032356 1323.54109355 1368.02032356 1323.54109355 1403.12873644 1205.61510456 c 0,4,5
 1430.29120879 1114.37881238 1430.29120879 1114.37881238 1430.29120879 1003.25950972 c 0,6,7
 1430.29120879 876.894774748 1430.29120879 876.894774748 1395.22611008 724.206243644 c 0,8,9
 1313.34492218 371.093620835 1313.34492218 371.093620835 1104.18653787 162.086434581 c 0,10,11
 881.750201902 -50 881.750201902 -50 582.430380802 -50 c 0,12,13
 447.786477932 -50 447.786477932 -50 349.166024546 -6.99213974851 c 0,14,15
 232.322643815 47.6690739957 232.322643815 47.6690739957 170.68917581 170.034056816 c 0,16,17
 109.614325069 291.289979994 109.614325069 291.289979994 109.614325069 458.158056903 c 0,18,19
 109.614325069 584.694151093 109.614325069 584.694151093 144.763938967 737.750697688 c 0,20,21
 225.615831381 1088.7911926 225.615831381 1088.7911926 433.524055584 1299.27851717 c 0,22,23
 654.904472255 1513 654.904472255 1513 956.498980772 1513 c 0,0,1
609.38056812 118 m 0,24,25
 835.813221903 118 835.813221903 118 999.247749242 279.053949167 c 0,26,27
 1166.272725 443.646048484 1166.272725 443.646048484 1235.77327738 737.791114214 c 0,28,29
 1267.23684211 873.533922038 1267.23684211 873.533922038 1267.23684211 981.268784626 c 0,30,31
 1267.23684211 1104.6733846 1267.23684211 1104.6733846 1225.94746691 1190.52507327 c 0,32,33
 1149.60836901 1344 1149.60836901 1344 929.548793454 1344 c 0,34,35
 703.174145757 1344 703.174145757 1344 540.287900894 1182.51255638 c 0,36,37
 373.775061355 1017.42966182 373.775061355 1017.42966182 305.242932729 724.27920809 c 0,38,39
 274.153846154 588.658699985 274.153846154 588.658699985 274.153846154 480.846153846 c 0,40,41
 274.153846154 357.793186467 274.153846154 357.793186467 314.477165388 272.137440019 c 128,-1,42
 354.800484622 186.481693571 354.800484622 186.481693571 439.909566273 148.882215239 c 0,43,44
 509.850413913 118 509.850413913 118 609.38056812 118 c 0,24,25
755.775431937 245.327228719 m 128,-1,46
 725.004682122 242 725.004682122 242 686.646357916 242 c 128,-1,47
 648.28803371 242 648.28803371 242 607.760159509 248.604012389 c 0,48,49
 515.154333555 263.69412096 515.154333555 263.69412096 453.993584911 314.060660707 c 0,50,51
 419.629108794 342.360179444 419.629108794 342.360179444 396.297940492 380.819079594 c 0,52,53
 349.079497908 459.462992526 349.079497908 459.462992526 349.079497908 569.764062254 c 0,54,55
 349.079497908 646.94100749 349.079497908 646.94100749 371.959963653 739.732626315 c 0,56,57
 425.89247177 957.570749597 425.89247177 957.570749597 573.733338992 1086.83169314 c 0,58,59
 723.755733273 1218 723.755733273 1218 928.470785962 1218 c 0,60,61
 1065.73575614 1218 1065.73575614 1218 1184.43226784 1151.72180976 c 2,62,-1
 1211.58254823 1135.38323221 l 1,63,-1
 1084.69056466 958.665318431 l 1,64,-1
 1058.47554669 973.256136108 l 2,65,66
 969.101783373 1023 969.101783373 1023 895.052553688 1023 c 0,67,68
 840.576499765 1023 840.576499765 1023 795.042245219 1004.28672429 c 128,-1,69
 749.507990672 985.573448579 749.507990672 985.573448579 710.613084742 947.012556383 c 0,70,71
 630.312261906 867.401324563 630.312261906 867.401324563 594.530049091 724.1975986 c 0,72,73
 575.74254791 649.141065473 575.74254791 649.141065473 575.74254791 593.232538411 c 0,74,75
 575.74254791 521.062950645 575.74254791 521.062950645 606.832533586 483.379314793 c 0,76,77
 644.271655767 438 644.271655767 438 733.370208347 438 c 128,-1,78
 822.468760928 438 822.468760928 438 949.711864396 481.183702564 c 2,79,-1
 1005.63770275 500.163786383 l 1,80,-1
 956.412529613 300.768212456 l 1,81,82
 910.445563792 281.560701748 910.445563792 281.560701748 879.405467959 271.726796233 c 128,-1,83
 848.365372126 261.892890718 848.365372126 261.892890718 817.455776939 255.273674078 c 128,-1,45
 786.546181751 248.654457438 786.546181751 248.654457438 755.775431937 245.327228719 c 128,-1,46
EndSplineSet
EndChar
StartChar: ordfeminine
Encoding: 170 170 108
Width: 600
GlyphClass: 2
Flags: W
LayerCount: 2
Fore
SplineSet
512 622 m 0,0,1
 505 636 505 636 465 636 c 0,2,3
 406 636 406 636 331 612 c 2,4,-1
 313 605 l 1,5,-1
 303 689 l 1,6,-1
 314 693 l 2,7,8
 395 722 395 722 488 722 c 0,9,10
 561 722 561 722 592 691 c 0,11,12
 614 670 614 670 613 635 c 0,13,14
 613 618 613 618 608 599 c 2,15,-1
 556 389 l 1,16,-1
 477 389 l 1,17,-1
 475 429 l 1,18,19
 404 383 404 383 327 383 c 0,20,21
 286 383 286 383 262 397 c 0,22,23
 230 416 230 416 230 456 c 0,24,25
 230 471 230 471 234 489 c 0,26,27
 249 545 249 545 299 570 c 0,28,29
 347 594 347 594 460 597 c 1,30,-1
 513 599 l 1,31,32
 514 607 514 607 514 610 c 0,33,34
 514 617 514 617 512 622 c 0,0,1
330 483 m 0,35,36
 330 476 330 476 333 473 c 0,37,38
 338 467 338 467 356 467 c 0,39,40
 410 467 410 467 448 491 c 0,41,42
 482 512 482 512 495 545 c 1,43,-1
 462 545 l 2,44,45
 400 544 400 544 365 532 c 0,46,47
 338 522 338 522 332 493 c 0,48,49
 330 488 330 488 330 483 c 0,35,36
EndSplineSet
EndChar
StartChar: guillemotleft
Encoding: 171 171 109
Width: 1229
GlyphClass: 2
Flags: W
LayerCount: 2
Fore
SplineSet
279.463580347 567.403157955 m 1,0,-1
 711.074405687 1008.56769676 l 1,1,-1
 865.421778813 892.133615844 l 1,2,-1
 513.71045905 535.233848296 l 1,3,-1
 676.704395001 180.730796186 l 1,4,-1
 480.046953675 71.8388883892 l 1,5,-1
 269.496071862 522.549369771 l 1,6,-1
 279.463580347 567.403157955 l 1,0,-1
676.838771962 567.403157955 m 1,7,-1
 1125.59405948 1008.56769676 l 1,8,-1
 1261.396259 892.165811452 l 1,9,-1
 944.122637238 535.265211479 l 1,10,-1
 1096.34531637 180.730796186 l 1,11,-1
 905.952421451 71.8742204195 l 1,12,-1
 665.505019078 522.516846407 l 1,13,-1
 676.838771962 567.403157955 l 1,7,-1
EndSplineSet
EndChar
StartChar: logicalnot
Encoding: 172 172 110
Width: 1229
GlyphClass: 2
Flags: W
LayerCount: 2
Fore
SplineSet
929.72566016 232 m 1,0,-1
 1029.92531491 617 l 1,1,-1
 250.433596699 617 l 1,2,-1
 298.033596699 827 l 1,3,-1
 1278.75400891 827 l 1,4,-1
 1140.84746685 232 l 1,5,-1
 929.72566016 232 l 1,0,-1
EndSplineSet
EndChar
StartChar: registered
Encoding: 174 174 112
Width: 600
GlyphClass: 2
Flags: W
LayerCount: 2
Fore
SplineSet
363 390 m 2,0,1
 408 390 408 390 429 412 c 0,2,3
 442 425 442 425 447 447 c 0,4,5
 450 458 450 458 450 464.5 c 128,-1,6
 450 471 450 471 449 475 c 0,7,8
 448 481 448 481 443.5 484.5 c 128,-1,9
 439 488 439 488 431 490 c 0,10,11
 416 494 416 494 394 494 c 2,12,-1
 373 494 l 1,13,-1
 347 390 l 1,14,-1
 363 390 l 2,0,1
172 125 m 1,15,-1
 287 590 l 1,16,-1
 414 590 l 2,17,18
 524 590 524 590 553 530 c 0,19,20
 562 510 562 510 562 486 c 0,21,22
 562 466 562 466 557 443 c 0,23,24
 537 363 537 363 455 324 c 1,25,-1
 512 162 l 1,26,27
 575 238 575 238 603 360 c 0,28,29
 618 426 618 426 619 479 c 0,30,31
 619 539 619 539 599 581 c 0,32,33
 562 656 562 656 454 656 c 0,34,35
 343 656 343 656 264 577 c 0,36,37
 183 496 183 496 149 354 c 0,38,39
 134 288 134 288 134 235 c 0,40,41
 134 175 134 175 153.5 133 c 128,-1,42
 173 91 173 91 215 73 c 0,43,44
 249 58 249 58 298 58 c 0,45,46
 400 58 400 58 475 125 c 1,47,-1
 404 125 l 1,48,-1
 346 296 l 1,49,-1
 324 296 l 1,50,-1
 281 125 l 1,51,-1
 172 125 l 1,15,-1
467 739 m 0,52,53
 575 739 575 739 631 683 c 0,54,55
 668 647 668 647 685 589 c 0,56,57
 698 544 698 544 698 490 c 0,58,59
 698 428 698 428 681 354 c 0,60,61
 641 182 641 182 539 79 c 0,62,63
 430 -25 430 -25 284 -24 c 0,64,65
 218 -24 218 -24 170 -3 c 0,66,67
 113 24 113 24 83 83 c 0,68,69
 53 142 53 142 54 224 c 0,70,71
 54 286 54 286 71 360 c 0,72,73
 110 531 110 531 212 634 c 0,74,75
 320 739 320 739 467 739 c 0,52,53
EndSplineSet
Validated: 33
EndChar
StartChar: overscore
Encoding: 175 175 113
Width: 1229
GlyphClass: 2
Flags: W
LayerCount: 2
Fore
SplineSet
303.363737317 1526 m 1,0,-1
 349.078023031 1726 l 1,1,-1
 1651.89912582 1726 l 1,2,-1
 1604.75626868 1526 l 1,3,-1
 303.363737317 1526 l 1,0,-1
EndSplineSet
EndChar
StartChar: degree
Encoding: 176 176 114
Width: 1229
GlyphClass: 2
Flags: W
LayerCount: 2
Fore
SplineSet
1177.08746567 1406.68415886 m 0,0,1
 1227.42408377 1334.82959715 1227.42408377 1334.82959715 1227.42408377 1244.54392698 c 0,2,3
 1227.42408377 1204.05750363 1227.42408377 1204.05750363 1218.30492994 1164.84514216 c 128,-1,4
 1209.18577611 1125.6327807 1209.18577611 1125.6327807 1195.85315398 1093.37965552 c 128,-1,5
 1182.52053185 1061.12653034 1182.52053185 1061.12653034 1164.0523631 1031.46380143 c 0,6,7
 1127.0509484 972.033819575 1127.0509484 972.033819575 1069.98983864 923.200125641 c 0,8,9
 944.535145341 824 944.535145341 824 766.777928316 824 c 0,10,11
 663.108106582 824 663.108106582 824 596.97966911 879.143952305 c 0,12,13
 571.321798041 900.539836929 571.321798041 900.539836929 551.312404651 929.459663312 c 0,14,15
 502.425531915 1000.11647156 502.425531915 1000.11647156 502.425531915 1088.91376188 c 0,16,17
 502.425531915 1129.64093268 502.425531915 1129.64093268 511.616784722 1168.99077532 c 128,-1,18
 520.808037529 1208.34061795 520.808037529 1208.34061795 534.089001054 1240.65683484 c 128,-1,19
 547.369964578 1272.97305173 547.369964578 1272.97305173 565.745655236 1302.79517555 c 0,20,21
 602.554042482 1362.53193878 602.554042482 1362.53193878 659.274668317 1412.09622398 c 0,22,23
 783.934248246 1513 783.934248246 1513 964.187227573 1513 c 0,24,25
 1102.60952348 1513 1102.60952348 1513 1177.08746567 1406.68415886 c 0,0,1
805.80798668 1007 m 0,26,27
 889.245641949 1007 889.245641949 1007 967.306335792 1056.21248505 c 0,28,29
 1042.27704038 1116.69334082 1042.27704038 1116.69334082 1049.49097002 1202.8984371 c 0,30,31
 1050.06722689 1209.78459781 1050.06722689 1209.78459781 1050.06722689 1216.28380764 c 0,32,33
 1050.06722689 1256.63400599 1050.06722689 1256.63400599 1028.0283362 1287.651704 c 0,34,35
 996.517704833 1332 996.517704833 1332 924.244025853 1332 c 0,36,37
 841.106146019 1332 841.106146019 1332 762.97453821 1281.42341897 c 0,38,39
 701.120897095 1230.84683794 701.120897095 1230.84683794 685.269502058 1160.39619333 c 0,40,41
 680.365217391 1139.14429311 680.365217391 1139.14429311 680.365217391 1120.32113422 c 0,42,43
 680.365217391 1080.98052976 680.365217391 1080.98052976 702.031578887 1050.26366283 c 0,44,45
 719.021770362 1026.17630277 719.021770362 1026.17630277 741.62241291 1016.58815138 c 0,46,47
 769.769858809 1007 769.769858809 1007 805.80798668 1007 c 0,26,27
EndSplineSet
EndChar
StartChar: plusminus
Encoding: 177 177 115
Width: 600
GlyphClass: 2
Flags: W
LayerCount: 2
Fore
SplineSet
369 113 m 1,0,-1
 263 113 l 1,1,-1
 310 301 l 1,2,-1
 122 301 l 1,3,-1
 146 404 l 1,4,-1
 336 404 l 1,5,-1
 384 594 l 1,6,-1
 491 594 l 1,7,-1
 443 404 l 1,8,-1
 624 404 l 1,9,-1
 600 301 l 1,10,-1
 417 301 l 1,11,-1
 369 113 l 1,0,-1
551 88 m 1,12,-1
 528 -15 l 1,13,-1
 49 -15 l 1,14,-1
 73 88 l 1,15,-1
 551 88 l 1,12,-1
EndSplineSet
EndChar
StartChar: twosuperior
Encoding: 178 178 116
Width: 1229
GlyphClass: 2
Flags: W
LayerCount: 2
Fore
SplineSet
434.476695077 642 m 1,0,-1
 467.816832369 789.856266425 l 1,1,-1
 699.583317493 995.216867763 l 2,2,3
 869.363658011 1111.61107692 869.363658011 1111.61107692 919.143653791 1158.49204044 c 0,4,5
 965.423725037 1214.28704634 965.423725037 1214.28704634 973.389335882 1275.17163009 c 0,6,7
 974.564885496 1284.15686052 974.564885496 1284.15686052 974.564885496 1291.51937533 c 0,8,9
 974.564885496 1316.19933595 974.564885496 1316.19933595 961.868736898 1325.11571512 c 128,-1,10
 949.218287779 1334 949.218287779 1334 920.895021445 1334 c 0,11,12
 835.51713414 1334 835.51713414 1334 720.596709153 1264.5627474 c 2,13,-1
 685.555085984 1243.38988766 l 1,14,-1
 599.318770378 1381.20857807 l 1,15,-1
 620.654523449 1397.73175526 l 2,16,17
 788.159949831 1507 788.159949831 1507 954 1507 c 0,18,19
 1078.69950196 1507 1078.69950196 1507 1134.22524586 1435.35387883 c 0,20,21
 1171.17021277 1387.6829538 1171.17021277 1387.6829538 1171.17021277 1318.70937076 c 0,22,23
 1171.17021277 1284.96467871 1171.17021277 1284.96467871 1162.59882108 1247.54771909 c 0,24,25
 1145.83470639 1174.36681392 1145.83470639 1174.36681392 1094.57675274 1102.49999231 c 128,-1,26
 1043.3187991 1030.6331707 1043.3187991 1030.6331707 879.356390379 899.318133454 c 2,27,-1
 752.007560902 816 l 1,28,-1
 1089.61786892 816 l 1,29,-1
 1049.9336584 642 l 1,30,-1
 434.476695077 642 l 1,0,-1
EndSplineSet
EndChar
StartChar: threesuperior
Encoding: 179 179 117
Width: 600
GlyphClass: 2
Flags: W
LayerCount: 2
Fore
SplineSet
500 464 m 0,0,1
 500 451 500 451 496 436 c 0,2,3
 482 374 482 374 437 339 c 0,4,5
 392 305 392 305 323 305 c 0,6,7
 259 305 259 305 223 333 c 2,8,-1
 215 338 l 1,9,-1
 236 430 l 1,10,-1
 254 417 l 2,11,12
 293 388 293 388 330 388 c 0,13,14
 356 388 356 388 372 398 c 0,15,16
 392 411 392 411 399 443 c 0,17,18
 401 452 401 452 401 459 c 0,19,20
 401 471 401 471 395 478 c 0,21,22
 385 487 385 487 361 486 c 2,23,-1
 310 486 l 1,24,-1
 328 566 l 1,25,-1
 372 566 l 2,26,27
 397 566 397 566 410 581 c 0,28,29
 422 593 422 593 428 617 c 0,30,31
 430 627 430 627 430 635 c 0,32,33
 430 646 430 646 425 650 c 0,34,35
 420 654 420 654 410 653 c 0,36,37
 382 653 382 653 337 622 c 2,38,-1
 323 612 l 1,39,-1
 291 680 l 1,40,-1
 300 688 l 2,41,42
 365 736 365 736 427 736 c 0,43,44
 483 736 483 736 511 704 c 0,45,46
 530 682 530 682 530 649 c 0,47,48
 530 635 530 635 526 619 c 0,49,50
 513 560 513 560 461 531 c 1,51,52
 469 526 469 526 476 520 c 0,53,54
 500 499 500 499 500 464 c 0,0,1
EndSplineSet
EndChar
StartChar: acute
Encoding: 180 180 118
Width: 1229
GlyphClass: 2
Flags: W
LayerCount: 2
Fore
SplineSet
888.026184526 1599 m 1,0,-1
 1145.98705849 1599 l 1,1,-1
 1130.56605142 1534.23177032 l 1,2,-1
 1126.06649937 1528.82605848 l 2,3,4
 979.76846232 1353.0652223 979.76846232 1353.0652223 796.888718533 1216.92141304 c 2,5,-1
 788.934581613 1211 l 1,6,-1
 629.596211913 1211 l 1,7,-1
 645.391025456 1282.07666095 l 1,8,9
 767.214506258 1419.38617744 767.214506258 1419.38617744 879.089374139 1585.71341465 c 2,10,-1
 888.026184526 1599 l 1,0,-1
EndSplineSet
EndChar
StartChar: mu
Encoding: 181 181 119
Width: 1229
GlyphClass: 2
Flags: W
LayerCount: 2
Fore
SplineSet
510.748850859 -50 m 0,0,1
 411.51839326 -50 411.51839326 -50 352.75131487 -2.65842869032 c 1,2,3
 329.195528245 -110.634305886 329.195528245 -110.634305886 312.176283921 -178.77629846 c 2,4,-1
 227.85967177 -522 l 1,5,-1
 4.26457952116 -522 l 1,6,-1
 383.785725042 1073 l 1,7,-1
 625.610998951 1072.99999948 l 1,8,-1
 449.060813596 369.185080478 l 2,9,10
 435.440086205 315.298971069 435.440086205 315.298971069 435.440086205 274.902932679 c 0,11,12
 435.440086205 221.428734499 435.440086205 221.428734499 459.107632235 194.087079413 c 0,13,14
 487.748545615 161 487.748545615 161 558.553196471 161 c 0,15,16
 682.224655229 161 682.224655229 161 758.358382308 237.284051348 c 0,17,18
 838.381147054 317.464819177 838.381147054 317.464819177 887.495953706 511.755177466 c 2,19,-1
 1026.12251386 1073 l 1,20,-1
 1249.7278406 1073 l 1,21,-1
 994.07684524 -30 l 1,22,-1
 790.919110071 -30 l 1,23,-1
 798.182359692 67.6043390454 l 1,24,25
 674.131979866 -50 674.131979866 -50 510.748850859 -50 c 0,0,1
EndSplineSet
EndChar
StartChar: paragraph
Encoding: 182 182 120
Width: 600
GlyphClass: 2
Flags: W
LayerCount: 2
Fore
SplineSet
400 -142 m 1,0,-1
 603 667 l 1,1,-1
 535 667 l 1,2,-1
 331 -142 l 1,3,-1
 238 -142 l 1,4,-1
 338 253 l 1,5,6
 314 249 314 249 285 250 c 0,7,8
 188 250 188 250 148 305 c 0,9,10
 120 344 120 344 119 409 c 0,11,12
 119 454 119 454 133 512 c 0,13,14
 163 643 163 643 230 709 c 0,15,16
 302 775 302 775 425 774 c 2,17,-1
 712 774 l 1,18,-1
 493 -142 l 1,19,-1
 400 -142 l 1,0,-1
EndSplineSet
Validated: 33
EndChar
StartChar: periodcentered
Encoding: 183 183 121
Width: 1229
GlyphClass: 2
Flags: W
LayerCount: 2
Fore
SplineSet
760 892 m 0,0,1
 811.15759894 892 811.15759894 892 842.016675887 869.123137623 c 0,2,3
 862.837044696 853.688304213 862.837044696 853.688304213 872.831855682 829.599095371 c 128,-1,4
 882.826666667 805.509886529 882.826666667 805.509886529 882.826666667 777.365440702 c 128,-1,5
 882.826666667 749.220994875 882.826666667 749.220994875 875.236726531 716.25219241 c 0,6,7
 859.262423845 646.863815118 859.262423845 646.863815118 822.766290139 606.729617451 c 0,8,9
 774.816479738 554 774.816479738 554 696 554 c 0,10,11
 644.84240106 554 644.84240106 554 613.983324113 576.876862377 c 0,12,13
 593.162955304 592.311695787 593.162955304 592.311695787 583.168144318 616.400904629 c 128,-1,14
 573.173333333 640.490113471 573.173333333 640.490113471 573.173333333 668.634559298 c 128,-1,15
 573.173333333 696.779005125 573.173333333 696.779005125 580.763273469 729.74780759 c 0,16,17
 596.737576155 799.136184882 596.737576155 799.136184882 633.233709861 839.270382549 c 0,18,19
 681.183520262 892 681.183520262 892 760 892 c 0,0,1
EndSplineSet
EndChar
StartChar: cedilla
Encoding: 184 184 122
Width: 1229
GlyphClass: 2
Flags: W
LayerCount: 2
Fore
SplineSet
376 -351 m 0,0,1
 463.220380733 -351 463.220380733 -351 493.626167232 -314.190651603 c 0,2,3
 504.144481984 -301.457144043 504.144481984 -301.457144043 508.787632132 -282.145381926 c 0,4,5
 510.221818826 -273.094777007 510.221818826 -273.094777007 509.270088687 -269.029698802 c 0,6,7
 504.789733314 -249.892976934 504.789733314 -249.892976934 471.841475154 -232.339611636 c 0,8,9
 443.324283373 -217.14692126 443.324283373 -217.14692126 396.486428761 -205.049727023 c 2,10,-1
 354.31158625 -194.156886904 l 1,11,-1
 513.513920699 30 l 1,12,-1
 698.411425971 30 l 1,13,-1
 608.306417909 -99.5259490892 l 1,14,15
 683.120837062 -131.958155978 683.120837062 -131.958155978 700.667112369 -200.570028602 c 0,16,17
 705.619883041 -219.93703753 705.619883041 -219.93703753 705.619883041 -242.943620422 c 128,-1,18
 705.619883041 -265.950203314 705.619883041 -265.950203314 699.242727813 -293.721685759 c 0,19,20
 670.073618632 -420.948651335 670.073618632 -420.948651335 562.689439313 -478.016070027 c 0,21,22
 479.924556449 -522 479.924556449 -522 352 -522 c 0,23,24
 317.870012095 -522 317.870012095 -522 271.832630184 -512.364268902 c 2,25,-1
 241.856315275 -506.09015648 l 1,26,-1
 280.377392437 -339.67910314 l 1,27,-1
 309.100085974 -345.621729389 l 2,28,29
 335.095060595 -351 335.095060595 -351 376 -351 c 0,0,1
EndSplineSet
EndChar
StartChar: onesuperior
Encoding: 185 185 123
Width: 600
GlyphClass: 2
Flags: W
LayerCount: 2
Fore
SplineSet
423 728 m 1,0,-1
 507 728 l 1,1,-1
 411 313 l 1,2,-1
 315 313 l 1,3,-1
 371 558 l 2,4,5
 376 579 376 579 385 613 c 1,6,7
 382 611 382 611 379 609 c 2,8,-1
 329 575 l 1,9,-1
 291 644 l 1,10,-1
 423 728 l 1,0,-1
EndSplineSet
EndChar
StartChar: ordmasculine
Encoding: 186 186 124
Width: 1229
GlyphClass: 2
Flags: W
LayerCount: 2
Fore
SplineSet
1102.07519531 874.98828125 m 0,0,1
 976.436793794 784 976.436793794 784 782.103779936 784 c 0,2,3
 701.892578125 784 701.892578125 784 644.981445312 810.529296875 c 0,4,5
 588.069335938 834.873046875 588.069335938 834.873046875 550.956054688 883.228515625 c 0,6,7
 503.643554688 944.872070312 503.643554688 944.872070312 503.643554688 1034.35351562 c 0,8,9
 503.643554688 1083.08300781 503.643554688 1083.08300781 517.751953125 1140.11523438 c 0,10,11
 556.91796875 1297.47363281 556.91796875 1297.47363281 670.340820312 1388.23730469 c 0,12,13
 793.30088073 1479 793.30088073 1479 991.618690124 1479 c 0,14,15
 1149.51269531 1479 1149.51269531 1479 1224 1382.16796875 c 0,16,17
 1271.35644531 1320.60546875 1271.35644531 1320.60546875 1271.35644531 1231.66113281 c 0,18,19
 1271.35644531 1183.22460938 1271.35644531 1183.22460938 1257.23632812 1126.66699219 c 0,20,21
 1217.03320312 965.9765625 1217.03320312 965.9765625 1102.07519531 874.98828125 c 0,0,1
724.517578125 987.9765625 m 0,22,23
 747.258789062 963 747.258789062 963 819.152148201 963 c 0,24,25
 920.186801204 963 920.186801204 963 982.554964523 1013.81640625 c 0,26,27
 1033.76757812 1057.390625 1033.76757812 1057.390625 1055.76464844 1138.34863281 c 0,28,29
 1067.29101562 1180.64550781 1067.29101562 1180.64550781 1067.29101562 1212.16699219 c 0,30,31
 1067.29101562 1252.859375 1067.29101562 1252.859375 1048.30761719 1273.44140625 c 0,32,33
 1025.65722656 1298 1025.65722656 1298 953.292791919 1298 c 0,34,35
 851.307476988 1298 851.307476988 1298 789.007930999 1248.29003906 c 0,36,37
 738.745117188 1205.82421875 738.745117188 1205.82421875 717.231445312 1126.87695312 c 0,38,39
 705.346679688 1083.13769531 705.346679688 1083.13769531 705.346679688 1050.59960938 c 0,40,41
 705.346679688 1009.03320312 705.346679688 1009.03320312 724.517578125 987.9765625 c 0,22,23
EndSplineSet
EndChar
StartChar: guillemotright
Encoding: 187 187 125
Width: 1229
GlyphClass: 2
Flags: W
LayerCount: 2
Fore
SplineSet
1162.1484375 511.151367188 m 1,0,-1
 731.841796875 73.4755859375 l 1,1,-1
 577.55859375 189.866210938 l 1,2,-1
 929.2890625 546.766601562 l 1,3,-1
 766.268554688 901.26953125 l 1,4,-1
 963.033203125 1010.2109375 l 1,5,-1
 1173.7421875 555.870117188 l 1,6,-1
 1162.1484375 511.151367188 l 1,0,-1
764.984375 511.540039062 m 1,7,-1
 316.21875 73.384765625 l 1,8,-1
 181.7109375 189.958007812 l 1,9,-1
 498.8984375 546.7734375 l 1,10,-1
 347.776367188 901.133789062 l 1,11,-1
 535.868164062 1010.39355469 l 1,12,-1
 776.3203125 556.4375 l 1,13,-1
 764.984375 511.540039062 l 1,7,-1
EndSplineSet
EndChar
StartChar: questiondown
Encoding: 191 191 129
Width: 1229
GlyphClass: 2
Flags: W
LayerCount: 2
Fore
SplineSet
877 810 m 0,0,1
 825.84240106 810 825.84240106 810 791.45315999 832.876862377 c 0,2,3
 767.580917513 848.311695787 767.580917513 848.311695787 756.121055608 872.400904629 c 128,-1,4
 744.661193704 896.490113471 744.661193704 896.490113471 744.661193704 924.634559298 c 128,-1,5
 744.661193704 952.779005125 744.661193704 952.779005125 753.517379856 986.330104839 c 0,6,7
 779.826558851 1086.00076134 779.826558851 1086.00076134 850.614061652 1124.66246963 c 0,8,9
 890.315671141 1148 890.315671141 1148 941.736635041 1148 c 128,-1,10
 993.15759894 1148 993.15759894 1148 1024.01667589 1125.12313762 c 0,11,12
 1064.82666667 1094.86933113 1064.82666667 1094.86933113 1064.82666667 1031.98062222 c 0,13,14
 1064.82666667 1005.22408254 1064.82666667 1005.22408254 1057.19048477 972.054417429 c 0,15,16
 1029.84124925 856.856122348 1029.84124925 856.856122348 947.652142567 823.235689647 c 0,17,18
 915.29594067 810 915.29594067 810 877 810 c 0,0,1
547.250494634 -203 m 0,19,20
 732.380629359 -203 732.380629359 -203 934.558974486 -115.697151801 c 2,21,-1
 969.909065633 -99.5473639679 l 1,22,-1
 1005.49387202 -304.515848758 l 1,23,-1
 984.621276779 -314.219774616 l 2,24,25
 740.61128105 -423 740.61128105 -423 516.292803499 -423 c 0,26,27
 280.164527617 -423 280.164527617 -423 178.292227257 -316.198394784 c 0,28,29
 103.977099237 -238.287373472 103.977099237 -238.287373472 103.977099237 -124.053435115 c 0,30,31
 103.977099237 -78.8083636136 103.977099237 -78.8083636136 115.770441429 -28.2211326287 c 0,32,33
 148.367254187 112.681219291 148.367254187 112.681219291 220.978912901 200.025678324 c 128,-1,34
 293.590571615 287.370137356 293.590571615 287.370137356 469.31359311 397.733845409 c 0,35,-1
 469.779980218 398.008795397 l 1,36,37
 615.431790366 482.373160893 615.431790366 482.373160893 660.057633043 531.36756537 c 128,-1,38
 704.683475721 580.361969847 704.683475721 580.361969847 727.015116976 663.833631395 c 0,39,40
 727.246049873 664.645140219 727.246049873 664.645140219 739.724129561 706 c 1,41,-1
 958.184907693 706 l 1,42,-1
 942.291224297 632.491714296 l 1,43,44
 913.758470251 506.73624276 913.758470251 506.73624276 850.529893132 426.896768262 c 0,45,46
 784.055084031 348.61007136 784.055084031 348.61007136 631.661395652 262.024362113 c 0,47,48
 472.4825685 167.168177662 472.4825685 167.168177662 416.683823375 113.40457908 c 128,-1,49
 360.88507825 59.6409804992 360.88507825 59.6409804992 337.228330432 -33.7864334295 c 0,50,51
 332.409533743 -64.2695523412 332.409533743 -64.2695523412 332.272727273 -75.0123966942 c 0,52,53
 332.272727273 -123.069070051 332.272727273 -123.069070051 366.439023112 -155.386151497 c 0,54,55
 420.549039289 -203 420.549039289 -203 547.250494634 -203 c 0,19,20
EndSplineSet
EndChar
StartChar: AE
Encoding: 198 198 136
Width: 1229
GlyphClass: 2
Flags: W
LayerCount: 2
Fore
SplineSet
1249.04619147 0 m 1,0,-1
 542.434490893 0 l 1,1,-1
 653.403438597 423 l 1,2,-1
 429.929812216 423 l 1,3,-1
 226.0234375 -0 l 1,4,-1
 0 -0 l 1,5,-1
 703.372491537 1462 l 1,6,-1
 1606.98242188 1462 l 1,7,-1
 1555.08007812 1238 l 1,8,-1
 1096.90045706 1238 l 1,9,-1
 1001.57883279 865.153320312 l 1,10,-1
 1427.86132812 865.153320312 l 1,11,-1
 1377.15722656 654 l 1,12,-1
 947.868499761 654 l 1,13,-1
 835.679636728 214.17578125 l 1,14,-1
 1303.89903403 214.17578125 l 1,15,-1
 1249.04619147 0 l 1,0,-1
859.523717818 1238 m 1,16,-1
 815.628439593 1238 l 1,17,-1
 533.295446698 648 l 1,18,-1
 708.239767926 648 l 1,19,-1
 859.523717818 1238 l 1,16,-1
EndSplineSet
EndChar
StartChar: Eth
Encoding: 208 208 146
Width: 600
GlyphClass: 2
Flags: W
LayerCount: 2
Fore
SplineSet
262 714 m 1,0,-1
 429 714 l 2,1,2
 520 714 520 714 587 690 c 0,3,4
 642 666 642 666 674 619 c 0,5,6
 712 562 712 562 712 478 c 0,7,8
 712 425 712 425 696 360 c 0,9,10
 654 186 654 186 537 93 c 0,11,12
 408 0 408 0 216 0 c 2,13,-1
 62 0 l 1,14,-1
 136 311 l 1,15,-1
 74 311 l 1,16,-1
 100 416 l 1,17,-1
 161 416 l 1,18,-1
 262 714 l 1,0,-1
201 107 m 1,19,-1
 228 107 l 2,20,21
 379 107 379 107 469 185 c 0,22,23
 541 248 541 248 574 364 c 0,24,25
 591 420 591 420 591 462 c 128,-1,26
 591 504 591 504 576 532.5 c 128,-1,27
 561 561 561 561 532 579 c 0,28,29
 484 607 484 607 402 607 c 2,30,-1
 352 607 l 1,31,-1
 305 410 l 1,32,-1
 488 410 l 1,33,-1
 461 307 l 1,34,-1
 257 307 l 1,35,-1
 201 107 l 1,19,-1
EndSplineSet
EndChar
StartChar: multiply
Encoding: 215 215 153
Width: 1229
GlyphClass: 2
Flags: W
LayerCount: 2
Fore
SplineSet
728.789167203 573.861092881 m 1,0,-1
 335.394748716 258.660702053 l 1,1,-1
 228.904054831 411.001555805 l 1,2,-1
 609.816971257 728.00119256 l 1,3,-1
 372.875826883 1047.04097087 l 1,4,-1
 548.161274935 1191.38951936 l 1,5,-1
 795.737057421 873.261951293 l 1,6,-1
 1195.50513176 1191.1093301 l 1,7,-1
 1303.25871237 1039.0734561 l 1,8,-1
 915.473684113 717.932112205 l 1,9,-1
 1153.12539683 397.88773526 l 1,10,-1
 980.710372398 256.879131757 l 1,11,-1
 728.789167203 573.861092881 l 1,0,-1
EndSplineSet
EndChar
StartChar: Oslash
Encoding: 216 216 154
Width: 1229
GlyphClass: 2
Flags: W
LayerCount: 2
Fore
SplineSet
1556.67773438 1434.03613281 m 1,0,-1
 1383.83691406 1228.78027344 l 1,1,2
 1409.36132812 1147.41113281 1409.36132812 1147.41113281 1409.36132812 1041.90136719 c 0,3,4
 1409.36132812 905.326171875 1409.36132812 905.326171875 1366.84472656 728.016601562 c 0,5,6
 1279.70833813 372.501953125 1279.70833813 372.501953125 1089.91531685 178.508789062 c 0,7,8
 895.703718197 -20 895.703718197 -20 629.078798186 -20 c 0,9,10
 452.622583801 -20 452.622583801 -20 351.367417073 59.8388671875 c 1,11,-1
 232.05078125 -86.8427734375 l 1,12,-1
 73 25.939453125 l 1,13,-1
 240.647460938 226.711914062 l 1,14,15
 214.6796875 305.784179688 214.6796875 305.784179688 214.6796875 412.206054688 c 0,16,17
 214.6796875 552.805664062 214.6796875 552.805664062 260.078125 742.301757812 c 0,18,19
 339.673934286 1068.47265625 339.673934286 1068.47265625 493.784682631 1251.27050781 c 0,20,21
 591.585854399 1367.27636719 591.585854399 1367.27636719 719.016752418 1426.13769531 c 128,-1,22
 846.447650436 1485 846.447650436 1485 1000.54280747 1485 c 0,23,24
 1175.25071625 1485 1175.25071625 1485 1279.13042023 1395.32324219 c 1,25,-1
 1398.59375 1542.97851562 l 1,26,-1
 1556.67773438 1434.03613281 l 1,0,-1
469.580732394 448.870117188 m 1,27,-1
 1111.38974835 1199.02636719 l 1,28,29
 1063.43087761 1261 1063.43087761 1261 960.096869498 1261 c 0,30,31
 652.344151539 1261 652.344151539 1261 513.307082072 696.22265625 c 0,32,33
 478.228712552 553.631835938 478.228712552 553.631835938 469.580732394 448.870117188 c 1,27,-1
1155.27616881 1002.45605469 m 1,34,-1
 519.188124348 258.11328125 l 1,35,36
 568.486808357 203 568.486808357 203 668.460369371 203 c 0,37,38
 823.840250382 203 823.840250382 203 929.726036293 335.948242188 c 0,39,40
 1041.17376233 475.880859375 1041.17376233 475.880859375 1113.11206843 769.7421875 c 0,41,42
 1146.2539972 905.3203125 1146.2539972 905.3203125 1155.27616881 1002.45605469 c 1,34,-1
EndSplineSet
EndChar
StartChar: Thorn
Encoding: 222 222 160
Width: 1229
GlyphClass: 2
Flags: W
LayerCount: 2
Fore
SplineSet
747.573242188 1219.93457031 m 1,0,-1
 934.973598916 1219.93457031 l 2,1,2
 1290.48828125 1219.93457031 1290.48828125 1219.93457031 1372.03027344 1042.7265625 c 0,3,4
 1398.71875 984.727539062 1398.71875 984.727539062 1398.71875 908.966796875 c 0,5,6
 1398.71875 847.217773438 1398.71875 847.217773438 1380.95214844 773.4375 c 0,7,8
 1327.56152344 553.2109375 1327.56152344 553.2109375 1162.31933594 428.857421875 c 0,9,10
 967.774707756 304.502929688 967.774707756 304.502929688 664.427518365 304.502929688 c 2,11,-1
 481.337255515 304.502929688 l 1,12,-1
 394.614257812 0 l 1,13,-1
 160 0 l 1,14,-1
 571.87109375 1462 l 1,15,-1
 806.573242188 1462 l 1,16,-1
 747.573242188 1219.93457031 l 1,0,-1
541.734291855 505 m 1,17,-1
 684.623284953 505 l 2,18,19
 891.339856773 505 891.339856773 505 995.905851382 571.014648438 c 0,20,21
 1099.56693457 636.45703125 1099.56693457 636.45703125 1139.13355604 778.887695312 c 0,22,23
 1151.27706168 822.65625 1151.27706168 822.65625 1151.27706168 861.1484375 c 0,24,25
 1151.27706168 948.309570312 1151.27706168 948.309570312 1071.78027114 987.119140625 c 0,26,27
 1002.38003602 1021 1002.38003602 1021 872.079192897 1021 c 2,28,-1
 697.600585938 1021 l 1,29,-1
 541.734291855 505 l 1,17,-1
EndSplineSet
EndChar
StartChar: germandbls
Encoding: 223 223 161
Width: 600
GlyphClass: 2
Flags: W
LayerCount: 2
Fore
SplineSet
262 131 m 2,0,1
 314 92 314 92 372 92 c 0,2,3
 412 92 412 92 437 106 c 0,4,5
 470 124 470 124 480 168 c 0,6,7
 482 177 482 177 482 185 c 0,8,9
 482 200 482 200 475 212 c 0,10,11
 461 233 461 233 424 259 c 0,12,13
 373 296 373 296 356 327 c 0,14,15
 345 347 345 347 344 371 c 0,16,17
 344 387 344 387 349 404 c 0,18,19
 365 462 365 462 443 513 c 0,20,21
 495 549 495 549 515 581 c 0,22,23
 525 600 525 600 525 621 c 0,24,25
 525 640 525 640 513 649 c 0,26,27
 495 662 495 662 453 663 c 0,28,29
 397 663 397 663 365 634 c 0,30,31
 339 611 339 611 329 569 c 2,32,-1
 179 0 l 1,33,-1
 69 0 l 1,34,-1
 211 575 l 2,35,36
 238 680 238 680 316 727 c 0,37,38
 378 765 378 765 471 765 c 0,39,40
 564 765 564 765 607 722 c 0,41,42
 637 691 637 691 637 642 c 0,43,44
 637 621 637 621 632 600.5 c 128,-1,45
 627 580 627 580 619.5 563 c 128,-1,46
 612 546 612 546 600 530 c 0,47,48
 577 499 577 499 541 471 c 0,49,50
 495 437 495 437 481 424 c 0,51,52
 464 408 464 408 464 392 c 0,53,54
 464 385 464 385 468 379 c 0,55,56
 477 367 477 367 523 330 c 0,57,58
 577 283 577 283 590 244 c 0,59,60
 596 224 596 224 596 201 c 0,61,62
 596 179 596 179 590 155 c 0,63,64
 571 75 571 75 514 33 c 0,65,66
 452 -10 452 -10 359.5 -10 c 128,-1,67
 267 -10 267 -10 221 28 c 2,68,-1
 214 33 l 1,69,-1
 242 146 l 1,70,-1
 262 131 l 2,0,1
EndSplineSet
EndChar
StartChar: ae
Encoding: 230 230 168
Width: 1229
GlyphClass: 2
Flags: W
LayerCount: 2
Fore
SplineSet
1257.90332031 453 m 1,0,-1
 807.058960028 453 l 1,1,2
 791.785807547 384.44140625 791.785807547 384.44140625 791.785807547 332.223632812 c 128,-1,3
 791.785807547 280.005859375 791.785807547 280.005859375 808.713072865 245.908203125 c 0,4,5
 832.246152147 198.505859375 832.246152147 198.505859375 883.327922262 188.056640625 c 0,6,7
 898.277698343 184.998046875 898.277698343 184.998046875 916.521871501 184.998046875 c 0,8,9
 1012.3816994 184.998046875 1012.3816994 184.998046875 1132.1015625 247.099609375 c 2,10,-1
 1191.80859375 279.314453125 l 1,11,-1
 1137.53125 59.55859375 l 1,12,-1
 1127.55761719 53.333984375 l 2,13,14
 1004.80256502 -20 1004.80256502 -20 868.594085027 -20 c 0,15,16
 782.236630097 -20 782.236630097 -20 720.056879774 15.0185546875 c 0,17,18
 641.106233643 59.482421875 641.106233643 59.482421875 608.430324887 158.506835938 c 1,19,20
 460.118632123 -20 460.118632123 -20 287 -20 c 0,21,22
 235.561523438 -20 235.561523438 -20 196.2421875 -0.6337890625 c 0,23,24
 145.973632812 22.498046875 145.973632812 22.498046875 118.431640625 72.447265625 c 128,-1,25
 90.888671875 122.397460938 90.888671875 122.397460938 90.888671875 190.616210938 c 0,26,27
 90.888671875 242.971679688 90.888671875 242.971679688 106.763671875 307.094726562 c 0,28,29
 140.990234375 445.951171875 140.990234375 445.951171875 221.526367188 527.327148438 c 0,30,31
 323.7109375 630.576171875 323.7109375 630.576171875 510.635557275 638.94921875 c 2,32,-1
 628.489235343 644.350585938 l 1,33,-1
 638.46178058 683.453125 l 2,34,35
 653.782801279 740.483398438 653.782801279 740.483398438 653.782801279 778.326171875 c 0,36,37
 653.782801279 836.592773438 653.782801279 836.592773438 622.039790888 848.0546875 c 0,38,39
 611.113072523 852 611.113072523 852 595.902680593 852 c 128,-1,40
 580.691224925 852 580.691224925 852 565.63401129 850.157226562 c 128,-1,41
 550.576797655 848.315429688 550.576797655 848.315429688 534.736672735 844.586914062 c 128,-1,42
 518.896547815 840.857421875 518.896547815 840.857421875 502.373502997 835.122070312 c 128,-1,43
 485.85045818 829.38671875 485.85045818 829.38671875 468.701935325 821.703125 c 0,44,45
 434.121935265 806.208984375 434.121935265 806.208984375 397.148524348 782.416992188 c 2,46,-1
 354.117124618 754.7265625 l 1,47,-1
 322.521484375 950.791992188 l 1,48,-1
 337.823847243 961.525390625 l 2,49,50
 494.412486618 1063 494.412486618 1063 642.02636715 1063 c 0,51,52
 793.602672322 1063 793.602672322 1063 842.659084982 951.693359375 c 0,53,54
 846.349192654 943.3203125 846.349192654 943.3203125 849.385101359 934.360351562 c 1,55,56
 960.937194575 1063 960.937194575 1063 1099 1063 c 0,57,58
 1176.87109375 1063 1176.87109375 1063 1228.77050781 1014.87695312 c 0,59,60
 1268.90917969 979.543945312 1268.90917969 979.543945312 1291.35839844 917.979492188 c 0,61,62
 1314.54296875 854.397460938 1314.54296875 854.397460938 1314.54296875 770.240234375 c 128,-1,63
 1314.54296875 686.083984375 1314.54296875 686.083984375 1288.2421875 578.571289062 c 2,64,-1
 1257.90332031 453 l 1,0,-1
1100.57910156 771.739257812 m 0,65,66
 1099.85546875 784.65234375 1099.85546875 784.65234375 1097.7109375 796.047851562 c 0,67,68
 1087.18457031 852 1087.18457031 852 1048.64453323 852 c 0,69,70
 997.942517637 852 997.942517637 852 947.319218669 799.892578125 c 0,71,72
 899.488232367 750.66015625 899.488232367 750.66015625 864.188081574 661 c 1,73,-1
 1087.82617188 661 l 1,74,75
 1100.94726562 716.529296875 1100.94726562 716.529296875 1100.94726562 758.203125 c 0,76,77
 1100.94726562 765.1640625 1100.94726562 765.1640625 1100.57910156 771.739257812 c 0,65,66
307.873046875 253.120117188 m 128,-1,79
 307.873046875 227.764648438 307.873046875 227.764648438 314.018554688 212.489257812 c 128,-1,80
 320.1640625 197.213867188 320.1640625 197.213867188 329.8828125 191.668945312 c 0,81,82
 338.19509186 187 338.19509186 187 352.281112557 187 c 0,83,84
 413.036517485 187 413.036517485 187 471.292137741 252.4609375 c 0,85,86
 534.537753699 323.529296875 534.537753699 323.529296875 566.605204228 451.731445312 c 2,87,-1
 579.333895034 502.369140625 l 1,88,-1
 540.447882908 499.124023438 l 2,89,90
 438.130100647 491.171875 438.130100647 491.171875 380.718024751 436.155273438 c 0,91,92
 334.346679688 391.521484375 334.346679688 391.521484375 316.209960938 314.137695312 c 0,93,78
 307.873046875 278.474609375 307.873046875 278.474609375 307.873046875 253.120117188 c 128,-1,79
EndSplineSet
EndChar
StartChar: eth
Encoding: 240 240 178
Width: 1229
GlyphClass: 2
Flags: W
LayerCount: 2
Fore
SplineSet
425.297851562 850.439453125 m 0,0,1
 579.158502663 981.053710938 579.158502663 981.053710938 797.491395581 981.053710938 c 0,2,3
 946.967732461 981.053710938 946.967732461 981.053710938 1025.28937478 921.532226562 c 1,4,5
 1009.18726445 1064.20605469 1009.18726445 1064.20605469 923.033566043 1176.77539062 c 1,6,-1
 632.322828132 1018.65039062 l 1,7,-1
 571.915851517 1191.38183594 l 1,8,-1
 795.411715403 1314.34863281 l 1,9,10
 736.177059804 1364.99023438 736.177059804 1364.99023438 694.943588066 1394.46679688 c 2,11,-1
 670.246980397 1412.12207031 l 1,12,-1
 803.346511798 1582.04199219 l 1,13,-1
 830.161732815 1566.05175781 l 2,14,15
 937.378276331 1502.1171875 937.378276331 1502.1171875 1012.68476091 1431.34082031 c 1,16,-1
 1255.96679688 1575.81445312 l 1,17,-1
 1316.50683594 1404.7890625 l 1,18,-1
 1125.08886719 1291.10449219 l 1,19,20
 1240.2421875 1112.10839844 1240.2421875 1112.10839844 1240.2421875 870.890625 c 0,21,22
 1240.2421875 730.568359375 1240.2421875 730.568359375 1201.23144531 569.262695312 c 0,23,24
 1135.42285156 296.8984375 1135.42285156 296.8984375 972.349996518 140.170898438 c 0,25,26
 798.594502072 -20 798.594502072 -20 568.252889082 -20 c 0,27,28
 470.439787662 -20 470.439787662 -20 400.829101562 8.7314453125 c 0,29,30
 314.297851562 43.5849609375 314.297851562 43.5849609375 262.58984375 121.749023438 c 0,31,32
 206.49609375 206.541992188 206.49609375 206.541992188 206.49609375 327.130859375 c 0,33,34
 206.49609375 401.291992188 206.49609375 401.291992188 227.766601562 489.087890625 c 0,35,36
 283.749023438 719.825195312 283.749023438 719.825195312 425.297851562 850.439453125 c 0,0,1
871.251368118 808.896484375 m 0,37,38
 835.458806925 823 835.458806925 823 785.309639197 823 c 0,39,40
 650.701447449 823 650.701447449 823 566.018557699 725.828125 c 0,41,42
 494.873596431 644.190429688 494.873596431 644.190429688 456.665015728 494.254882812 c 0,43,44
 438.22265625 415.727539062 438.22265625 415.727539062 438.22265625 357.000976562 c 0,45,46
 438.22265625 280.014648438 438.22265625 280.014648438 470.785860286 239.658203125 c 0,47,48
 511.865762297 191 511.865762297 191 610.335320227 191 c 0,49,50
 740.667352108 191 740.667352108 191 819.824976111 279.348632812 c 0,51,52
 904.194237544 373.514648438 904.194237544 373.514648438 953.409009186 562.87109375 c 0,53,54
 965.392855288 609.401367188 965.392855288 609.401367188 965.392855288 649.127929688 c 0,55,56
 965.392855288 709.620117188 965.392855288 709.620117188 937.434513132 754.265625 c 0,57,58
 913.696094042 792.171875 913.696094042 792.171875 871.251368118 808.896484375 c 0,37,38
EndSplineSet
EndChar
StartChar: divide
Encoding: 247 247 185
Width: 1229
GlyphClass: 2
Flags: W
LayerCount: 2
Fore
SplineSet
885.510636258 1226 m 0,0,1
 957.597193941 1226 957.597193941 1226 990.544416768 1187.9543322 c 0,2,3
 1014.06148933 1160.79809099 1014.06148933 1160.79809099 1014.06148933 1118.6251622 c 0,4,5
 1014.06148933 1094.19638703 1014.06148933 1094.19638703 1006.22749735 1064.20305217 c 0,6,7
 978.75632426 959.02652202 978.75632426 959.02652202 894.112609495 928.17323642 c 0,8,9
 860.716232699 916 860.716232699 916 821.338686164 916 c 0,10,11
 768.176100534 916 768.176100534 916 735.902239047 937.393199984 c 0,12,13
 693.162819361 965.723647921 693.162819361 965.723647921 693.162819361 1024.21897973 c 0,14,15
 693.162819361 1048.73781502 693.162819361 1048.73781502 700.621825071 1077.79694783 c 0,16,17
 728.092998162 1182.97347798 728.092998162 1182.97347798 812.736712927 1213.82676358 c 0,18,19
 846.133089722 1226 846.133089722 1226 885.510636258 1226 c 0,0,1
1278.81134879 827 m 1,20,-1
 1229.81134879 617 l 1,21,-1
 250.433596699 617 l 1,22,-1
 298.033596699 827 l 1,23,-1
 1278.81134879 827 l 1,20,-1
704.253022834 528 m 0,24,25
 757.44990212 528 757.44990212 528 789.755518457 506.900666279 c 0,26,27
 811.718085644 492.556549466 811.718085644 492.556549466 822.260980775 470.169881577 c 128,-1,28
 832.803875906 447.783213688 832.803875906 447.783213688 832.803875906 421.98980036 c 128,-1,29
 832.803875906 396.196387032 832.803875906 396.196387032 824.969883926 366.203052169 c 0,30,31
 808.462477647 303.002558016 808.462477647 303.002558016 770.598326957 266.318004828 c 0,32,33
 720.726649185 218 720.726649185 218 638.955249054 218 c 0,34,35
 586.169990364 218 586.169990364 218 554.099188453 239.101127878 c 0,36,37
 532.324096481 253.42814725 532.324096481 253.42814725 521.901373278 275.723945784 c 128,-1,38
 511.478650076 298.019744317 511.478650076 298.019744317 511.478650076 325.064471879 c 0,39,40
 511.478650076 349.606172881 511.478650076 349.606172881 519.364211648 379.796947831 c 0,41,42
 546.835384738 484.97347798 546.835384738 484.97347798 631.479099503 515.82676358 c 0,43,44
 664.875476299 528 664.875476299 528 704.253022834 528 c 0,24,25
EndSplineSet
EndChar
StartChar: oslash
Encoding: 248 248 186
Width: 1229
GlyphClass: 2
Flags: W
LayerCount: 2
Fore
SplineSet
1191.88183594 892.17578125 m 1,0,1
 1238.08203125 805.651367188 1238.08203125 805.651367188 1238.08203125 690.701171875 c 0,2,3
 1238.08203125 609.919921875 1238.08203125 609.919921875 1216.56347656 520.526367188 c 128,-1,4
 1195.04492188 431.1328125 1195.04492188 431.1328125 1164.47265625 359.407226562 c 128,-1,5
 1133.90039062 287.681640625 1133.90039062 287.681640625 1092.37792969 227.517578125 c 128,-1,6
 1050.75993084 167.354492188 1050.75993084 167.354492188 993.406731851 119.813476562 c 128,-1,7
 935.947170039 72.18359375 935.947170039 72.18359375 871.218407464 40.1962890625 c 0,8,9
 741.313943573 -24 741.313943573 -24 585.549346313 -24 c 0,10,11
 471.264102152 -24 471.264102152 -24 385.862304688 19.564453125 c 1,12,-1
 291.49609375 -98.392578125 l 1,13,-1
 147 19.5634765625 l 1,14,-1
 257.994140625 150.51171875 l 1,15,16
 210.11328125 237.581054688 210.11328125 237.581054688 210.11328125 354.0546875 c 0,17,18
 210.11328125 435.87890625 210.11328125 435.87890625 233.760742188 532.264648438 c 0,19,20
 293.747070312 778.724609375 293.747070312 778.724609375 454.977697427 920.862304688 c 0,21,22
 626.126226955 1063 626.126226955 1063 862.78888497 1063 c 0,23,24
 975.176788228 1063 975.176788228 1063 1060.390625 1017.89355469 c 1,25,-1
 1175.94921875 1207.58300781 l 1,26,-1
 1297.58007812 1017.92089844 l 1,27,-1
 1191.88183594 892.17578125 l 1,0,1
904.474517488 839.16015625 m 1,28,29
 867.189512568 852 867.189512568 852 816.582295194 852 c 0,30,31
 679.950114014 852 679.950114014 852 598.532057224 765.51171875 c 0,32,33
 512.510316533 674.131835938 512.510316533 674.131835938 464.804977856 484.301757812 c 0,34,35
 439.486327961 384.575195312 439.486327961 384.575195312 439.486327961 314.73828125 c 0,36,37
 439.486327961 310.7265625 439.486327961 310.7265625 439.571203347 306.831054688 c 1,38,-1
 904.474517488 839.16015625 l 1,28,29
1007.86992734 726.301757812 m 1,39,-1
 545.349570233 198.200195312 l 1,40,41
 581.007975987 187 581.007975987 187 631.755936089 187 c 0,42,43
 701.1292087 187 701.1292087 187 754.992847521 208.8828125 c 128,-1,44
 808.856486343 230.766601562 808.856486343 230.766601562 850.202617317 275.32421875 c 0,45,46
 936.91195607 368.771484375 936.91195607 368.771484375 984.640930931 557.73046875 c 0,47,48
 1007.97199268 648.448242188 1007.97199268 648.448242188 1007.97199268 717.338867188 c 0,49,50
 1007.97199268 721.874023438 1007.97199268 721.874023438 1007.86992734 726.301757812 c 1,39,-1
EndSplineSet
EndChar
StartChar: thorn
Encoding: 254 254 192
Width: 1229
GlyphClass: 2
Flags: W
LayerCount: 2
Fore
SplineSet
997.231445312 124.383789062 m 0,0,1
 844.464921851 -20 844.464921851 -20 641.194668375 -20 c 0,2,3
 471.812390773 -20 471.812390773 -20 386.202290368 90.2060546875 c 1,4,5
 374.772605408 23.7822265625 374.772605408 23.7822265625 368.312673339 -0.009765625 c 2,6,-1
 246.606445312 -492 l 1,7,-1
 23 -492 l 1,8,-1
 532.110779147 1556 l 1,9,-1
 776.318825381 1556 l 1,10,-1
 641.131733105 1019.08300781 l 1,11,-1
 624.239480093 962.493164062 l 1,12,13
 753.369852704 1063 753.369852704 1063 914.269736016 1063 c 0,14,15
 1004.15625 1063 1004.15625 1063 1066.46289062 1031.79101562 c 0,16,17
 1145.85449219 994.171875 1145.85449219 994.171875 1186.9453125 910.53515625 c 0,18,19
 1224.57226562 833.94921875 1224.57226562 833.94921875 1224.57226562 726.671875 c 0,20,21
 1224.57226562 633.137695312 1224.57226562 633.137695312 1195.140625 512.086914062 c 0,22,23
 1135.10449219 265.15234375 1135.10449219 265.15234375 997.231445312 124.383789062 c 0,0,1
506.004376001 516.674804688 m 2,24,25
 477.03921824 411.494140625 477.03921824 411.494140625 477.03921824 341.109375 c 0,26,27
 477.03921824 288.287109375 477.03921824 288.287109375 493.232783091 256.921875 c 0,28,29
 511.820021582 220.920898438 511.820021582 220.920898438 554.499734595 204.920898438 c 0,30,31
 591.634743696 191 591.634743696 191 647.748469998 191 c 0,32,33
 730.424080126 191 730.424080126 191 794.408981912 234.439453125 c 0,34,35
 909.672261245 312.690429688 909.672261245 312.690429688 969.724242038 530.9140625 c 0,36,37
 994.171875 625.311523438 994.171875 625.311523438 994.171875 696.3828125 c 128,-1,38
 994.171875 767.454101562 994.171875 767.454101562 964.336342949 806.618164062 c 0,39,40
 928.121895502 852 928.121895502 852 842.177918159 852 c 0,41,42
 714.477989555 852 714.477989555 852 641.200001872 785.640625 c 0,43,44
 563.992293294 715.723632812 563.992293294 715.723632812 515.777476664 552.219726562 c 1,45,-1
 506.004376001 516.674804688 l 2,24,25
EndSplineSet
EndChar
StartChar: dcroat
Encoding: 273 273 211
Width: 600
GlyphClass: 2
Flags: W
LayerCount: 2
Fore
SplineSet
325 517 m 0,0,1
 355 526 355 526 388 526 c 0,2,3
 470 526 470 526 511 472 c 1,4,5
 516 503 516 503 520 516 c 2,6,-1
 534 575 l 1,7,-1
 363 575 l 1,8,-1
 387 671 l 1,9,-1
 558 671 l 1,10,-1
 580 760 l 1,11,-1
 692 760 l 1,12,-1
 671 671 l 1,13,-1
 737 671 l 1,14,-1
 714 575 l 1,15,-1
 649 575 l 1,16,-1
 510 0 l 1,17,-1
 419 0 l 1,18,-1
 422 50 l 1,19,20
 349 -10 349 -10 257 -10 c 0,21,22
 211 -10 211 -10 180 6 c 0,23,24
 141 25 141 25 121 66 c 0,25,26
 103 104 103 104 103 156 c 0,27,28
 103 202 103 202 118 260 c 0,29,30
 148 384 148 384 215 454 c 0,31,32
 264 501 264 501 325 517 c 0,0,1
429 416 m 0,33,34
 411 423 411 423 385 423 c 0,35,36
 275 423 275 423 229 253 c 0,37,38
 216 205 216 205 216 171 c 0,39,40
 216 134 216 134 231 115 c 0,41,42
 250 93 250 93 294 93 c 0,43,44
 361 93 361 93 400 126 c 0,45,46
 438 161 438 161 460 243 c 1,47,-1
 452 260 l 2,48,49
 466 313 466 313 466 349 c 0,50,51
 466 358 466 358 465.5 363.5 c 128,-1,52
 465 369 465 369 464.5 372.5 c 128,-1,53
 464 376 464 376 463 379 c 0,54,55
 455 406 455 406 429 416 c 0,33,34
EndSplineSet
Validated: 1
EndChar
StartChar: Hbar
Encoding: 294 294 232
Width: 1229
GlyphClass: 2
Flags: W
LayerCount: 2
Fore
SplineSet
372 1026.85839844 m 1,0,-1
 247.126953125 1026.85839844 l 1,1,-1
 294.7265625 1228.57910156 l 1,2,-1
 420.815429688 1228.57910156 l 1,3,-1
 476.815429688 1462 l 1,4,-1
 712.3984375 1462 l 1,5,-1
 656.3984375 1219 l 1,6,-1
 1191.85050089 1219 l 1,7,-1
 1254.81542969 1462 l 1,8,-1
 1490.3984375 1462 l 1,9,-1
 1434.3984375 1228.57910156 l 1,10,-1
 1559.25976562 1228.57910156 l 1,11,-1
 1511.65917969 1026.85839844 l 1,12,-1
 1385.55761719 1026.85839844 l 1,13,-1
 1138.55761719 -0 l 1,14,-1
 903.997070312 0 l 1,15,-1
 1060.99707031 652 l 1,16,-1
 538.151862271 652 l 1,17,-1
 360.54296875 0 l 1,18,-1
 126 0 l 1,19,-1
 372 1026.85839844 l 1,0,-1
607.612304688 1039 m 1,20,-1
 570.333984375 876 l 1,21,-1
 1095.10824335 876 l 1,22,-1
 1137.02190933 1039 l 1,23,-1
 607.612304688 1039 l 1,20,-1
EndSplineSet
EndChar
StartChar: hbar
Encoding: 295 295 233
Width: 1229
GlyphClass: 2
Flags: W
LayerCount: 2
Fore
SplineSet
987.5 657.227539062 m 2,0,1
 1000.47363281 709.803710938 1000.47363281 709.803710938 1000.47363281 749.518554688 c 0,2,3
 1000.47363281 816.2734375 1000.47363281 816.2734375 963.7734375 843.521484375 c 0,4,5
 933.498046875 866 933.498046875 866 872.176757812 866 c 0,6,7
 737.780318461 866 737.780318461 866 651.015801641 787.814453125 c 0,8,9
 560.021166976 705.818359375 560.021166976 705.818359375 506.862087947 515.51171875 c 2,10,-1
 360.596679688 -0 l 1,11,-1
 137 0 l 1,12,-1
 432.258599206 1177 l 1,13,-1
 288.913085938 1177 l 1,14,-1
 334.927734375 1374 l 1,15,-1
 483.776993609 1374 l 1,16,-1
 532.0084115 1556 l 1,17,-1
 791.066121593 1556 l 1,18,-1
 742.834703702 1374 l 1,19,-1
 1110.28515625 1374 l 1,20,-1
 1065.70800781 1177 l 1,21,-1
 687.956438391 1177 l 1,22,-1
 645.608158945 1015.44433594 l 1,23,-1
 631.82102512 974.28125 l 1,24,25
 771.876952333 1077 771.876952333 1077 943.733398438 1077 c 0,26,27
 1032.54101562 1077 1032.54101562 1077 1096.27441406 1050.01855469 c 0,28,29
 1232.16601562 995.599609375 1232.16601562 995.599609375 1232.16601562 823.642578125 c 0,30,31
 1232.16601562 753.313476562 1232.16601562 753.313476562 1209.96582031 661.44140625 c 2,32,-1
 1048.60351562 -0 l 1,33,-1
 824.999023438 0 l 1,34,-1
 987.5 657.227539062 l 2,0,1
EndSplineSet
EndChar
StartChar: dotlessi
Encoding: 305 305 243
Width: 600
GlyphClass: 2
Flags: W
LayerCount: 2
Fore
SplineSet
431 392 m 1,0,-1
 374 159 l 2,1,2
 370 143 370 143 370 133 c 128,-1,3
 370 123 370 123 371.5 117 c 128,-1,4
 373 111 373 111 376 107 c 128,-1,5
 379 103 379 103 383 100.5 c 128,-1,6
 387 98 387 98 392 96 c 0,7,8
 403 92 403 92 422 92 c 0,9,10
 464 92 464 92 507 102 c 2,11,-1
 530 107 l 1,12,-1
 508 9 l 1,13,-1
 500 7 l 2,14,15
 455 -10 455 -10 396 -10 c 128,-1,16
 337 -10 337 -10 303 13 c 0,17,18
 258 41 258 41 258 103 c 0,19,20
 258 128 258 128 265 159 c 2,21,-1
 329 417 l 1,22,-1
 218 426 l 1,23,-1
 238 509 l 1,24,-1
 460 509 l 1,25,-1
 431 392 l 1,0,-1
419 412 m 1025,26,-1
EndSplineSet
Validated: 1
EndChar
StartChar: IJ
Encoding: 306 306 244
Width: 1229
GlyphClass: 2
Flags: W
LayerCount: 2
Fore
SplineSet
492.830078125 1462 m 1,0,-1
 727.415039062 1462 l 1,1,-1
 376.583984375 0 l 1,2,-1
 142 0 l 1,3,-1
 492.830078125 1462 l 1,0,-1
549.959960938 241.833007812 m 2,4,5
 618.922851562 201 618.922851562 201 697.70703125 201 c 0,6,7
 790.293540184 201 790.293540184 201 853.853931431 272.78125 c 0,8,9
 908.696585471 334.717773438 908.696585471 334.717773438 940.486236341 448.951171875 c 2,10,-1
 1218.82421875 1462 l 1,11,-1
 1454.43261719 1462 l 1,12,-1
 1207.56913836 440.602539062 l 2,13,14
 1152.61302136 239.227539062 1152.61302136 239.227539062 1041.67294646 125.766601562 c 0,15,16
 899.143449434 -20 899.143449434 -20 675.70703125 -20 c 0,17,18
 541.229492188 -20 541.229492188 -20 479.041015625 29.5205078125 c 2,19,-1
 464.27734375 41.2763671875 l 1,20,-1
 514.560546875 262.793945312 l 1,21,-1
 549.959960938 241.833007812 l 2,4,5
EndSplineSet
EndChar
StartChar: ij
Encoding: 307 307 245
Width: 600
GlyphClass: 2
Flags: W
LayerCount: 2
Fore
SplineSet
267 735 m 0,0,1
 287 757 287 757 319 757 c 0,2,3
 348 757 348 757 365 747 c 0,4,5
 388 734 388 734 388 708 c 0,6,7
 388 697 388 697 384 683 c 0,8,9
 374 650 374 650 345 633 c 0,10,11
 317 616 317 616 293 616 c 0,12,13
 272 616 272 616 259 625 c 0,14,15
 242 638 242 638 242 664 c 0,16,17
 242 675 242 675 244.5 687 c 128,-1,18
 247 699 247 699 250 707 c 0,19,20
 257 724 257 724 267 735 c 0,0,1
564 735 m 0,21,22
 584 757 584 757 616 757 c 0,23,24
 644 757 644 757 657 739 c 0,25,26
 666 727 666 727 666 708 c 0,27,28
 666 697 666 697 663 683 c 0,29,30
 656 650 656 650 635 633 c 0,31,32
 614 616 614 616 590 616 c 0,33,34
 569 616 569 616 556 626 c 0,35,36
 539 639 539 639 539 665 c 0,37,38
 539 676 539 676 542 690 c 0,39,40
 549 718 549 718 564 735 c 0,21,22
84 -7 m 1,41,-1
 210 509 l 1,42,-1
 319 509 l 1,43,-1
 193 -7 l 1,44,-1
 84 -7 l 1,41,-1
205 -121 m 2,45,46
 234 -137 234 -137 273 -138 c 0,47,48
 304 -138 304 -138 326 -112 c 0,49,50
 350 -90 350 -90 363 -48 c 2,51,-1
 493 417 l 1,52,-1
 398 426 l 1,53,-1
 425 509 l 1,54,-1
 625 509 l 1,55,-1
 488 -52 l 2,56,57
 467 -142 467 -142 414 -191 c 0,58,59
 345 -240 345 -240 268 -240 c 0,60,61
 212 -240 212 -240 174 -222 c 2,62,-1
 164 -217 l 1,63,-1
 188 -112 l 1,64,-1
 205 -121 l 2,45,46
EndSplineSet
Validated: 1
EndChar
StartChar: kgreenlandic
Encoding: 312 312 250
Width: 1229
GlyphClass: 2
Flags: W
LayerCount: 2
Fore
SplineSet
407.59375 -0 m 1,0,-1
 186 -0 l 1,1,-1
 440.864257812 1043 l 1,2,-1
 662.485351562 1043 l 1,3,-1
 589.608398438 728.859375 l 1,4,-1
 539.775390625 551.953125 l 1,5,-1
 617.83203125 631.530273438 l 1,6,-1
 1122.99511719 1043 l 1,7,-1
 1395.59863281 1043 l 1,8,-1
 775.421530838 551.203125 l 1,9,-1
 1152.30957031 -0 l 1,10,-1
 901.557617188 0 l 1,11,-1
 611.012214265 434.516601562 l 1,12,-1
 507.225990452 378.954101562 l 1,13,-1
 407.59375 -0 l 1,0,-1
EndSplineSet
EndChar
StartChar: Lslash
Encoding: 321 321 259
Width: 1229
GlyphClass: 2
Flags: W
LayerCount: 2
Fore
SplineSet
562.411328409 226 m 1,0,-1
 1245.38964844 226 l 1,1,-1
 1193.65527344 -0 l 1,2,-1
 248.064453125 -0 l 1,3,-1
 354.000976562 443.061523438 l 1,4,-1
 247.305664062 383.403320312 l 1,5,-1
 190 559.833984375 l 1,6,-1
 412.405273438 685.208984375 l 1,7,-1
 658.866210938 1462 l 1,8,-1
 894.461914062 1462 l 1,9,-1
 744.653320312 843.1875 l 1,10,-1
 1098.18554688 1007.50195312 l 1,11,-1
 1161.09375 833.095703125 l 1,12,-1
 677.528080573 600.5 l 1,13,-1
 562.411328409 226 l 1,0,-1
EndSplineSet
EndChar
StartChar: lslash
Encoding: 322 322 260
Width: 600
GlyphClass: 2
Flags: W
LayerCount: 2
Fore
SplineSet
384 161 m 2,0,1
 379 145 379 145 379 132.5 c 128,-1,2
 379 120 379 120 383.5 112.5 c 128,-1,3
 388 105 388 105 397 100 c 0,4,5
 413 92 413 92 443 92 c 0,6,7
 489 92 489 92 532 102 c 2,8,-1
 554 107 l 1,9,-1
 532 9 l 1,10,-1
 525 7 l 2,11,12
 480 -10 480 -10 413 -10 c 0,13,14
 336 -10 336 -10 298 13 c 0,15,16
 253 42 253 42 253 104 c 0,17,18
 253 130 253 130 261 161 c 2,19,-1
 285 261 l 1,20,-1
 230 226 l 1,21,-1
 202 311 l 1,22,-1
 314 380 l 1,23,-1
 400 662 l 1,24,-1
 272 673 l 1,25,-1
 292 760 l 1,26,-1
 543 760 l 1,27,-1
 471 462 l 1,28,-1
 538 503 l 1,29,-1
 565 419 l 1,30,-1
 442 342 l 1,31,-1
 417 265 l 1,32,-1
 384 161 l 2,0,1
EndSplineSet
EndChar
StartChar: napostrophe
Encoding: 329 329 267
Width: 600
GlyphClass: 2
Flags: W
LayerCount: 2
Fore
SplineSet
188 420 m 2,0,-1
 184 413 l 1,1,-1
 95 413 l 1,2,-1
 104 433 l 2,3,4
 159 563 159 563 211 714 c 1,5,-1
 335 714 l 1,6,-1
 344 685 l 1,7,-1
 341 681 l 2,8,9
 287 573 287 573 188 420 c 2,0,-1
514 321 m 2,10,11
 520 345 520 345 520 364 c 0,12,13
 520 388 520 388 510 401 c 0,14,15
 497 416 497 416 466 416 c 128,-1,16
 435 416 435 416 407 404 c 0,17,18
 356 383 356 383 324 321 c 0,19,20
 309 293 309 293 299 256 c 2,21,-1
 225 0 l 1,22,-1
 116 0 l 1,23,-1
 243 509 l 1,24,-1
 350 509 l 1,25,-1
 346 461 l 1,26,27
 371 482 371 482 401 496 c 0,28,29
 450 519 450 519 498 519 c 0,30,31
 557 519 557 519 590 495 c 0,32,33
 633 464 633 464 633 397 c 0,34,35
 633 365 633 365 623 326 c 2,36,-1
 544 0 l 1,37,-1
 435 0 l 1,38,-1
 514 321 l 2,10,11
EndSplineSet
Validated: 5
EndChar
StartChar: Eng
Encoding: 330 330 268
Width: 1229
GlyphClass: 2
Flags: W
LayerCount: 2
Fore
SplineSet
344.578125 -0 m 1,0,-1
 123 -0 l 1,1,-1
 473.830078125 1462 l 1,2,-1
 719.216796875 1462 l 1,3,-1
 1005.56748476 428.3515625 l 1,4,5
 1042.6943568 613.762695312 1042.6943568 613.762695312 1067.97140967 713.7890625 c 2,6,-1
 1262.85839844 1462 l 1,7,-1
 1485.43066406 1462 l 1,8,-1
 1129.17663124 32.529296875 l 2,9,10
 1075.08130117 -167.70703125 1075.08130117 -167.70703125 934.811056473 -276.4765625 c 0,11,12
 794.54081178 -389 794.54081178 -389 600.70703125 -389 c 0,13,14
 507.109375 -389 507.109375 -389 449.161132812 -362.254882812 c 2,15,-1
 426.975585938 -352.014648438 l 1,16,-1
 476.672851562 -137.108398438 l 1,17,-1
 507.291015625 -146.248046875 l 2,18,19
 570.110351562 -165 570.110351562 -165 640.70703125 -165 c 0,20,21
 738.66279469 -165 738.66279469 -165 801.084283017 -105.159179688 c 0,22,23
 850.941340581 -57.36328125 850.941340581 -57.36328125 875.030667256 29.8818359375 c 1,24,-1
 591.118164062 1112.85644531 l 1,25,26
 557.666992188 924.415039062 557.666992188 924.415039062 532.940429688 816.237304688 c 2,27,-1
 344.578125 -0 l 1,0,-1
EndSplineSet
EndChar
StartChar: eng
Encoding: 331 331 269
Width: 600
GlyphClass: 2
Flags: W
LayerCount: 2
Fore
SplineSet
175 -7 m 1,0,-1
 66 -7 l 1,1,-1
 221 509 l 1,2,-1
 312 509 l 1,3,-1
 309 460 l 1,4,5
 379 519 379 519 480 519 c 0,6,7
 548 519 548 519 584 494 c 0,8,9
 631 462 631 462 630 393 c 0,10,11
 630 362 630 362 621 322 c 2,12,-1
 525 -71 l 2,13,14
 508 -145 508 -145 464 -186 c 0,15,16
 407 -240 407 -240 315 -240 c 0,17,18
 269 -240 269 -240 241 -226 c 2,19,-1
 231 -220 l 1,20,-1
 259 -121 l 1,21,-1
 279 -128 l 2,22,23
 300 -136 300 -136 327 -136.5 c 128,-1,24
 354 -137 354 -137 371 -118 c 0,25,26
 387 -101 387 -101 397 -68 c 2,27,-1
 512 318 l 2,28,29
 518 342 518 342 518 360 c 0,30,31
 518 392 518 392 498 405 c 0,32,33
 480 416 480 416 445 416 c 0,34,35
 370 416 370 416 322 368 c 0,36,37
 287 327 287 327 251 253 c 2,38,-1
 175 -7 l 1,0,-1
EndSplineSet
EndChar
StartChar: OE
Encoding: 338 338 276
Width: 1229
GlyphClass: 2
Flags: W
LayerCount: 2
Fore
SplineSet
907.893055543 224 m 1,0,-1
 1303.26050196 224 l 1,1,-1
 1247.95338923 0 l 1,2,-1
 656.910587169 0 l 1,3,-1
 609.732680347 -9.41796875 l 2,4,5
 553.351663306 -20 553.351663306 -20 504.340210554 -20 c 0,6,7
 298.895507812 -20 298.895507812 -20 209.05859375 109.623046875 c 0,8,9
 139.311523438 210.258789062 139.311523438 210.258789062 139.311523438 387.100585938 c 0,10,11
 139.311523438 536.224609375 139.311523438 536.224609375 188.766601562 741.405273438 c 0,12,13
 267.045898438 1067.75878906 267.045898438 1067.75878906 408.951076188 1250.65527344 c 0,14,15
 600.689823292 1485 600.689823292 1485 898.604615719 1485 c 0,16,17
 982.025752502 1485 982.025752502 1485 1051.28321525 1462 c 1,18,-1
 1605.75195312 1462 l 1,19,-1
 1553.84863281 1238 l 1,20,-1
 1172.33783021 1238 l 1,21,-1
 1076.22859722 865.153320312 l 1,22,-1
 1427.85644531 865.153320312 l 1,23,-1
 1375.78320312 654 l 1,24,-1
 1021.00889531 654 l 1,25,-1
 907.893055543 224 l 1,0,-1
482.925601195 950.534179688 m 0,26,27
 451.091414426 863.438476562 451.091414426 863.438476562 424.666292211 756.22265625 c 0,28,29
 379.274414062 569.87109375 379.274414062 569.87109375 379.274414062 447.186523438 c 0,30,31
 379.274414062 331.884765625 379.274414062 331.884765625 415.66401875 271.721679688 c 0,32,33
 457.664915924 203 457.664915924 203 554.422445804 203 c 0,34,35
 610.626560003 203 610.626560003 203 667.391560271 226.877929688 c 1,36,-1
 931.566818258 1303.76757812 l 1,37,38
 895.9541949 1321 895.9541949 1321 848.266391649 1321 c 128,-1,39
 800.577547794 1321 800.577547794 1321 759.203094803 1306.55859375 c 0,40,41
 591.683387411 1248.0859375 591.683387411 1248.0859375 482.925601195 950.534179688 c 0,26,27
EndSplineSet
EndChar
StartChar: oe
Encoding: 339 339 277
Width: 1229
GlyphClass: 2
Flags: W
LayerCount: 2
Fore
SplineSet
875.841734312 191.388671875 m 0,0,1
 891.595412926 184.998046875 891.595412926 184.998046875 913.935532622 184.998046875 c 0,2,3
 1006.60101641 184.998046875 1006.60101641 184.998046875 1102.70800781 245.662109375 c 2,4,-1
 1167.06640625 288.454101562 l 1,5,-1
 1110.72460938 60.3408203125 l 1,6,-1
 1101.77832031 54.1376953125 l 2,7,8
 988.377958046 -20 988.377958046 -20 860.181260053 -20 c 0,9,10
 811.783559606 -20 811.783559606 -20 770.532597686 -2.7041015625 c 128,-1,11
 729.281635767 14.5927734375 729.281635767 14.5927734375 697.996040624 48.05859375 c 0,12,13
 661.720262893 86.8623046875 661.720262893 86.8623046875 645.622692348 141.658203125 c 1,14,15
 515.715105219 -20 515.715105219 -20 360 -20 c 0,16,17
 210.919921875 -20 210.919921875 -20 158.852539062 138.303710938 c 0,18,19
 137.498046875 203.23046875 137.498046875 203.23046875 137.498046875 287.6171875 c 0,20,21
 137.498046875 392.912109375 137.498046875 392.912109375 170.770507812 529.344726562 c 0,22,23
 231.231445312 776.940429688 231.231445312 776.940429688 344.69921875 916.852539062 c 0,24,25
 470.982371419 1063 470.982371419 1063 634.193910066 1063 c 0,26,27
 754.760706727 1063 754.760706727 1063 814.695392212 966 c 0,28,29
 832.478140347 937.21875 832.478140347 937.21875 844.273312162 900.092773438 c 1,30,31
 968.989309589 1063 968.989309589 1063 1109 1063 c 0,32,33
 1184.66992188 1063 1184.66992188 1063 1233.31933594 1014.80273438 c 0,34,35
 1270.69628906 979.649414062 1270.69628906 979.649414062 1289.05273438 920.951171875 c 128,-1,36
 1307.40917969 862.252929688 1307.40917969 862.252929688 1307.40917969 790.224609375 c 0,37,38
 1307.40917969 697.630859375 1307.40917969 697.630859375 1278.2421875 578.5703125 c 2,39,-1
 1247.90332031 453 l 1,40,-1
 847.289062267 453 l 1,41,42
 826.896592194 339.484375 826.896592194 339.484375 826.640548047 307.671875 c 0,43,44
 825.868130347 211.663085938 825.868130347 211.663085938 875.841734312 191.388671875 c 0,0,1
363.780273438 207.67578125 m 0,45,46
 377.567382812 191 377.567382812 191 408.20656008 191 c 0,47,48
 447.063134261 191 447.063134261 191 483.443900806 221.969726562 c 0,49,50
 568.353068158 294.249023438 568.353068158 294.249023438 630.64036012 520.798828125 c 0,51,52
 668.983774691 659.423828125 668.983774691 659.423828125 668.983774691 742.922851562 c 0,53,54
 668.983774691 829.525390625 668.983774691 829.525390625 630.862122206 847.06640625 c 0,55,56
 620.13933613 852 620.13933613 852 604.574208855 852 c 0,57,58
 539.092257279 852 539.092257279 852 487.731301134 777.755859375 c 0,59,60
 429.280386127 693.264648438 429.280386127 693.264648438 380.215820312 516.60546875 c 0,61,62
 344.200195312 375.200195312 344.200195312 375.200195312 344.200195312 292.286132812 c 0,63,64
 344.200195312 231.359375 344.200195312 231.359375 363.780273438 207.67578125 c 0,45,46
1074.81152344 849.1328125 m 128,-1,66
 1068.65332031 852 1068.65332031 852 1059.83998674 852 c 0,67,68
 1024.21449686 852 1024.21449686 852 988.869691367 814.516601562 c 0,69,70
 943.305617573 766.196289062 943.305617573 766.196289062 903.638058373 661 c 1,71,-1
 1076.94433594 661 l 1,72,73
 1095.70800781 736.795898438 1095.70800781 736.795898438 1095.70800781 784.609375 c 0,74,75
 1095.70800781 803.129882812 1095.70800781 803.129882812 1093.57519531 813.383789062 c 0,76,77
 1090.11132812 830.037109375 1090.11132812 830.037109375 1085.54101562 838.151367188 c 128,-1,65
 1080.97070312 846.264648438 1080.97070312 846.264648438 1074.81152344 849.1328125 c 128,-1,66
EndSplineSet
EndChar
StartChar: Tbar
Encoding: 358 358 296
Width: 600
GlyphClass: 2
Flags: W
LayerCount: 2
Fore
SplineSet
311 312 m 1,0,-1
 176 312 l 1,1,-1
 199 415 l 1,2,-1
 338 415 l 1,3,-1
 390 610 l 1,4,-1
 191 610 l 1,5,-1
 217 714 l 1,6,-1
 740 714 l 1,7,-1
 715 604 l 1,8,-1
 516 604 l 1,9,-1
 465 410 l 1,10,-1
 611 410 l 1,11,-1
 585 312 l 1,12,-1
 435 312 l 1,13,-1
 350 0 l 1,14,-1
 235 0 l 1,15,-1
 311 312 l 1,0,-1
EndSplineSet
EndChar
StartChar: tbar
Encoding: 359 359 297
Width: 1229
GlyphClass: 2
Flags: W
LayerCount: 2
Fore
SplineSet
984.276180264 13.009765625 m 2,0,1
 841.003236873 -20 841.003236873 -20 713.74093781 -20 c 0,2,3
 573.521484375 -20 573.521484375 -20 503.63671875 26.685546875 c 0,4,5
 457.94140625 55.9248046875 457.94140625 55.9248046875 435.140625 103.344726562 c 128,-1,6
 412.33984375 150.764648438 412.33984375 150.764648438 412.33984375 212.659179688 c 0,7,8
 412.33984375 264.356445312 412.33984375 264.356445312 427.591796875 327.46484375 c 2,9,-1
 473.192382812 518.350585938 l 1,10,-1
 335.345703125 518.350585938 l 1,11,-1
 379.823242188 708 l 1,12,-1
 519.005859375 708 l 1,13,-1
 558.05859375 862.311523438 l 1,14,-1
 329 862.311523438 l 1,15,-1
 363.982421875 999.603515625 l 1,16,-1
 612.603172623 1046.19433594 l 1,17,-1
 784.643282185 1391 l 1,18,-1
 960.029068218 1391 l 1,19,-1
 866.277788078 1043 l 1,20,-1
 1261.65820312 1043 l 1,21,-1
 1215.64355469 846 l 1,22,-1
 814.241215993 846 l 1,23,-1
 769.040674751 691.770507812 l 1,24,-1
 1064.32910156 691.770507812 l 1,25,-1
 1019.8515625 510 l 1,26,-1
 715.941624326 510 l 1,27,28
 658.64691476 312.6875 658.64691476 312.6875 656.970685636 305.313476562 c 128,-1,29
 655.295586808 297.940429688 655.295586808 297.940429688 654.233108469 291.264648438 c 0,30,31
 652.119454753 277.982421875 652.119454753 277.982421875 652.119454753 266.66015625 c 0,32,33
 652.119454753 222.486328125 652.119454753 222.486328125 683.913553893 204.752929688 c 0,34,35
 712.157392966 189 712.157392966 189 768.139828755 189 c 0,36,37
 858.182607374 189 858.182607374 189 1006.14175842 207.68359375 c 2,38,-1
 1050.82324219 214.01953125 l 1,39,-1
 1004.51978351 17.673828125 l 1,40,-1
 984.276180264 13.009765625 l 2,0,1
EndSplineSet
EndChar
StartChar: longs
Encoding: 383 383 321
Width: 1229
GlyphClass: 2
Flags: W
LayerCount: 2
Fore
SplineSet
1252.76757812 1330.56542969 m 2,0,1
 1174.40917969 1357 1174.40917969 1357 1072.24424363 1357 c 0,2,3
 976.902510884 1357 976.902510884 1357 931.513653183 1316.26269531 c 128,-1,4
 886.12376126 1275.52539062 886.12376126 1275.52539062 859.6197793 1165.22070312 c 2,5,-1
 534.481376489 -101.829101562 l 2,6,7
 484.548151646 -304.045898438 484.548151646 -304.045898438 373.010517801 -398.022460938 c 128,-1,8
 261.472883957 -492 261.472883957 -492 57.6817013209 -492 c 0,9,10
 -59.8623046875 -492 -59.8623046875 -492 -162.729492188 -455.26171875 c 2,11,-1
 -194 -444.09375 l 1,12,-1
 -100.301757812 -247.052734375 l 1,13,-1
 -75.0654296875 -255.565429688 l 2,14,15
 3.29296875 -282 3.29296875 -282 89.452970913 -282 c 0,16,17
 188.428956305 -282 188.428956305 -282 232.088596468 -240.897460938 c 0,18,19
 253.757595182 -219.965820312 253.757595182 -219.965820312 271.990911683 -182.055664062 c 128,-1,20
 290.224228184 -144.146484375 290.224228184 -144.146484375 303.136477561 -90.220703125 c 2,21,-1
 628.263503941 1176.78515625 l 2,22,23
 677.095283403 1375.89257812 677.095283403 1375.89257812 788.581206196 1471.44628906 c 128,-1,24
 900.068163211 1567 900.068163211 1567 1102.9564709 1567 c 0,25,26
 1216.69238281 1567 1216.69238281 1567 1339.81933594 1530.78613281 c 2,27,-1
 1373.74023438 1520.80957031 l 1,28,-1
 1277.86035156 1322.10058594 l 1,29,-1
 1252.76757812 1330.56542969 l 2,0,1
EndSplineSet
EndChar
StartChar: florin
Encoding: 402 402 322
Width: 1229
GlyphClass: 2
Flags: W
LayerCount: 2
Fore
SplineSet
924.029979953 978.219726562 m 1,0,-1
 1147.54785156 978.219726562 l 1,1,-1
 1101.53320312 790.729492188 l 1,2,-1
 875.282112239 790.729492188 l 1,3,-1
 640.540410188 -101.78515625 l 2,4,5
 590.80632617 -299.985351562 590.80632617 -299.985351562 490.101155065 -394.525390625 c 0,6,7
 386.271202043 -492 386.271202043 -492 212.727539062 -492 c 0,8,9
 164.823242188 -492 164.823242188 -492 104.08203125 -476.015625 c 2,10,-1
 76 -468.625 l 1,11,-1
 125.241210938 -253.372070312 l 1,12,-1
 157.643554688 -266.05078125 l 2,13,14
 198.40234375 -282 198.40234375 -282 240.727539062 -282 c 0,15,16
 290.193359375 -282 290.193359375 -282 318.443359375 -259.631835938 c 0,17,18
 346.255369676 -239.10546875 346.255369676 -239.10546875 370.621896329 -182.418945312 c 0,19,20
 387.211916951 -143.82421875 387.211916951 -143.82421875 400.570280284 -90.2431640625 c 2,21,-1
 631.941704513 791.291015625 l 1,22,-1
 452.222830139 791.291015625 l 1,23,-1
 483.522499738 912.576171875 l 1,24,-1
 680.859937919 977.3359375 l 1,25,-1
 711.561740339 1092.78515625 l 2,26,27
 761.285242637 1290.93945312 761.285242637 1290.93945312 861.393604734 1385.46386719 c 0,28,29
 964.692355412 1483 964.692355412 1483 1142.72753906 1483 c 0,30,31
 1233.48925781 1483 1233.48925781 1483 1317.55761719 1443.12109375 c 2,32,-1
 1345.49707031 1429.86816406 l 1,33,-1
 1246.36132812 1235.72851562 l 1,34,-1
 1220.23730469 1247.71972656 l 2,35,36
 1165.16210938 1273 1165.16210938 1273 1115.72753906 1273 c 0,37,38
 1047.64669121 1273 1047.64669121 1273 1015.70365303 1233.95019531 c 0,39,40
 978.160768633 1188.05371094 978.160768633 1188.05371094 951.504357771 1081.13476562 c 2,41,-1
 924.029979953 978.219726562 l 1,0,-1
EndSplineSet
EndChar
StartChar: Ohorn
Encoding: 416 416 323
Width: 600
GlyphClass: 2
Flags: W
LayerCount: 2
Fore
SplineSet
347 698 m 0,0,1
 406 725 406 725 478 725 c 0,2,3
 591 725 591 725 642 650 c 1,4,5
 659 673 659 673 672 712 c 2,6,-1
 688 760 l 1,7,-1
 798 760 l 1,8,-1
 809 734 l 1,9,10
 796 704 796 704 782 680 c 0,11,12
 754 630 754 630 714 595 c 0,13,14
 697 580 697 580 676 568 c 1,15,16
 681 541 681 541 681 508 c 0,17,18
 681 440 681 440 659 355 c 0,19,20
 638 274 638 274 605.5 207.5 c 128,-1,21
 573 141 573 141 527 92 c 0,22,23
 481 43 481 43 423 17 c 0,24,25
 365 -10 365 -10 296 -10 c 0,26,27
 223 -10 223 -10 179 18 c 0,28,29
 136 46 136 46 116 97 c 0,30,31
 99 141 99 141 99 200 c 0,32,33
 99 271 99 271 120 362 c 0,34,35
 139 443 139 443 169.5 509.5 c 128,-1,36
 200 576 200 576 243 624 c 0,37,38
 288 672 288 672 347 698 c 0,0,1
240 355 m 0,39,40
 218 271 218 271 218 214 c 0,41,42
 218 184 218 184 224 161 c 0,43,44
 233 130 233 130 255 114.5 c 128,-1,45
 277 99 277 99 316.5 99 c 128,-1,46
 356 99 356 99 388 116 c 0,47,48
 453 150 453 150 495 249 c 0,49,50
 516 299 516 299 533 361 c 0,51,52
 555 447 555 447 556 503 c 0,53,54
 556 554 556 554 537 581 c 0,55,56
 529 592 529 592 519 600 c 0,57,58
 498 616 498 616 458 616 c 128,-1,59
 418 616 418 616 385 599 c 0,60,61
 320 565 320 565 278 467 c 0,62,63
 256 418 256 418 240 355 c 0,39,40
EndSplineSet
Validated: 1
EndChar
StartChar: ohorn
Encoding: 417 417 324
Width: 1229
GlyphClass: 2
Flags: W
LayerCount: 2
Fore
SplineSet
1391.63867188 980.51953125 m 0,0,1
 1309.71972656 859.3203125 1309.71972656 859.3203125 1207.45991808 806.576171875 c 1,2,3
 1223.33848211 749.14453125 1223.33848211 749.14453125 1223.33848211 677.85546875 c 128,-1,4
 1223.33848211 606.565429688 1223.33848211 606.565429688 1199.79836601 517.876953125 c 0,5,6
 1166.4085864 390.294921875 1166.4085864 390.294921875 1104.16862063 290.9140625 c 128,-1,7
 1041.92760085 191.532226562 1041.92760085 191.532226562 958.526405069 122.993164062 c 128,-1,8
 875.124155288 54.4541015625 875.124155288 54.4541015625 774.478406836 18.1484375 c 0,9,10
 673.832658383 -20 673.832658383 -20 566.885022487 -20 c 128,-1,11
 459.938440596 -20 459.938440596 -20 381.7890625 19.5712890625 c 0,12,13
 304.845703125 56.9716796875 304.845703125 56.9716796875 258.353515625 128.313476562 c 128,-1,14
 211.861328125 199.655273438 211.861328125 199.655273438 200.66015625 301.994140625 c 0,15,16
 197.77734375 328.331054688 197.77734375 328.331054688 197.77734375 356.494140625 c 0,17,18
 197.77734375 435.98046875 197.77734375 435.98046875 220.778320312 530.182617188 c 0,19,20
 251.6953125 655.833984375 251.6953125 655.833984375 308.806640625 754.959960938 c 128,-1,21
 365.918945312 854.0859375 365.918945312 854.0859375 442.729492188 922.706054688 c 0,22,23
 567.806221622 1026.28808594 567.806221622 1026.28808594 729.283787058 1053.57128906 c 0,24,25
 782.030342531 1063 782.030342531 1063 836.901769235 1063 c 0,26,27
 935.212899744 1063 935.212899744 1063 1013.24605526 1026.85058594 c 0,28,29
 1078.59954762 996.57421875 1078.59954762 996.57421875 1124.47189171 941.907226562 c 1,30,31
 1144.32826527 954.951171875 1144.32826527 954.951171875 1158.92305293 971.729492188 c 0,32,33
 1186.84782395 1003.83105469 1186.84782395 1003.83105469 1206.19827579 1043.36523438 c 0,34,35
 1226.20431786 1084.24023438 1226.20431786 1084.24023438 1241.42202164 1135.29296875 c 128,-1,36
 1256.64077942 1186.34570312 1256.64077942 1186.34570312 1275.06640625 1266 c 1,37,-1
 1495.68066406 1266 l 1,38,-1
 1505.92089844 1200.4609375 l 1,39,40
 1448.41210938 1064.51660156 1448.41210938 1064.51660156 1391.63867188 980.51953125 c 0,0,1
424.619140625 365.354492188 m 128,-1,42
 424.619140625 302.823242188 424.619140625 302.823242188 444.327593479 263.350585938 c 0,43,44
 483.203461756 191 483.203461756 191 604.852339673 191 c 0,45,46
 747.85849226 191 747.85849226 191 839.051936551 291.21484375 c 0,47,48
 915.478790597 375.202148438 915.478790597 375.202148438 957.540911716 529.110351562 c 0,49,50
 980.988275497 615.858398438 980.988275497 615.858398438 980.988275497 678.276367188 c 0,51,52
 980.988275497 782.59765625 980.988275497 782.59765625 920.26712889 822.880859375 c 0,53,54
 876.376311549 852 876.376311549 852 798.046981029 852 c 0,55,56
 626.350850823 852 626.350850823 852 529.77250221 708.322265625 c 0,57,58
 478.850426945 632.565429688 478.850426945 632.565429688 447.533872388 516.705078125 c 0,59,41
 424.619140625 427.885742188 424.619140625 427.885742188 424.619140625 365.354492188 c 128,-1,42
EndSplineSet
EndChar
StartChar: Uhorn
Encoding: 431 431 325
Width: 1229
GlyphClass: 2
Flags: W
LayerCount: 2
Fore
SplineSet
1109.93657796 478.666015625 m 2,0,1
 1044.84579073 243.270507812 1044.84579073 243.270507812 900.610821305 117.478515625 c 0,2,3
 741.329139211 -20 741.329139211 -20 520.981445312 -20 c 0,4,5
 302.956054688 -20 302.956054688 -20 230.649414062 118.985351562 c 0,6,7
 196 185.588867188 196 185.588867188 196 281.782226562 c 0,8,9
 196 374.452148438 196 374.452148438 224.767578125 494.919921875 c 2,10,-1
 457.1328125 1462 l 1,11,-1
 691.696289062 1462 l 1,12,-1
 459.239257812 498.193359375 l 2,13,14
 435.158203125 398.206054688 435.158203125 398.206054688 435.158203125 334.346679688 c 0,15,16
 435.158203125 268.916015625 435.158203125 268.916015625 460.6171875 238.479492188 c 0,17,18
 490.293945312 203 490.293945312 203 566 203 c 0,19,20
 620.569335938 203 620.569335938 203 659.735351562 222.719726562 c 0,21,22
 700.101898327 242.439453125 700.101898327 242.439453125 734.758661607 281.110351562 c 128,-1,23
 769.414285763 319.78125 769.414285763 319.78125 796.173489885 378.630859375 c 128,-1,24
 822.933833134 437.48046875 822.933833134 437.48046875 844.586336304 513.948242188 c 2,25,-1
 1112.1328125 1462 l 1,26,-1
 1346.76074219 1462 l 1,27,-1
 1305.37792969 1283.59472656 l 1,28,29
 1326.32714844 1295.59667969 1326.32714844 1295.59667969 1346.86328125 1320.35546875 c 0,30,31
 1381.30566406 1361.87988281 1381.30566406 1361.87988281 1403.91699219 1432.63085938 c 0,32,33
 1419.00585938 1479.84472656 1419.00585938 1479.84472656 1430.71289062 1532.52734375 c 2,34,-1
 1435.9296875 1556 l 1,35,-1
 1666.01855469 1556 l 1,36,-1
 1685.28710938 1503.01074219 l 1,37,38
 1626.11425781 1372.07128906 1626.11425781 1372.07128906 1570.5078125 1300.73925781 c 0,39,40
 1498.71484375 1208.64355469 1498.71484375 1208.64355469 1398.95996094 1153.2734375 c 0,41,42
 1337.15527344 1118.96875 1337.15527344 1118.96875 1258.97460938 1101.51464844 c 1,43,-1
 1109.93657796 478.666015625 l 2,0,1
EndSplineSet
EndChar
StartChar: uhorn
Encoding: 432 432 326
Width: 600
GlyphClass: 2
Flags: W
LayerCount: 2
Fore
SplineSet
453 0 m 1,0,-1
 361 0 l 1,1,-1
 364 45 l 1,2,3
 340 25 340 25 314 13 c 0,4,5
 264 -10 264 -10 214 -10 c 0,6,7
 137 -10 137 -10 111 42 c 0,8,9
 98 67 98 67 99 106 c 0,10,11
 99 143 99 143 111 193 c 2,12,-1
 194 536 l 1,13,-1
 310 536 l 1,14,-1
 220 196 l 2,15,16
 211 162 211 162 212 138 c 0,17,18
 212 111 212 111 223 101 c 0,19,20
 234 93 234 93 256 93 c 0,21,22
 286 93 286 93 310 103 c 0,23,24
 358 124 358 124 383 188 c 0,25,26
 396 221 396 221 390 264 c 2,27,-1
 462 536 l 1,28,-1
 579 536 l 1,29,-1
 566 482 l 1,30,31
 581 489 581 489 593 505 c 0,32,33
 609 524 609 524 620 556 c 0,34,35
 628 580 628 580 634 607 c 2,36,-1
 637 618 l 1,37,-1
 742 618 l 1,38,-1
 750 592 l 1,39,40
 734 552 734 552 715 518 c 0,41,42
 696 486 696 486 671 458.5 c 128,-1,43
 646 431 646 431 612 414 c 0,44,45
 581 398 581 398 542 393 c 1,46,-1
 453 0 l 1,0,-1
EndSplineSet
Validated: 33
EndChar
StartChar: circumflex
Encoding: 710 710 337
Width: 600
GlyphClass: 2
Flags: W
LayerCount: 2
Fore
SplineSet
536 591 m 1,0,-1
 532 595 l 2,1,2
 502 621 502 621 454 675 c 1,3,4
 366 617 366 617 328 593 c 2,5,-1
 324 591 l 1,6,-1
 247 591 l 1,7,-1
 255 627 l 1,8,9
 273 644 273 644 293 663 c 0,10,11
 374 737 374 737 406 774 c 2,12,-1
 411 781 l 1,13,-1
 538 781 l 1,14,-1
 541 769 l 2,15,16
 548 733 548 733 592 659 c 2,17,-1
 615 622 l 1,18,-1
 608 591 l 1,19,-1
 536 591 l 1,0,-1
EndSplineSet
Validated: 1
EndChar
